{"glyphs":{"0":{"ha":869,"x_min":38,"x_max":832,"o":"m 792 719 q 812 665 792 719 q 832 478 832 611 q 792 236 832 344 q 660 56 753 128 q 435 -17 568 -17 q 255 24 333 -17 q 130 136 176 65 q 60 293 83 207 q 38 478 38 379 q 77 719 38 611 q 209 900 117 828 q 435 972 301 972 q 660 900 568 972 q 792 719 753 828 m 567 260 q 589 302 567 260 q 611 482 611 344 q 567 702 611 619 q 435 785 524 785 q 302 702 346 785 q 258 482 258 619 q 302 260 258 344 q 435 176 346 176 q 567 260 524 176 z "},"1":{"ha":650,"x_min":90,"x_max":481,"o":"m 481 958 l 481 0 l 264 0 l 264 804 l 90 804 l 90 958 l 481 958 z "},"2":{"ha":869,"x_min":71,"x_max":811,"o":"m 811 174 l 811 0 l 108 0 l 82 142 l 407 435 q 517 553 482 503 q 551 661 551 604 q 510 759 551 722 q 397 796 468 796 q 165 667 268 796 l 71 814 q 117 868 81 835 q 236 937 153 901 q 418 972 319 972 q 673 894 579 972 q 767 689 767 817 q 751 584 767 633 q 700 490 735 535 q 643 424 665 446 q 579 365 621 403 q 565 353 569 357 l 367 174 l 811 174 z "},"3":{"ha":869,"x_min":68,"x_max":792,"o":"m 792 281 q 683 64 792 143 q 418 -15 574 -15 q 197 38 288 -15 q 68 144 106 90 l 171 278 q 274 197 206 236 q 406 158 342 158 q 526 194 479 158 q 574 293 574 231 q 531 388 574 354 q 421 422 488 422 l 336 422 l 336 579 l 421 579 q 514 608 479 579 q 549 692 549 638 q 509 775 549 746 q 410 804 469 804 q 181 711 296 804 l 97 853 q 235 940 160 908 q 428 972 310 972 q 663 903 565 972 q 761 717 761 833 q 624 507 761 564 l 624 503 q 742 426 692 485 q 792 281 792 368 z "},"4":{"ha":869,"x_min":31,"x_max":842,"o":"m 842 365 l 842 192 l 714 192 l 714 0 l 497 0 l 497 192 l 31 192 l 31 356 l 465 961 l 714 961 l 714 365 l 842 365 m 235 361 l 503 361 l 503 732 l 235 361 z "},"5":{"ha":869,"x_min":63,"x_max":799,"o":"m 799 321 q 684 74 799 163 q 415 -15 569 -15 q 194 32 285 -15 q 63 142 103 79 l 165 274 q 269 190 203 221 q 400 158 336 158 q 526 200 471 158 q 581 321 581 242 q 526 441 581 400 q 400 482 472 482 q 225 432 296 482 l 128 490 l 201 958 l 763 958 l 763 786 l 364 786 l 336 614 q 464 635 385 635 q 578 616 521 635 q 685 562 635 597 q 767 463 736 526 q 799 321 799 400 z "},"6":{"ha":869,"x_min":68,"x_max":817,"o":"m 817 326 q 719 83 817 181 q 458 -15 622 -15 q 150 144 261 -15 q 68 467 68 260 q 196 854 68 722 q 489 972 307 972 q 786 879 653 972 l 704 732 q 610 782 667 761 q 499 803 554 803 q 357 746 417 803 q 281 521 281 669 q 522 619 369 619 q 729 540 642 619 q 817 326 817 461 m 604 311 q 563 423 604 376 q 451 469 521 469 q 338 423 381 469 q 296 311 296 376 q 338 199 296 244 q 451 153 381 153 q 563 199 522 153 q 604 311 604 244 z "},"7":{"ha":869,"x_min":83,"x_max":828,"o":"m 767 958 l 828 825 l 401 0 l 165 0 l 586 786 l 83 786 l 83 958 l 767 958 z "},"8":{"ha":869,"x_min":68,"x_max":801,"o":"m 801 271 q 697 59 801 133 q 435 -15 593 -15 q 172 59 276 -15 q 68 271 68 133 q 114 416 68 357 q 240 500 160 475 l 240 503 q 94 708 94 556 q 192 903 94 833 q 435 972 290 972 q 676 903 579 972 q 774 708 774 833 q 629 503 774 551 l 629 499 q 756 415 710 474 q 801 271 801 357 m 561 692 q 526 778 561 747 q 435 808 492 808 q 343 778 378 808 q 308 692 308 747 q 343 607 308 638 q 435 576 378 576 q 526 607 492 576 q 561 692 561 638 m 541 192 q 562 211 541 192 q 583 292 583 229 q 541 391 583 354 q 435 428 499 428 q 328 391 369 428 q 286 292 286 354 q 328 192 286 229 q 435 156 371 156 q 541 192 499 156 z "},"9":{"ha":869,"x_min":51,"x_max":801,"o":"m 801 489 q 672 101 801 238 q 381 -15 563 -15 q 82 79 201 -15 l 163 225 q 244 180 183 204 q 372 156 306 156 q 514 214 458 156 q 588 443 588 290 q 506 369 565 403 q 347 336 446 336 q 140 415 228 336 q 51 631 51 494 q 149 874 51 776 q 410 972 246 972 q 718 813 606 972 q 801 489 801 694 m 572 650 q 531 763 572 717 q 418 808 489 808 q 306 763 347 808 q 265 650 265 717 q 307 538 265 585 q 418 492 349 492 q 531 538 489 492 q 572 650 572 585 z "}," ":{"ha":274,"x_min":0,"x_max":0,"o":""},"!":{"ha":453,"x_min":94,"x_max":357,"o":"m 110 958 l 343 958 l 322 294 l 129 294 l 110 958 m 321 192 q 339 176 321 192 q 357 104 357 160 q 321 17 357 49 q 226 -15 285 -15 q 131 17 167 -15 q 94 104 94 49 q 131 192 94 160 q 226 224 167 224 q 321 192 285 224 z "},"\"":{"ha":717,"x_min":106,"x_max":611,"o":"m 406 958 l 611 958 l 586 613 l 429 613 l 406 958 m 106 958 l 311 958 l 286 613 l 129 613 l 106 958 z "},"#":{"ha":908,"x_min":57,"x_max":850,"o":"m 850 726 l 850 608 l 683 608 l 650 413 l 803 413 l 803 294 l 629 294 l 579 8 l 451 8 l 501 294 l 329 294 l 279 8 l 151 8 l 201 294 l 57 294 l 57 413 l 222 413 l 256 608 l 106 608 l 106 726 l 276 726 l 326 1014 l 454 1014 l 404 726 l 576 726 l 628 1014 l 754 1014 l 704 726 l 850 726 m 522 413 l 556 608 l 383 608 l 350 413 l 522 413 z "},"$":{"ha":869,"x_min":97,"x_max":772,"o":"m 772 285 q 665 71 772 156 q 578 24 631 43 q 485 1 526 4 l 482 -75 l 382 -75 l 385 -1 q 226 39 304 1 q 97 140 147 76 l 200 279 q 291 200 229 233 q 400 165 353 167 l 404 397 l 357 417 q 232 485 271 453 q 135 683 135 560 q 226 885 135 806 q 421 957 294 946 l 424 1032 l 524 1032 l 522 954 q 651 919 588 949 q 756 842 715 890 l 669 704 q 507 797 597 785 l 501 575 l 589 538 q 772 285 772 456 m 415 606 l 419 799 q 354 771 379 796 q 329 706 329 746 q 400 613 329 646 l 415 606 m 581 258 q 514 358 581 325 l 492 369 l 488 163 q 551 192 522 165 q 581 258 581 219 z "},"%":{"ha":1200,"x_min":57,"x_max":1143,"o":"m 1074 410 q 1108 376 1074 410 q 1143 231 1143 342 q 1074 51 1143 119 q 894 -18 1004 -18 q 715 51 785 -18 q 646 231 646 119 q 715 410 646 342 q 894 479 785 479 q 1074 410 1004 479 m 851 983 l 946 926 l 350 -33 l 254 24 l 851 983 m 554 719 q 485 538 554 607 q 306 469 415 469 q 126 539 196 469 q 57 719 57 608 q 126 899 57 831 q 306 968 196 968 q 485 899 415 968 q 554 719 554 831 m 972 146 q 985 163 972 146 q 999 233 999 179 q 972 320 999 288 q 894 353 944 353 q 819 320 846 353 q 792 233 792 288 q 819 146 792 179 q 894 113 846 113 q 972 146 944 113 m 383 633 q 397 650 383 633 q 411 721 411 667 q 383 808 411 775 q 306 842 356 842 q 231 808 257 842 q 204 721 204 775 q 231 633 204 667 q 306 600 257 600 q 383 633 356 600 z "},"&":{"ha":1046,"x_min":47,"x_max":1040,"o":"m 1040 11 l 1040 0 l 785 0 l 690 103 q 544 12 614 40 q 383 -17 474 -17 q 144 56 240 -17 q 47 265 47 129 q 278 540 47 442 q 230 597 247 574 q 196 663 213 621 q 179 747 179 704 q 265 917 179 857 q 474 976 350 976 q 676 918 594 976 q 757 753 757 860 q 706 612 757 675 q 576 507 654 549 l 703 364 q 767 445 726 388 q 825 538 807 503 l 982 451 q 822 238 893 308 l 1040 11 m 568 746 q 544 806 568 785 q 478 828 519 828 q 410 805 436 828 q 385 743 385 782 q 431 653 385 707 l 463 618 q 510 651 493 638 q 548 691 528 664 q 568 746 568 718 m 571 229 l 393 425 l 365 410 q 264 272 264 353 q 303 183 264 218 q 399 149 343 149 q 571 229 499 149 z "},"'":{"ha":486,"x_min":140,"x_max":346,"o":"m 140 958 l 346 958 l 321 613 l 164 613 l 140 958 z "},"(":{"ha":464,"x_min":65,"x_max":425,"o":"m 425 -171 l 286 -242 q 127 60 189 -99 q 65 425 65 219 q 127 790 65 631 q 286 1090 189 949 l 425 1019 q 308 759 363 925 q 254 425 254 593 q 308 90 254 256 q 425 -171 363 -76 z "},")":{"ha":464,"x_min":39,"x_max":399,"o":"m 337 789 q 368 710 337 789 q 399 425 399 631 q 338 61 399 219 q 179 -242 276 -97 l 39 -171 q 156 90 101 -76 q 210 425 210 256 q 156 759 210 593 q 39 1019 101 925 l 179 1090 q 337 789 275 947 z "},"*":{"ha":729,"x_min":88,"x_max":642,"o":"m 601 881 l 642 765 l 438 711 l 575 535 l 476 465 l 364 653 l 253 465 l 154 535 l 292 711 l 88 765 l 128 881 l 317 803 l 301 996 l 428 996 l 413 803 l 601 881 z "},"+":{"ha":974,"x_min":106,"x_max":868,"o":"m 868 560 l 868 399 l 568 399 l 568 100 l 406 100 l 406 399 l 106 399 l 106 560 l 406 560 l 406 858 l 568 858 l 568 560 l 868 560 z "},",":{"ha":453,"x_min":46,"x_max":378,"o":"m 164 203 l 378 203 l 228 -194 l 46 -194 l 164 203 z "},"-":{"ha":471,"x_min":42,"x_max":429,"o":"m 429 460 l 429 286 l 42 286 l 42 460 l 429 460 z "},".":{"ha":453,"x_min":94,"x_max":357,"o":"m 321 192 q 339 176 321 192 q 357 104 357 160 q 321 17 357 49 q 226 -15 285 -15 q 131 17 167 -15 q 94 104 94 49 q 131 192 94 160 q 226 224 167 224 q 321 192 285 224 z "},"/":{"ha":753,"x_min":26,"x_max":729,"o":"m 599 1106 l 729 1047 l 156 -136 l 26 -76 l 599 1106 z "},":":{"ha":453,"x_min":94,"x_max":357,"o":"m 321 665 q 339 649 321 665 q 357 578 357 633 q 321 491 357 522 q 226 460 285 460 q 131 491 167 460 q 94 578 94 522 q 131 665 94 633 q 226 697 167 697 q 321 665 285 697 m 321 192 q 339 176 321 192 q 357 104 357 160 q 321 17 357 49 q 226 -15 285 -15 q 131 17 167 -15 q 94 104 94 49 q 131 192 94 160 q 226 224 167 224 q 321 192 285 224 z "},";":{"ha":453,"x_min":46,"x_max":378,"o":"m 321 665 q 339 649 321 665 q 357 578 357 633 q 321 491 357 522 q 226 460 285 460 q 131 491 167 460 q 94 578 94 522 q 131 665 94 633 q 226 697 167 697 q 321 665 285 697 m 164 203 l 378 203 l 228 -194 l 46 -194 l 164 203 z "},"<":{"ha":974,"x_min":106,"x_max":868,"o":"m 868 279 l 868 100 l 106 388 l 106 571 l 868 857 l 868 679 l 322 479 l 868 279 z "},"=":{"ha":974,"x_min":106,"x_max":868,"o":"m 868 714 l 868 551 l 106 551 l 106 714 l 868 714 m 868 407 l 868 244 l 106 244 l 106 407 l 868 407 z "},">":{"ha":974,"x_min":106,"x_max":868,"o":"m 868 571 l 868 388 l 106 100 l 106 279 l 651 479 l 106 679 l 106 857 l 868 571 z "},"?":{"ha":742,"x_min":69,"x_max":664,"o":"m 664 726 q 638 602 664 649 q 563 510 613 556 q 493 456 539 489 q 436 411 447 424 q 421 360 421 393 l 419 294 l 231 294 l 229 385 q 249 484 228 446 q 317 556 269 522 l 401 617 q 463 703 463 661 q 427 769 463 746 q 329 793 392 793 q 133 710 219 793 l 69 865 q 119 908 90 888 q 217 951 149 929 q 367 972 285 972 q 581 901 497 972 q 664 726 664 829 m 420 192 q 438 176 420 192 q 456 104 456 160 q 420 17 456 49 q 325 -15 385 -15 q 230 17 265 -15 q 194 104 194 49 q 230 192 194 160 q 325 224 265 224 q 420 192 385 224 z "},"@":{"ha":1111,"x_min":53,"x_max":1058,"o":"m 1058 376 q 956 94 1058 200 q 751 0 865 0 q 626 83 644 0 q 461 0 543 0 q 333 53 389 0 q 276 221 276 107 q 358 458 276 354 q 567 563 440 563 q 655 548 617 563 q 706 518 693 533 l 719 503 l 731 539 l 844 539 l 754 200 q 746 131 740 161 q 789 100 751 100 q 901 176 847 100 q 956 368 956 251 q 854 608 956 517 q 579 700 753 700 q 281 582 401 700 q 161 279 161 464 q 272 -19 161 93 q 564 -131 382 -131 q 633 -128 600 -131 q 698 -118 667 -125 q 751 -106 729 -111 q 799 -90 772 -101 q 837 -75 826 -79 q 872 -58 847 -71 q 899 -46 897 -46 l 935 -118 q 917 -128 932 -119 q 892 -142 901 -137 q 864 -157 883 -147 q 828 -173 844 -167 q 788 -187 813 -179 q 739 -201 764 -196 q 683 -212 714 -207 q 618 -219 653 -217 q 546 -222 583 -222 q 194 -83 335 -222 q 53 279 53 56 q 208 646 53 500 q 575 792 363 792 q 931 667 796 792 q 1058 376 1058 549 m 653 249 l 697 413 q 685 427 693 418 q 647 451 676 436 q 582 465 617 465 q 453 397 506 465 q 399 232 399 326 q 426 138 399 171 q 501 106 454 106 q 593 142 551 106 q 653 249 635 179 z "},"A":{"ha":944,"x_min":-6,"x_max":950,"o":"m 589 960 l 950 0 l 706 0 l 638 193 l 296 193 l 228 0 l -6 0 l 356 960 l 589 960 m 347 368 l 586 368 l 467 713 l 347 368 z "},"B":{"ha":865,"x_min":88,"x_max":831,"o":"m 831 275 q 725 63 831 139 q 479 0 639 0 l 88 0 l 88 958 l 414 958 q 650 918 572 958 q 772 717 772 854 q 731 583 772 642 q 632 506 690 525 l 632 503 q 777 421 724 481 q 831 275 831 361 m 551 683 q 504 772 551 744 q 404 792 474 792 l 311 792 l 311 571 l 399 571 q 504 592 474 571 q 551 683 551 625 m 603 293 q 554 389 603 354 q 435 415 517 415 l 311 415 l 311 171 l 435 171 q 554 197 517 171 q 603 293 603 229 z "},"C":{"ha":903,"x_min":39,"x_max":888,"o":"m 813 289 l 888 114 q 542 -17 761 -17 q 182 117 325 -17 q 39 478 39 251 q 183 838 39 704 q 542 972 326 972 q 753 935 669 972 q 871 864 838 899 l 801 678 q 708 742 781 706 q 554 778 636 778 q 348 699 429 778 q 267 482 267 619 q 349 267 267 346 q 554 188 432 188 q 813 289 714 188 z "},"D":{"ha":976,"x_min":88,"x_max":938,"o":"m 938 479 q 782 114 938 246 q 413 0 647 0 l 88 0 l 88 958 l 413 958 q 782 843 647 958 q 938 479 938 714 m 710 479 q 625 704 710 622 q 425 772 551 772 l 311 772 l 311 190 l 425 190 q 625 260 553 190 q 710 479 710 339 z "},"E":{"ha":772,"x_min":88,"x_max":721,"o":"m 721 182 l 721 0 l 88 0 l 88 958 l 708 958 l 708 779 l 311 779 l 311 583 l 686 583 l 686 404 l 311 404 l 311 182 l 721 182 z "},"F":{"ha":725,"x_min":88,"x_max":686,"o":"m 686 958 l 686 779 l 311 779 l 311 544 l 664 544 l 664 365 l 311 365 l 311 0 l 88 0 l 88 958 l 686 958 z "},"G":{"ha":1033,"x_min":39,"x_max":964,"o":"m 964 546 l 964 149 l 947 133 q 926 115 932 119 q 900 94 919 110 q 868 72 881 79 q 831 51 856 65 q 787 30 807 38 q 737 13 767 22 q 678 -3 707 3 q 613 -12 649 -8 q 538 -15 576 -15 q 291 40 403 -15 q 109 210 179 96 q 39 479 39 325 q 184 841 39 710 q 540 972 329 972 q 677 957 613 972 q 779 925 742 942 q 857 877 817 908 q 906 837 897 846 q 935 806 914 828 l 786 676 q 540 786 686 786 q 344 703 421 786 q 267 479 267 621 q 345 255 267 338 q 544 172 424 172 q 664 188 614 172 q 729 218 714 203 l 744 233 l 744 375 l 543 375 l 543 546 l 964 546 z "},"H":{"ha":1010,"x_min":88,"x_max":922,"o":"m 922 958 l 922 0 l 697 0 l 697 401 l 313 401 l 313 0 l 88 0 l 88 958 l 313 958 l 313 588 l 697 588 l 697 958 l 922 958 z "},"I":{"ha":400,"x_min":88,"x_max":313,"o":"m 313 958 l 313 0 l 88 0 l 88 958 l 313 958 z "},"J":{"ha":399,"x_min":-65,"x_max":311,"o":"m 311 958 l 311 19 q 251 -197 311 -129 q 78 -268 190 -268 q -11 -261 32 -268 q -65 -247 -54 -254 l -57 -82 q 18 -94 -25 -94 q 72 -67 57 -94 q 88 17 88 -39 l 88 958 l 311 958 z "},"K":{"ha":874,"x_min":88,"x_max":897,"o":"m 536 576 l 897 0 l 628 0 l 388 400 l 311 315 l 311 0 l 88 0 l 88 958 l 311 958 l 311 608 l 607 958 l 874 958 l 536 576 z "},"L":{"ha":657,"x_min":88,"x_max":643,"o":"m 643 186 l 643 0 l 88 0 l 88 958 l 311 958 l 311 186 l 643 186 z "},"M":{"ha":1214,"x_min":51,"x_max":1163,"o":"m 1092 958 l 1163 0 l 942 0 l 904 653 l 901 653 l 696 0 l 518 0 l 311 653 l 307 653 l 272 0 l 51 0 l 124 958 l 407 958 l 607 328 l 610 328 l 807 958 l 1092 958 z "},"N":{"ha":1042,"x_min":88,"x_max":954,"o":"m 954 958 l 954 0 l 724 0 l 303 650 q 307 433 307 535 l 307 0 l 88 0 l 88 958 l 328 958 l 739 314 q 735 524 735 422 l 735 958 l 954 958 z "},"O":{"ha":1094,"x_min":39,"x_max":1056,"o":"m 911 839 q 983 772 911 839 q 1056 478 1056 704 q 911 117 1056 251 q 547 -17 767 -17 q 183 117 328 -17 q 39 478 39 251 q 183 839 39 704 q 547 974 328 974 q 911 839 767 974 m 749 266 q 788 307 749 266 q 828 483 828 349 q 749 700 828 618 q 547 782 669 782 q 346 700 425 782 q 267 483 267 618 q 346 266 267 349 q 547 183 425 183 q 749 266 669 183 z "},"P":{"ha":803,"x_min":88,"x_max":781,"o":"m 781 657 q 681 426 781 511 q 431 354 593 354 l 313 354 l 313 0 l 88 0 l 88 958 l 431 958 q 681 886 593 958 q 781 657 781 804 m 553 657 q 507 758 553 725 q 399 785 469 785 l 311 785 l 311 528 l 399 528 q 507 554 469 528 q 553 657 553 588 z "},"Q":{"ha":1094,"x_min":39,"x_max":1056,"o":"m 1056 478 q 943 151 1056 283 l 1047 33 l 910 -87 l 799 39 q 547 -17 685 -17 q 183 117 328 -17 q 39 478 39 251 q 183 839 39 704 q 547 974 328 974 q 911 839 767 974 q 1056 478 1056 704 m 828 483 q 749 700 828 618 q 547 782 669 782 q 346 700 425 782 q 267 483 267 618 q 346 266 267 349 q 547 183 425 183 q 653 203 606 183 l 596 268 l 733 390 l 792 324 q 828 483 828 392 z "},"R":{"ha":833,"x_min":88,"x_max":846,"o":"m 603 396 l 846 0 l 585 0 l 383 367 l 313 367 l 313 0 l 88 0 l 88 958 l 432 958 q 685 890 592 958 q 790 671 790 813 q 756 524 790 586 q 684 436 722 463 q 603 396 646 410 m 515 565 q 564 663 564 600 q 515 760 564 725 q 400 785 482 785 l 311 785 l 311 539 l 400 539 q 515 565 481 539 z "},"S":{"ha":767,"x_min":22,"x_max":735,"o":"m 735 292 q 622 63 735 150 q 363 -17 522 -17 q 22 128 178 -17 l 133 292 q 256 205 185 239 q 383 171 326 171 q 475 197 439 171 q 511 269 511 224 q 501 311 511 293 q 469 342 490 329 q 435 360 449 354 q 399 375 422 367 q 253 429 263 425 q 139 499 171 468 q 64 683 64 568 q 164 893 64 811 q 417 969 254 969 q 585 935 499 969 q 721 851 671 901 l 625 694 q 523 765 582 738 q 411 792 464 792 q 320 769 354 792 q 286 706 286 747 q 294 669 286 685 q 319 641 303 653 q 349 623 336 629 q 383 608 363 617 q 458 580 404 600 q 526 554 511 560 q 660 476 614 522 q 735 292 735 401 z "},"T":{"ha":731,"x_min":6,"x_max":725,"o":"m 725 958 l 725 781 l 478 781 l 478 0 l 253 0 l 253 781 l 6 781 l 6 958 l 725 958 z "},"U":{"ha":964,"x_min":81,"x_max":883,"o":"m 883 958 l 883 400 q 792 99 883 197 q 482 -15 686 -15 q 171 99 278 -15 q 81 400 81 199 l 81 958 l 307 958 l 307 400 q 344 240 307 286 q 482 181 394 181 q 619 240 569 181 q 657 400 657 286 l 657 958 l 883 958 z "},"V":{"ha":914,"x_min":-6,"x_max":919,"o":"m 682 958 l 919 958 l 564 0 l 350 0 l -6 958 l 233 958 l 458 299 l 682 958 z "},"W":{"ha":1364,"x_min":-4,"x_max":1368,"o":"m 1133 958 l 1368 958 l 1090 0 l 864 0 l 682 657 l 500 0 l 274 0 l -4 958 l 231 958 l 397 313 l 569 958 l 794 958 l 968 313 l 1133 958 z "},"X":{"ha":903,"x_min":-15,"x_max":917,"o":"m 599 497 l 917 0 l 649 0 l 451 357 l 253 0 l -15 0 l 303 497 l 6 958 l 272 958 l 451 643 l 631 958 l 897 958 l 599 497 z "},"Y":{"ha":861,"x_min":-15,"x_max":876,"o":"m 626 958 l 876 958 l 543 388 l 543 0 l 318 0 l 318 388 l -15 958 l 235 958 l 431 576 l 626 958 z "},"Z":{"ha":851,"x_min":42,"x_max":817,"o":"m 817 186 l 817 0 l 42 0 l 42 163 l 511 776 l 56 776 l 56 958 l 801 958 l 801 806 l 328 186 l 817 186 z "},"[":{"ha":464,"x_min":78,"x_max":400,"o":"m 400 -103 l 400 -210 l 78 -210 l 78 1058 l 400 1058 l 400 951 l 256 951 l 256 -103 l 400 -103 z "},"\\":{"ha":751,"x_min":33,"x_max":718,"o":"m 154 1104 l 718 -39 l 597 -96 l 33 1047 l 154 1104 z "},"]":{"ha":464,"x_min":69,"x_max":392,"o":"m 392 1058 l 392 -210 l 69 -210 l 69 -103 l 214 -103 l 214 951 l 69 951 l 69 1058 l 392 1058 z "},"^":{"ha":974,"x_min":138,"x_max":836,"o":"m 578 989 l 836 417 l 658 417 l 488 811 l 315 417 l 138 417 l 396 989 l 578 989 z "},"_":{"ha":694,"x_min":0,"x_max":694,"o":"m 694 83 l 694 -83 l 0 -83 l 0 83 l 694 83 z "},"`":{"ha":579,"x_min":140,"x_max":440,"o":"m 329 958 l 440 757 l 282 757 l 140 958 l 329 958 z "},"a":{"ha":751,"x_min":26,"x_max":688,"o":"m 688 386 l 688 0 l 475 0 l 471 72 q 431 35 447 49 q 370 3 414 21 q 275 -15 326 -15 q 100 40 174 -15 q 26 203 26 96 q 68 323 26 275 q 167 390 110 371 q 293 413 224 410 l 465 419 l 465 435 q 325 544 465 544 q 208 525 267 544 q 115 483 149 506 l 57 628 q 350 697 196 697 q 606 618 519 697 q 688 386 688 540 m 467 189 l 467 301 l 357 294 q 249 211 249 290 q 278 149 249 172 q 353 126 307 126 q 423 147 393 126 q 467 189 453 167 z "},"b":{"ha":875,"x_min":79,"x_max":840,"o":"m 752 597 q 796 546 752 597 q 840 342 840 496 q 751 86 840 188 q 517 -15 663 -15 q 290 90 365 -15 l 289 90 l 290 0 l 79 0 l 79 958 l 301 958 l 301 728 l 299 601 l 303 601 q 384 669 329 640 q 518 697 439 697 q 752 597 664 697 m 570 216 q 592 241 570 216 q 614 344 614 265 q 570 473 614 424 q 454 522 526 522 q 338 473 382 522 q 293 344 293 424 q 338 216 293 265 q 454 167 382 167 q 570 216 526 167 z "},"c":{"ha":669,"x_min":33,"x_max":656,"o":"m 603 235 l 656 67 l 651 64 q 643 56 647 60 q 631 47 639 53 q 613 35 622 40 q 591 24 604 31 q 563 12 578 17 q 530 1 549 7 q 491 -8 511 -4 q 446 -13 471 -11 q 394 -15 421 -15 q 140 81 246 -15 q 33 340 33 176 q 141 601 33 504 q 397 697 249 697 q 539 679 475 697 q 628 643 603 661 l 651 625 l 603 457 q 426 518 525 518 q 306 471 354 518 q 257 344 257 424 q 304 216 257 264 q 429 168 351 168 q 519 185 475 168 q 583 218 563 201 l 603 235 z "},"d":{"ha":875,"x_min":33,"x_max":796,"o":"m 796 958 l 796 0 l 585 0 l 586 90 l 582 89 q 357 -15 506 -15 q 122 86 211 -15 q 33 342 33 188 q 122 597 33 496 q 357 697 211 697 q 495 667 440 697 q 574 601 550 636 l 574 958 l 796 958 m 537 216 q 559 241 537 216 q 581 344 581 265 q 537 473 581 424 q 421 522 493 522 q 304 473 349 522 q 260 344 260 424 q 304 216 260 265 q 421 167 349 167 q 537 216 493 167 z "},"e":{"ha":775,"x_min":33,"x_max":746,"o":"m 746 363 l 743 289 l 256 289 q 310 182 263 218 q 431 146 358 146 q 636 211 540 146 l 724 96 l 711 85 q 686 66 697 74 q 654 45 675 58 q 608 23 633 32 q 553 4 583 14 q 482 -10 522 -6 q 399 -15 442 -15 q 135 80 236 -15 q 33 342 33 175 q 139 601 33 506 q 403 697 244 697 q 651 605 556 697 q 746 363 746 513 m 257 415 l 539 415 q 501 510 538 468 q 399 553 464 553 q 297 511 335 553 q 257 415 260 469 z "},"f":{"ha":450,"x_min":15,"x_max":501,"o":"m 501 958 l 490 804 q 408 817 447 817 q 326 728 326 817 l 326 683 l 474 683 l 474 515 l 326 515 l 326 0 l 103 0 l 103 515 l 15 515 l 15 683 l 103 683 l 103 721 q 158 906 103 849 q 350 976 225 976 q 426 972 389 976 q 483 963 464 967 l 501 958 z "},"g":{"ha":872,"x_min":33,"x_max":796,"o":"m 796 685 l 796 139 q 692 -157 796 -60 q 376 -265 576 -265 q 182 -233 271 -265 q 44 -164 93 -200 l 136 -15 q 241 -68 172 -43 q 372 -93 310 -93 q 533 -39 482 -93 q 575 97 575 8 l 575 119 l 572 119 q 357 22 497 22 q 128 112 222 22 q 33 360 33 201 q 128 608 33 518 q 357 697 222 697 q 574 597 497 697 l 576 597 l 574 685 l 796 685 m 581 358 q 537 476 581 429 q 421 524 493 524 q 304 476 349 524 q 260 358 260 429 q 304 239 260 286 q 421 192 349 192 q 537 239 493 192 q 581 358 581 286 z "},"h":{"ha":818,"x_min":79,"x_max":751,"o":"m 751 404 l 751 0 l 528 0 l 528 360 q 508 475 528 435 q 424 515 488 515 q 301 336 301 515 l 301 0 l 79 0 l 79 958 l 301 958 l 301 731 l 300 586 q 501 697 363 697 q 696 620 640 697 q 751 404 751 543 z "},"i":{"ha":375,"x_min":61,"x_max":314,"o":"m 278 963 q 296 947 278 963 q 314 879 314 931 q 279 796 314 828 q 188 764 244 764 q 96 796 131 764 q 61 879 61 828 q 97 963 61 931 q 188 994 132 994 q 278 963 243 994 m 299 685 l 299 0 l 76 0 l 76 685 l 299 685 z "},"j":{"ha":375,"x_min":-65,"x_max":314,"o":"m 278 963 q 296 947 278 963 q 314 879 314 931 q 279 796 314 828 q 188 764 244 764 q 96 796 131 764 q 61 879 61 828 q 97 963 61 931 q 188 994 132 994 q 278 963 243 994 m 299 685 l 299 17 q 242 -189 299 -126 q 51 -265 172 -265 q -11 -262 18 -265 q -53 -256 -40 -258 l -65 -253 l -61 -81 q 1 -89 -33 -89 q 60 -60 44 -89 q 76 28 76 -32 l 76 685 l 299 685 z "},"k":{"ha":765,"x_min":79,"x_max":786,"o":"m 515 428 l 786 0 l 531 0 l 363 267 l 301 207 l 301 0 l 79 0 l 79 958 l 301 958 l 301 458 l 510 685 l 765 685 l 515 428 z "},"l":{"ha":379,"x_min":79,"x_max":301,"o":"m 301 958 l 301 0 l 79 0 l 79 958 l 301 958 z "},"m":{"ha":1214,"x_min":74,"x_max":1146,"o":"m 1146 413 l 1146 0 l 922 0 l 922 372 q 832 515 922 515 q 749 471 776 515 q 721 351 721 426 l 721 0 l 499 0 l 499 372 q 407 515 499 515 q 324 471 351 515 q 296 351 296 426 l 296 0 l 74 0 l 74 685 l 296 685 l 294 586 l 297 588 q 376 666 326 635 q 486 697 425 697 q 690 572 643 697 q 908 697 764 697 q 1146 413 1146 697 z "},"n":{"ha":815,"x_min":74,"x_max":746,"o":"m 746 404 l 746 0 l 524 0 l 524 357 q 503 475 524 435 q 418 515 482 515 q 296 339 296 515 l 296 0 l 74 0 l 74 685 l 296 685 l 294 586 l 297 586 q 496 697 365 697 q 690 619 635 697 q 746 404 746 542 z "},"o":{"ha":828,"x_min":33,"x_max":793,"o":"m 686 600 q 740 551 686 600 q 793 340 793 503 q 686 81 793 178 q 414 -15 579 -15 q 140 81 247 -15 q 33 340 33 178 q 141 600 33 503 q 414 697 249 697 q 686 600 579 697 m 527 217 q 548 242 527 217 q 569 344 569 267 q 527 472 569 422 q 414 522 485 522 q 300 472 342 522 q 258 344 258 422 q 300 217 258 267 q 414 167 342 167 q 527 217 485 167 z "},"p":{"ha":872,"x_min":76,"x_max":839,"o":"m 751 597 q 795 546 751 597 q 839 342 839 496 q 750 86 839 188 q 515 -15 661 -15 q 299 86 367 -15 l 299 -251 l 76 -251 l 76 685 l 288 685 l 286 597 l 289 597 q 517 697 372 697 q 751 597 663 697 m 568 216 q 590 241 568 216 q 613 344 613 265 q 568 473 613 424 q 451 522 524 522 q 336 473 381 522 q 292 344 292 424 q 336 216 292 265 q 451 167 381 167 q 568 216 524 167 z "},"q":{"ha":869,"x_min":33,"x_max":796,"o":"m 796 685 l 796 -251 l 574 -251 l 574 -10 l 575 86 l 572 86 q 357 -15 504 -15 q 122 86 211 -15 q 33 342 33 188 q 122 597 33 496 q 357 697 211 697 q 585 597 501 697 l 588 597 l 585 685 l 796 685 m 537 216 q 559 241 537 216 q 581 344 581 265 q 537 473 581 424 q 421 522 493 522 q 304 473 349 522 q 260 344 260 424 q 304 216 260 265 q 421 167 349 167 q 537 216 493 167 z "},"r":{"ha":538,"x_min":74,"x_max":536,"o":"m 536 685 l 524 481 l 514 481 q 433 497 483 497 q 331 447 368 497 q 296 304 296 401 l 296 0 l 74 0 l 74 685 l 296 685 l 294 588 l 297 588 q 467 697 354 697 q 505 694 488 697 q 529 689 522 692 l 536 685 z "},"s":{"ha":626,"x_min":17,"x_max":596,"o":"m 596 211 q 515 44 596 110 q 306 -15 439 -15 q 17 90 128 -15 l 100 222 q 201 163 142 188 q 303 139 261 139 q 397 197 397 139 q 388 221 397 210 q 360 241 378 232 q 328 255 342 250 q 294 266 315 260 q 272 272 274 272 q 175 304 213 288 q 58 483 58 356 q 133 640 58 581 q 318 699 207 699 q 581 614 478 699 l 508 483 q 426 529 476 508 q 336 550 375 550 q 254 500 254 550 q 354 433 254 463 q 451 401 413 417 q 540 350 507 381 q 596 211 596 294 z "},"t":{"ha":497,"x_min":10,"x_max":482,"o":"m 482 683 l 482 515 l 331 515 l 331 269 q 350 185 331 207 q 403 168 364 168 q 435 172 418 168 q 461 178 451 175 l 469 181 l 481 7 q 322 -15 392 -15 q 156 49 211 -15 q 107 250 107 106 l 107 515 l 10 515 l 10 683 l 107 683 l 107 869 l 331 869 l 331 683 l 482 683 z "},"u":{"ha":804,"x_min":69,"x_max":731,"o":"m 731 685 l 731 0 l 517 0 l 515 78 q 437 13 490 42 q 315 -15 383 -15 q 119 65 181 -15 q 69 271 69 136 l 69 685 l 292 685 l 292 301 q 393 168 292 168 q 479 209 450 168 q 508 321 508 250 l 508 685 l 731 685 z "},"v":{"ha":758,"x_min":-6,"x_max":765,"o":"m 536 685 l 765 685 l 483 0 l 275 0 l -6 685 l 226 685 l 382 251 l 536 685 z "},"w":{"ha":1143,"x_min":3,"x_max":1140,"o":"m 915 685 l 1140 685 l 915 0 l 706 0 l 572 419 l 438 0 l 228 0 l 3 685 l 228 685 l 349 247 l 481 685 l 663 685 l 794 247 l 915 685 z "},"x":{"ha":786,"x_min":-15,"x_max":800,"o":"m 525 357 l 800 0 l 547 0 l 393 228 l 238 0 l -15 0 l 260 357 l 14 685 l 265 685 l 393 479 l 519 685 l 771 685 l 525 357 z "},"y":{"ha":756,"x_min":-6,"x_max":765,"o":"m 536 685 l 765 685 l 460 -65 q 369 -214 418 -165 q 238 -262 319 -262 q 138 -254 186 -262 q 69 -237 90 -246 l 47 -229 l 92 -65 q 174 -83 140 -83 q 199 -82 190 -83 q 219 -70 207 -81 q 240 -39 232 -60 l 265 21 l -6 685 l 226 685 l 382 244 l 536 685 z "},"z":{"ha":689,"x_min":22,"x_max":667,"o":"m 667 176 l 667 0 l 22 0 l 22 128 l 368 515 l 38 515 l 38 683 l 650 683 l 650 560 l 308 176 l 667 176 z "},"{":{"ha":464,"x_min":8,"x_max":407,"o":"m 407 -103 l 407 -210 l 285 -210 q 136 -162 179 -210 q 93 -4 93 -114 l 93 240 q 8 354 93 354 l 8 494 q 93 607 93 494 l 93 851 q 136 1010 93 961 q 285 1058 179 1058 l 407 1058 l 407 951 l 360 951 q 290 933 308 951 q 271 861 271 914 l 271 607 q 243 481 271 519 q 160 429 215 443 l 160 419 q 243 367 215 406 q 271 240 271 328 l 271 -14 q 290 -85 271 -67 q 360 -103 308 -103 l 407 -103 z "},"|":{"ha":464,"x_min":157,"x_max":307,"o":"m 307 1111 l 307 -204 l 157 -204 l 157 1111 l 307 1111 z "},"}":{"ha":464,"x_min":57,"x_max":457,"o":"m 457 494 l 457 354 q 371 240 371 354 l 371 -4 q 328 -162 371 -114 q 181 -210 286 -210 l 57 -210 l 57 -103 l 104 -103 q 174 -85 156 -103 q 193 -14 193 -67 l 193 240 q 221 367 193 328 q 304 419 249 406 l 304 429 q 221 481 249 443 q 193 607 193 519 l 193 861 q 174 933 193 914 q 104 951 156 951 l 57 951 l 57 1058 l 181 1058 q 328 1010 286 1058 q 371 851 371 961 l 371 607 q 457 494 371 494 z "},"~":{"ha":974,"x_min":103,"x_max":871,"o":"m 774 572 l 871 454 q 767 351 828 392 q 636 311 706 311 q 606 313 621 311 q 578 316 590 314 q 553 322 567 318 q 531 329 539 326 q 511 338 524 332 q 494 345 499 343 q 477 353 489 347 q 464 361 465 360 q 336 403 381 403 q 263 378 300 403 q 200 315 226 353 l 103 433 q 207 536 146 496 q 338 576 268 576 q 368 575 353 576 q 395 572 383 574 q 421 565 407 569 q 442 558 435 561 q 463 550 450 556 q 480 542 475 544 q 497 534 485 540 q 510 526 508 528 q 638 485 593 485 q 710 510 674 485 q 774 572 747 535 z "}," ":{"ha":274,"x_min":0,"x_max":0,"o":""},"¡":{"ha":453,"x_min":94,"x_max":357,"o":"m 321 667 q 339 652 321 667 q 357 581 357 636 q 321 493 357 525 q 226 461 285 461 q 131 493 167 461 q 94 581 94 525 q 131 667 94 636 q 226 699 167 699 q 321 667 285 699 m 322 390 l 343 -274 l 110 -274 l 129 390 l 322 390 z "},"¢":{"ha":869,"x_min":117,"x_max":750,"o":"m 707 299 l 750 140 q 683 99 738 124 q 565 69 629 75 l 565 -42 l 453 -42 l 453 68 q 212 174 307 81 q 117 422 117 268 q 212 672 117 576 q 453 779 307 767 l 453 889 l 565 889 l 565 778 q 674 752 624 772 q 744 713 724 732 l 700 550 q 565 604 639 596 l 565 246 q 647 265 607 249 q 707 299 688 282 m 453 256 l 453 599 q 364 538 397 585 q 331 426 331 492 q 363 317 331 363 q 453 256 396 271 z "},"£":{"ha":869,"x_min":82,"x_max":804,"o":"m 804 165 l 804 0 l 82 0 l 82 165 l 242 165 q 261 224 251 181 q 272 297 271 267 l 269 396 l 124 396 l 124 524 l 260 524 l 240 593 q 221 718 221 660 q 301 903 221 829 q 513 972 378 972 q 767 874 669 972 l 690 744 q 533 814 614 814 q 447 781 474 814 q 419 701 419 749 q 443 574 419 660 l 457 524 l 661 524 l 661 396 l 467 396 l 469 297 q 459 224 468 267 q 440 165 450 181 l 804 165 z "},"¤":{"ha":869,"x_min":69,"x_max":826,"o":"m 760 249 l 826 90 l 818 82 q 803 67 810 74 q 781 51 796 61 q 752 32 767 40 q 715 15 738 24 q 667 -1 692 6 q 610 -11 643 -7 q 543 -15 578 -15 q 294 69 394 -15 q 158 317 194 153 l 69 317 l 69 446 l 140 446 q 139 486 139 467 l 139 524 l 69 524 l 69 651 l 161 651 q 301 892 193 804 q 549 972 399 972 q 797 908 699 972 l 746 732 q 563 801 672 801 q 388 651 414 801 l 654 651 l 654 524 l 363 524 q 361 486 361 503 l 363 446 l 654 446 l 654 317 l 388 317 q 443 206 397 246 q 561 165 489 165 q 760 249 663 165 z "},"¥":{"ha":869,"x_min":8,"x_max":860,"o":"m 615 958 l 860 958 l 631 564 l 790 564 l 790 435 l 554 435 l 542 390 l 542 354 l 790 354 l 790 226 l 540 226 l 540 0 l 328 0 l 328 226 l 78 226 l 78 354 l 328 354 l 328 390 l 315 435 l 78 435 l 78 564 l 239 564 l 8 958 l 254 958 l 435 582 l 615 958 z "},"¦":{"ha":464,"x_min":157,"x_max":307,"o":"m 307 1111 l 307 672 l 157 672 l 157 1111 l 307 1111 m 307 439 l 307 0 l 157 0 l 157 439 l 307 439 z "},"§":{"ha":921,"x_min":119,"x_max":801,"o":"m 801 351 q 770 243 801 290 q 708 179 739 196 l 678 163 q 738 99 707 147 q 768 -18 768 50 q 674 -201 768 -136 q 447 -265 581 -265 q 119 -104 215 -265 l 242 6 q 328 -80 268 -44 q 447 -115 388 -115 q 567 -28 567 -115 q 450 89 567 40 l 308 147 q 133 374 133 219 q 150 460 133 421 q 190 522 167 500 q 231 557 214 544 q 258 572 249 569 q 236 590 250 578 q 200 645 222 603 q 178 738 178 688 q 263 910 178 849 q 471 972 347 972 q 776 832 676 972 l 674 724 q 482 829 594 829 q 375 747 375 829 q 406 686 375 710 q 507 633 438 663 l 619 588 q 801 351 801 511 m 565 232 q 622 322 622 250 q 542 428 622 394 l 363 501 q 322 467 339 493 q 306 406 306 440 q 388 304 306 338 l 565 232 z "},"¨":{"ha":579,"x_min":69,"x_max":510,"o":"m 483 924 q 497 911 483 924 q 510 857 510 899 q 483 790 510 815 q 417 765 457 765 q 349 791 376 765 q 322 857 322 817 q 349 924 322 899 q 417 950 376 950 q 483 924 457 950 m 231 924 q 244 911 231 924 q 257 857 257 899 q 231 790 257 815 q 164 765 204 765 q 97 791 124 765 q 69 857 69 817 q 97 924 69 899 q 164 950 124 950 q 231 924 204 950 z "},"©":{"ha":1068,"x_min":40,"x_max":1028,"o":"m 885 830 q 956 759 885 830 q 1028 479 1028 688 q 885 128 1028 271 q 533 -14 742 -14 q 183 128 326 -14 q 40 479 40 271 q 183 830 40 688 q 533 972 326 972 q 885 830 742 972 m 832 181 q 892 241 832 181 q 953 479 953 301 q 832 778 953 657 q 533 899 711 899 q 235 777 356 899 q 114 479 114 656 q 235 181 114 303 q 533 60 356 60 q 832 181 711 60 m 721 358 l 771 268 q 557 182 689 182 q 342 265 428 182 q 257 479 257 347 q 342 694 257 611 q 557 776 428 776 q 764 697 693 776 l 714 606 q 560 671 657 671 q 431 622 483 671 q 379 482 379 572 q 431 342 379 392 q 560 293 483 293 q 721 358 656 293 z "},"ª":{"ha":522,"x_min":44,"x_max":464,"o":"m 464 501 l 464 274 l 325 274 l 321 318 q 197 267 272 267 q 90 299 136 267 q 44 399 44 332 q 94 493 44 464 q 213 525 144 522 l 318 529 l 318 535 q 233 597 318 597 q 101 561 160 597 l 63 653 q 250 696 149 696 q 414 646 361 696 q 464 501 464 600 m 318 386 l 318 456 l 251 451 q 193 404 193 449 q 253 356 193 356 q 285 363 268 356 q 310 378 301 371 l 318 386 z "},"«":{"ha":790,"x_min":86,"x_max":696,"o":"m 532 342 l 696 117 l 588 42 l 367 342 l 588 643 l 696 568 l 532 342 m 251 342 l 415 117 l 307 42 l 86 342 l 307 643 l 415 568 l 251 342 z "},"¬":{"ha":975,"x_min":106,"x_max":868,"o":"m 868 692 l 868 228 l 706 228 l 706 529 l 106 529 l 106 692 l 868 692 z "},"­":{"ha":471,"x_min":42,"x_max":429,"o":"m 429 460 l 429 286 l 42 286 l 42 460 l 429 460 z "},"®":{"ha":1068,"x_min":40,"x_max":1028,"o":"m 885 830 q 956 759 885 830 q 1028 479 1028 688 q 885 128 1028 271 q 533 -14 742 -14 q 183 128 326 -14 q 40 479 40 271 q 183 830 40 688 q 533 972 326 972 q 885 830 742 972 m 832 181 q 892 241 832 181 q 953 479 953 301 q 832 778 953 657 q 533 899 711 899 q 235 777 356 899 q 114 479 114 656 q 235 181 114 303 q 533 60 356 60 q 832 181 711 60 m 635 432 l 778 190 l 638 190 l 517 417 l 460 417 l 460 190 l 342 190 l 342 768 l 546 768 q 697 722 642 768 q 753 594 753 675 q 717 483 753 521 q 635 432 681 444 m 631 592 q 526 672 631 672 l 460 672 l 460 513 l 526 513 q 631 592 631 513 z "},"¯":{"ha":579,"x_min":69,"x_max":510,"o":"m 510 913 l 510 806 l 69 806 l 69 913 l 510 913 z "},"°":{"ha":599,"x_min":72,"x_max":526,"o":"m 460 956 q 493 924 460 956 q 526 797 526 892 q 460 639 526 703 q 300 575 393 575 q 139 639 206 575 q 72 797 72 703 q 139 956 72 892 q 300 1021 206 1021 q 460 956 393 1021 m 425 797 q 388 885 425 849 q 300 922 351 922 q 212 885 247 922 q 176 797 176 849 q 212 709 176 746 q 300 672 247 672 q 388 710 351 672 q 425 797 425 747 z "},"±":{"ha":974,"x_min":106,"x_max":868,"o":"m 868 688 l 868 525 l 571 525 l 571 285 l 404 285 l 404 525 l 106 525 l 106 688 l 404 688 l 404 926 l 571 926 l 571 688 l 868 688 m 868 236 l 868 74 l 106 74 l 106 236 l 868 236 z "},"²":{"ha":575,"x_min":53,"x_max":522,"o":"m 522 518 l 522 396 l 78 396 l 60 496 l 263 676 q 331 747 311 721 q 350 801 350 774 q 328 849 350 831 q 268 867 307 867 q 122 779 183 867 l 53 876 q 124 951 58 911 q 281 992 189 992 q 442 944 381 992 q 503 821 503 897 q 501 789 503 804 q 492 759 499 774 q 481 733 486 744 q 465 707 476 721 q 449 685 454 693 q 428 664 443 678 q 410 646 414 650 q 390 628 406 642 q 371 611 374 614 l 268 518 l 522 518 z "},"³":{"ha":575,"x_min":60,"x_max":528,"o":"m 528 571 q 458 437 528 488 q 297 386 389 386 q 60 503 133 386 l 142 589 q 204 531 164 551 q 283 510 244 510 q 348 528 321 510 q 375 578 375 547 q 350 628 375 610 q 286 647 325 647 l 235 649 l 235 758 l 290 758 q 342 775 324 758 q 361 821 361 792 q 341 860 361 846 q 286 875 321 875 q 150 808 207 875 l 86 901 q 296 992 158 992 q 447 948 383 992 q 510 833 510 904 q 432 707 510 746 l 431 707 q 501 656 475 692 q 528 571 528 619 z "},"´":{"ha":579,"x_min":140,"x_max":440,"o":"m 250 958 l 440 958 l 297 757 l 140 757 l 250 958 z "},"µ":{"ha":808,"x_min":72,"x_max":735,"o":"m 735 683 l 735 0 l 521 0 l 518 75 q 451 23 496 46 q 360 0 407 0 q 283 25 306 0 l 292 -251 l 72 -251 l 72 683 l 294 683 l 294 310 q 318 205 294 240 q 397 169 342 169 q 511 313 511 169 l 511 683 l 735 683 z "},"¶":{"ha":921,"x_min":53,"x_max":846,"o":"m 846 958 l 846 814 l 783 814 l 783 -251 l 635 -251 l 635 814 l 506 814 l 506 -251 l 358 -251 l 358 339 q 138 422 222 342 q 53 649 53 501 q 141 879 53 800 q 386 958 229 958 l 846 958 z "},"·":{"ha":582,"x_min":163,"x_max":419,"o":"m 384 490 q 402 473 384 490 q 419 404 419 457 q 384 319 419 351 q 292 286 349 286 q 198 319 233 286 q 163 404 163 351 q 198 490 163 457 q 292 522 233 522 q 384 490 349 522 z "},"¸":{"ha":590,"x_min":158,"x_max":432,"o":"m 292 0 l 432 0 l 326 -206 l 158 -206 l 292 0 z "},"¹":{"ha":575,"x_min":143,"x_max":410,"o":"m 410 978 l 410 392 l 253 392 l 253 867 l 143 867 l 143 978 l 410 978 z "},"º":{"ha":586,"x_min":58,"x_max":528,"o":"m 528 481 q 461 326 528 385 q 293 267 394 267 q 124 325 190 267 q 58 481 58 383 q 124 637 58 578 q 293 696 190 696 q 461 637 394 696 q 528 481 528 578 m 356 408 q 368 422 356 408 q 381 483 381 436 q 356 558 381 531 q 293 585 331 585 q 230 558 256 585 q 204 483 204 531 q 230 408 204 436 q 293 381 256 381 q 356 408 331 381 z "},"»":{"ha":790,"x_min":94,"x_max":704,"o":"m 483 643 l 704 342 l 483 42 l 376 117 l 539 342 l 375 568 l 483 643 m 203 643 l 424 342 l 203 42 l 94 117 l 258 342 l 94 568 l 203 643 z "},"¼":{"ha":1313,"x_min":89,"x_max":1240,"o":"m 1240 229 l 1240 113 l 1160 113 l 1160 0 l 1001 0 l 1001 113 l 693 113 l 693 213 l 994 592 l 1160 592 l 1160 229 l 1240 229 m 843 983 l 939 926 l 342 -33 l 246 24 l 843 983 m 357 958 l 357 392 l 199 392 l 199 847 l 89 847 l 89 958 l 357 958 m 844 229 l 1004 229 l 1004 436 l 844 229 z "},"½":{"ha":1314,"x_min":79,"x_max":1236,"o":"m 1236 124 l 1236 0 l 793 0 l 772 96 l 967 265 q 1060 394 1060 344 q 1038 445 1060 426 q 979 464 1015 464 q 832 381 907 464 l 767 488 q 844 554 782 519 q 993 589 907 589 q 1151 542 1090 589 q 1211 418 1211 494 q 1201 360 1211 389 q 1183 315 1192 332 q 1151 274 1175 299 q 1120 242 1126 249 q 1085 211 1114 236 l 983 124 l 1236 124 m 829 983 l 925 926 l 329 -33 l 233 24 l 829 983 m 347 958 l 347 382 l 190 382 l 190 847 l 79 847 l 79 958 l 347 958 z "},"¾":{"ha":1313,"x_min":60,"x_max":1240,"o":"m 1240 229 l 1240 113 l 1160 113 l 1160 0 l 1001 0 l 1001 113 l 693 113 l 693 213 l 994 592 l 1160 592 l 1160 229 l 1240 229 m 528 571 q 458 437 528 488 q 297 386 389 386 q 60 503 133 386 l 142 589 q 204 531 164 551 q 283 510 244 510 q 348 528 321 510 q 375 578 375 547 q 350 628 375 610 q 286 647 325 647 l 235 649 l 235 758 l 290 758 q 342 775 324 758 q 361 821 361 792 q 341 860 361 846 q 286 875 321 875 q 150 808 207 875 l 86 901 q 296 992 158 992 q 447 948 383 992 q 510 833 510 904 q 432 707 510 746 l 431 707 q 501 656 475 692 q 528 571 528 619 m 914 983 l 1010 926 l 413 -33 l 317 24 l 914 983 m 844 229 l 1004 229 l 1004 436 l 844 229 z "},"¿":{"ha":742,"x_min":76,"x_max":672,"o":"m 511 668 q 529 652 511 668 q 547 581 547 636 q 511 493 547 525 q 417 461 475 461 q 321 493 357 461 q 285 581 285 525 q 321 668 285 636 q 417 700 357 700 q 511 668 475 700 m 607 -25 l 672 -181 q 375 -287 569 -287 q 160 -216 243 -287 q 76 -42 76 -144 q 102 82 76 36 q 179 175 128 128 q 249 228 203 196 q 306 274 294 261 q 321 325 321 294 l 322 390 l 510 390 l 511 300 q 492 200 513 238 q 425 129 471 163 l 340 68 q 279 -18 279 24 q 314 -85 279 -61 q 413 -108 349 -108 q 607 -25 524 -108 z "},"À":{"ha":944,"x_min":-6,"x_max":950,"o":"m 450 1217 l 560 1015 l 401 1015 l 260 1217 l 450 1217 m 589 960 l 950 0 l 706 0 l 638 193 l 296 193 l 228 0 l -6 0 l 356 960 l 589 960 m 347 368 l 586 368 l 467 713 l 347 368 z "},"Á":{"ha":944,"x_min":-6,"x_max":950,"o":"m 494 1217 l 685 1217 l 543 1015 l 385 1015 l 494 1217 m 589 960 l 950 0 l 706 0 l 638 193 l 296 193 l 228 0 l -6 0 l 356 960 l 589 960 m 347 368 l 586 368 l 467 713 l 347 368 z "},"Â":{"ha":944,"x_min":-6,"x_max":950,"o":"m 578 1217 l 697 1015 l 547 1015 l 472 1140 l 397 1015 l 247 1015 l 367 1217 l 578 1217 m 589 960 l 950 0 l 706 0 l 638 193 l 296 193 l 228 0 l -6 0 l 356 960 l 589 960 m 347 368 l 586 368 l 467 713 l 347 368 z "},"Ã":{"ha":944,"x_min":-6,"x_max":950,"o":"m 628 1200 l 724 1186 q 674 1074 721 1121 q 565 1026 628 1026 q 458 1058 511 1026 q 379 1090 403 1090 q 317 1031 332 1090 l 221 1044 q 269 1157 222 1110 q 379 1204 317 1204 q 486 1174 429 1204 q 565 1142 542 1142 q 628 1200 613 1142 m 589 960 l 950 0 l 706 0 l 638 193 l 296 193 l 228 0 l -6 0 l 356 960 l 589 960 m 347 368 l 586 368 l 467 713 l 347 368 z "},"Ä":{"ha":944,"x_min":-6,"x_max":950,"o":"m 663 1178 q 677 1166 663 1178 q 690 1111 690 1153 q 663 1044 690 1069 q 596 1018 636 1018 q 529 1044 556 1018 q 503 1111 503 1069 q 529 1178 503 1153 q 596 1204 556 1204 q 663 1178 636 1204 m 415 1178 q 428 1166 415 1178 q 442 1111 442 1153 q 415 1044 442 1069 q 349 1018 389 1018 q 281 1044 307 1018 q 254 1111 254 1069 q 281 1178 254 1153 q 349 1204 307 1204 q 415 1178 389 1204 m 589 960 l 950 0 l 706 0 l 638 193 l 296 193 l 228 0 l -6 0 l 356 960 l 589 960 m 347 368 l 586 368 l 467 713 l 347 368 z "},"Å":{"ha":944,"x_min":-6,"x_max":950,"o":"m 632 1129 q 586 1026 632 1064 q 472 988 540 988 q 358 1026 404 988 q 313 1129 313 1064 q 358 1234 313 1196 q 472 1272 404 1272 q 586 1234 540 1272 q 632 1129 632 1196 m 589 960 l 950 0 l 706 0 l 638 193 l 296 193 l 228 0 l -6 0 l 356 960 l 589 960 m 524 1081 q 533 1090 524 1081 q 543 1129 543 1099 q 524 1178 543 1160 q 472 1197 504 1197 q 421 1178 440 1197 q 401 1129 401 1160 q 421 1081 401 1099 q 472 1063 440 1063 q 524 1081 504 1063 m 347 368 l 586 368 l 467 713 l 347 368 z "},"Æ":{"ha":1288,"x_min":-53,"x_max":1238,"o":"m 1238 182 l 1238 0 l 644 0 l 644 194 l 310 194 l 200 0 l -53 0 l 526 958 l 1225 958 l 1225 779 l 868 779 l 868 586 l 1203 586 l 1203 407 l 868 407 l 868 182 l 1238 182 m 408 369 l 644 369 l 644 782 l 640 782 l 408 369 z "},"Ç":{"ha":903,"x_min":39,"x_max":888,"o":"m 813 289 l 888 114 q 606 -11 776 -1 l 518 -208 l 315 -208 l 426 -4 q 292 41 357 7 q 168 131 226 75 q 74 278 110 188 q 39 478 39 368 q 183 838 39 704 q 542 972 326 972 q 753 935 669 972 q 871 864 838 899 l 801 678 q 708 742 781 706 q 554 778 636 778 q 348 699 429 778 q 267 482 267 619 q 349 267 267 346 q 554 188 432 188 q 813 289 714 188 z "},"È":{"ha":772,"x_min":88,"x_max":721,"o":"m 403 1217 l 513 1015 l 354 1015 l 213 1217 l 403 1217 m 721 182 l 721 0 l 88 0 l 88 958 l 708 958 l 708 779 l 311 779 l 311 583 l 686 583 l 686 404 l 311 404 l 311 182 l 721 182 z "},"É":{"ha":772,"x_min":88,"x_max":721,"o":"m 385 1217 l 575 1217 l 433 1015 l 275 1015 l 385 1217 m 721 182 l 721 0 l 88 0 l 88 958 l 708 958 l 708 779 l 311 779 l 311 583 l 686 583 l 686 404 l 311 404 l 311 182 l 721 182 z "},"Ê":{"ha":772,"x_min":88,"x_max":721,"o":"m 503 1217 l 622 1015 l 474 1015 l 399 1140 l 322 1015 l 174 1015 l 293 1217 l 503 1217 m 721 182 l 721 0 l 88 0 l 88 958 l 708 958 l 708 779 l 311 779 l 311 583 l 686 583 l 686 404 l 311 404 l 311 182 l 721 182 z "},"Ë":{"ha":772,"x_min":88,"x_max":721,"o":"m 592 1178 q 605 1166 592 1178 q 618 1111 618 1153 q 592 1044 618 1069 q 524 1018 565 1018 q 457 1044 483 1018 q 431 1111 431 1069 q 457 1178 431 1153 q 524 1204 483 1204 q 592 1178 565 1204 m 341 1178 q 355 1166 341 1178 q 368 1111 368 1153 q 341 1044 368 1069 q 274 1018 314 1018 q 207 1044 233 1018 q 181 1111 181 1069 q 207 1178 181 1153 q 274 1204 233 1204 q 341 1178 314 1204 m 721 182 l 721 0 l 88 0 l 88 958 l 708 958 l 708 779 l 311 779 l 311 583 l 686 583 l 686 404 l 311 404 l 311 182 l 721 182 z "},"Ì":{"ha":400,"x_min":10,"x_max":313,"o":"m 200 1217 l 310 1015 l 151 1015 l 10 1217 l 200 1217 m 313 958 l 313 0 l 88 0 l 88 958 l 313 958 z "},"Í":{"ha":400,"x_min":88,"x_max":390,"o":"m 313 958 l 313 0 l 88 0 l 88 958 l 313 958 m 200 1217 l 390 1217 l 247 1015 l 90 1015 l 200 1217 z "},"Î":{"ha":400,"x_min":-25,"x_max":424,"o":"m 306 1217 l 424 1015 l 275 1015 l 200 1140 l 125 1015 l -25 1015 l 94 1217 l 306 1217 m 313 958 l 313 0 l 88 0 l 88 958 l 313 958 z "},"Ï":{"ha":400,"x_min":-19,"x_max":419,"o":"m 392 1181 q 406 1168 392 1181 q 419 1114 419 1156 q 392 1047 419 1072 q 325 1021 365 1021 q 258 1047 285 1021 q 232 1114 232 1072 q 258 1181 232 1156 q 325 1207 285 1207 q 392 1181 365 1207 m 142 1181 q 155 1168 142 1181 q 168 1114 168 1156 q 142 1047 168 1072 q 75 1021 115 1021 q 8 1047 35 1021 q -19 1114 -19 1072 q 8 1181 -19 1156 q 75 1207 35 1207 q 142 1181 115 1207 m 313 958 l 313 0 l 88 0 l 88 958 l 313 958 z "},"Ð":{"ha":976,"x_min":8,"x_max":938,"o":"m 938 479 q 782 114 938 246 q 413 0 647 0 l 88 0 l 88 419 l 8 419 l 8 567 l 88 567 l 88 958 l 413 958 q 782 843 647 958 q 938 479 938 714 m 710 479 q 625 704 710 622 q 425 772 551 772 l 311 772 l 311 567 l 500 567 l 500 425 l 311 425 l 311 190 l 425 190 q 625 260 553 190 q 710 479 710 339 z "},"Ñ":{"ha":1042,"x_min":88,"x_max":954,"o":"m 676 1200 l 772 1186 q 723 1074 769 1121 q 614 1026 676 1026 q 507 1058 560 1026 q 428 1090 451 1090 q 365 1031 381 1090 l 269 1044 q 318 1157 271 1110 q 428 1204 365 1204 q 535 1174 478 1204 q 613 1142 590 1142 q 676 1200 661 1142 m 954 958 l 954 0 l 724 0 l 303 650 q 307 433 307 535 l 307 0 l 88 0 l 88 958 l 328 958 l 739 314 q 735 524 735 422 l 735 958 l 954 958 z "},"Ò":{"ha":1094,"x_min":39,"x_max":1056,"o":"m 517 1217 l 626 1015 l 468 1015 l 326 1217 l 517 1217 m 911 839 q 983 772 911 839 q 1056 478 1056 704 q 911 117 1056 251 q 547 -17 767 -17 q 183 117 328 -17 q 39 478 39 251 q 183 839 39 704 q 547 974 328 974 q 911 839 767 974 m 749 266 q 788 307 749 266 q 828 483 828 349 q 749 700 828 618 q 547 782 669 782 q 346 700 425 782 q 267 483 267 618 q 346 266 267 349 q 547 183 425 183 q 749 266 669 183 z "},"Ó":{"ha":1094,"x_min":39,"x_max":1056,"o":"m 579 1217 l 768 1217 l 626 1015 l 468 1015 l 579 1217 m 911 839 q 983 772 911 839 q 1056 478 1056 704 q 911 117 1056 251 q 547 -17 767 -17 q 183 117 328 -17 q 39 478 39 251 q 183 839 39 704 q 547 974 328 974 q 911 839 767 974 m 749 266 q 788 307 749 266 q 828 483 828 349 q 749 700 828 618 q 547 782 669 782 q 346 700 425 782 q 267 483 267 618 q 346 266 267 349 q 547 183 425 183 q 749 266 669 183 z "},"Ô":{"ha":1094,"x_min":39,"x_max":1056,"o":"m 653 1217 l 772 1015 l 622 1015 l 547 1140 l 472 1015 l 322 1015 l 442 1217 l 653 1217 m 911 839 q 983 772 911 839 q 1056 478 1056 704 q 911 117 1056 251 q 547 -17 767 -17 q 183 117 328 -17 q 39 478 39 251 q 183 839 39 704 q 547 974 328 974 q 911 839 767 974 m 749 266 q 788 307 749 266 q 828 483 828 349 q 749 700 828 618 q 547 782 669 782 q 346 700 425 782 q 267 483 267 618 q 346 266 267 349 q 547 183 425 183 q 749 266 669 183 z "},"Õ":{"ha":1094,"x_min":39,"x_max":1056,"o":"m 703 1200 l 799 1186 q 749 1074 796 1121 q 640 1026 703 1026 q 533 1058 586 1026 q 454 1090 478 1090 q 392 1031 407 1090 l 296 1044 q 344 1157 297 1110 q 454 1204 392 1204 q 561 1174 504 1204 q 640 1142 617 1142 q 703 1200 688 1142 m 911 839 q 983 772 911 839 q 1056 478 1056 704 q 911 117 1056 251 q 547 -17 767 -17 q 183 117 328 -17 q 39 478 39 251 q 183 839 39 704 q 547 974 328 974 q 911 839 767 974 m 749 266 q 788 307 749 266 q 828 483 828 349 q 749 700 828 618 q 547 782 669 782 q 346 700 425 782 q 267 483 267 618 q 346 266 267 349 q 547 183 425 183 q 749 266 669 183 z "},"Ö":{"ha":1094,"x_min":39,"x_max":1056,"o":"m 740 1178 q 753 1166 740 1178 q 767 1111 767 1153 q 740 1044 767 1069 q 672 1018 713 1018 q 606 1044 632 1018 q 579 1111 579 1069 q 606 1178 579 1153 q 672 1204 632 1204 q 740 1178 713 1204 m 490 1178 q 503 1166 490 1178 q 517 1111 517 1153 q 490 1044 517 1069 q 422 1018 463 1018 q 356 1044 382 1018 q 329 1111 329 1069 q 356 1178 329 1153 q 422 1204 382 1204 q 490 1178 463 1204 m 911 839 q 983 772 911 839 q 1056 478 1056 704 q 911 117 1056 251 q 547 -17 767 -17 q 183 117 328 -17 q 39 478 39 251 q 183 839 39 704 q 547 974 328 974 q 911 839 767 974 m 749 266 q 788 307 749 266 q 828 483 828 349 q 749 700 828 618 q 547 782 669 782 q 346 700 425 782 q 267 483 267 618 q 346 266 267 349 q 547 183 425 183 q 749 266 669 183 z "},"×":{"ha":974,"x_min":114,"x_max":861,"o":"m 604 479 l 861 224 l 743 104 l 488 360 l 231 104 l 114 224 l 371 479 l 114 733 l 231 853 l 488 597 l 743 853 l 861 733 l 604 479 z "},"Ø":{"ha":1094,"x_min":39,"x_max":1056,"o":"m 1056 478 q 911 117 1056 251 q 547 -17 767 -17 q 243 71 371 -17 l 140 -33 l 40 64 l 140 165 q 39 478 39 293 q 183 839 39 704 q 547 974 328 974 q 851 886 724 974 l 956 992 l 1056 894 l 954 792 q 1056 478 1056 664 m 301 328 l 704 738 q 547 782 636 782 q 346 700 425 782 q 267 483 267 618 q 301 328 267 397 m 828 483 q 796 632 828 565 l 396 225 q 547 183 464 183 q 749 266 669 183 q 828 483 828 349 z "},"Ù":{"ha":964,"x_min":81,"x_max":883,"o":"m 467 1217 l 578 1015 l 419 1015 l 276 1217 l 467 1217 m 883 958 l 883 400 q 792 99 883 197 q 482 -15 686 -15 q 171 99 278 -15 q 81 400 81 199 l 81 958 l 307 958 l 307 400 q 344 240 307 286 q 482 181 394 181 q 619 240 569 181 q 657 400 657 286 l 657 958 l 883 958 z "},"Ú":{"ha":964,"x_min":81,"x_max":883,"o":"m 496 1217 l 686 1217 l 544 1015 l 386 1015 l 496 1217 m 883 958 l 883 400 q 792 99 883 197 q 482 -15 686 -15 q 171 99 278 -15 q 81 400 81 199 l 81 958 l 307 958 l 307 400 q 344 240 307 286 q 482 181 394 181 q 619 240 569 181 q 657 400 657 286 l 657 958 l 883 958 z "},"Û":{"ha":964,"x_min":81,"x_max":883,"o":"m 588 1217 l 706 1015 l 557 1015 l 482 1140 l 407 1015 l 257 1015 l 376 1217 l 588 1217 m 883 958 l 883 400 q 792 99 883 197 q 482 -15 686 -15 q 171 99 278 -15 q 81 400 81 199 l 81 958 l 307 958 l 307 400 q 344 240 307 286 q 482 181 394 181 q 619 240 569 181 q 657 400 657 286 l 657 958 l 883 958 z "},"Ü":{"ha":964,"x_min":81,"x_max":883,"o":"m 674 1178 q 688 1166 674 1178 q 701 1111 701 1153 q 674 1044 701 1069 q 607 1018 647 1018 q 540 1044 567 1018 q 514 1111 514 1069 q 540 1178 514 1153 q 607 1204 567 1204 q 674 1178 647 1204 m 424 1178 q 437 1166 424 1178 q 450 1111 450 1153 q 424 1044 450 1069 q 357 1018 397 1018 q 290 1044 317 1018 q 263 1111 263 1069 q 290 1178 263 1153 q 357 1204 317 1204 q 424 1178 397 1204 m 883 958 l 883 400 q 792 99 883 197 q 482 -15 686 -15 q 171 99 278 -15 q 81 400 81 199 l 81 958 l 307 958 l 307 400 q 344 240 307 286 q 482 181 394 181 q 619 240 569 181 q 657 400 657 286 l 657 958 l 883 958 z "},"Ý":{"ha":861,"x_min":-15,"x_max":876,"o":"m 442 1217 l 632 1217 l 489 1015 l 331 1015 l 442 1217 m 626 958 l 876 958 l 543 388 l 543 0 l 318 0 l 318 388 l -15 958 l 235 958 l 431 576 l 626 958 z "},"Þ":{"ha":800,"x_min":88,"x_max":771,"o":"m 771 501 q 671 272 771 354 q 421 200 583 200 l 313 200 l 313 0 l 88 0 l 88 958 l 313 958 l 313 804 l 421 804 q 671 732 583 804 q 771 501 771 647 m 542 501 q 494 604 542 571 q 388 631 458 631 l 311 631 l 311 372 l 388 372 q 494 400 457 372 q 542 501 542 433 z "},"ß":{"ha":846,"x_min":79,"x_max":813,"o":"m 813 286 q 715 65 813 142 q 456 -12 618 -12 q 411 -10 435 -12 q 374 -3 388 -7 l 360 0 l 371 160 q 431 153 397 153 q 548 189 501 153 q 594 299 594 225 q 547 413 594 375 q 422 451 500 451 l 383 451 l 383 606 l 415 606 q 539 717 539 606 q 505 793 539 764 q 418 822 471 822 q 324 779 354 822 q 301 664 301 746 l 301 0 l 79 0 l 79 606 q 113 811 79 743 q 214 924 146 881 q 424 972 292 972 q 655 903 576 972 q 733 740 733 835 q 694 613 733 664 q 614 553 656 563 l 614 550 q 756 461 699 532 q 813 286 813 390 z "},"à":{"ha":751,"x_min":26,"x_max":688,"o":"m 358 958 l 468 757 l 310 757 l 168 958 l 358 958 m 688 386 l 688 0 l 475 0 l 471 72 q 431 35 447 49 q 370 3 414 21 q 275 -15 326 -15 q 100 40 174 -15 q 26 203 26 96 q 68 323 26 275 q 167 390 110 371 q 293 413 224 410 l 465 419 l 465 435 q 325 544 465 544 q 208 525 267 544 q 115 483 149 506 l 57 628 q 350 697 196 697 q 606 618 519 697 q 688 386 688 540 m 467 189 l 467 301 l 357 294 q 249 211 249 290 q 278 149 249 172 q 353 126 307 126 q 423 147 393 126 q 467 189 453 167 z "},"á":{"ha":751,"x_min":26,"x_max":688,"o":"m 369 958 l 558 958 l 417 757 l 258 757 l 369 958 m 688 386 l 688 0 l 475 0 l 471 72 q 431 35 447 49 q 370 3 414 21 q 275 -15 326 -15 q 100 40 174 -15 q 26 203 26 96 q 68 323 26 275 q 167 390 110 371 q 293 413 224 410 l 465 419 l 465 435 q 325 544 465 544 q 208 525 267 544 q 115 483 149 506 l 57 628 q 350 697 196 697 q 606 618 519 697 q 688 386 688 540 m 467 189 l 467 301 l 357 294 q 249 211 249 290 q 278 149 249 172 q 353 126 307 126 q 423 147 393 126 q 467 189 453 167 z "},"â":{"ha":751,"x_min":26,"x_max":688,"o":"m 476 958 l 596 757 l 446 757 l 371 885 l 296 757 l 147 757 l 265 958 l 476 958 m 688 386 l 688 0 l 475 0 l 471 72 q 431 35 447 49 q 370 3 414 21 q 275 -15 326 -15 q 100 40 174 -15 q 26 203 26 96 q 68 323 26 275 q 167 390 110 371 q 293 413 224 410 l 465 419 l 465 435 q 325 544 465 544 q 208 525 267 544 q 115 483 149 506 l 57 628 q 350 697 196 697 q 606 618 519 697 q 688 386 688 540 m 467 189 l 467 301 l 357 294 q 249 211 249 290 q 278 149 249 172 q 353 126 307 126 q 423 147 393 126 q 467 189 453 167 z "},"ã":{"ha":751,"x_min":26,"x_max":688,"o":"m 540 944 l 635 931 q 587 818 633 865 q 478 771 540 771 q 371 801 428 771 q 355 811 367 804 q 335 822 343 818 q 315 831 326 826 q 292 835 303 835 q 229 775 246 835 l 133 789 q 182 901 135 854 q 292 949 229 949 q 399 918 342 949 q 476 885 450 885 q 540 944 525 885 m 688 386 l 688 0 l 475 0 l 471 72 q 431 35 447 49 q 370 3 414 21 q 275 -15 326 -15 q 100 40 174 -15 q 26 203 26 96 q 68 323 26 275 q 167 390 110 371 q 293 413 224 410 l 465 419 l 465 435 q 325 544 465 544 q 208 525 267 544 q 115 483 149 506 l 57 628 q 350 697 196 697 q 606 618 519 697 q 688 386 688 540 m 467 189 l 467 301 l 357 294 q 249 211 249 290 q 278 149 249 172 q 353 126 307 126 q 423 147 393 126 q 467 189 453 167 z "},"ä":{"ha":751,"x_min":26,"x_max":688,"o":"m 558 924 q 572 911 558 924 q 585 857 585 899 q 558 790 585 815 q 490 765 532 765 q 424 790 450 765 q 397 857 397 815 q 424 924 397 899 q 490 950 450 950 q 558 924 532 950 m 310 924 q 323 911 310 924 q 336 857 336 899 q 310 790 336 815 q 243 765 283 765 q 176 791 203 765 q 149 857 149 817 q 176 924 149 899 q 243 950 203 950 q 310 924 283 950 m 688 386 l 688 0 l 475 0 l 471 72 q 431 35 447 49 q 370 3 414 21 q 275 -15 326 -15 q 100 40 174 -15 q 26 203 26 96 q 68 323 26 275 q 167 390 110 371 q 293 413 224 410 l 465 419 l 465 435 q 325 544 465 544 q 208 525 267 544 q 115 483 149 506 l 57 628 q 350 697 196 697 q 606 618 519 697 q 688 386 688 540 m 467 189 l 467 301 l 357 294 q 249 211 249 290 q 278 149 249 172 q 353 126 307 126 q 423 147 393 126 q 467 189 453 167 z "},"å":{"ha":751,"x_min":26,"x_max":688,"o":"m 482 997 q 504 977 482 997 q 526 893 526 957 q 482 790 526 829 q 369 751 438 751 q 256 790 301 751 q 211 893 211 829 q 256 997 211 957 q 369 1036 301 1036 q 482 997 438 1036 m 688 386 l 688 0 l 475 0 l 471 72 q 431 35 447 49 q 370 3 414 21 q 275 -15 326 -15 q 100 40 174 -15 q 26 203 26 96 q 68 323 26 275 q 167 390 110 371 q 293 413 224 410 l 465 419 l 465 435 q 325 544 465 544 q 208 525 267 544 q 115 483 149 506 l 57 628 q 350 697 196 697 q 606 618 519 697 q 688 386 688 540 m 438 893 q 419 942 438 922 q 369 961 401 961 q 319 942 338 961 q 300 893 300 922 q 319 846 300 865 q 369 826 338 826 q 419 846 400 826 q 438 893 438 865 m 467 189 l 467 301 l 357 294 q 249 211 249 290 q 278 149 249 172 q 353 126 307 126 q 423 147 393 126 q 467 189 453 167 z "},"æ":{"ha":1201,"x_min":26,"x_max":1172,"o":"m 1172 363 l 1168 289 l 681 289 q 735 183 686 221 q 856 146 785 146 q 1061 211 965 146 l 1149 96 q 1135 85 1147 96 q 1111 66 1122 74 q 1079 45 1100 58 q 1033 23 1058 32 q 978 4 1008 14 q 908 -10 947 -6 q 825 -15 868 -15 q 550 97 649 -15 q 430 11 490 38 q 276 -15 369 -15 q 99 41 171 -15 q 26 203 26 97 q 50 300 26 258 q 114 365 74 342 q 199 399 154 388 q 296 413 243 410 l 465 419 l 465 436 q 429 517 465 489 q 325 544 393 544 q 115 483 211 544 l 57 628 q 350 697 196 697 q 540 656 474 697 q 593 610 560 643 q 829 697 678 697 q 1076 604 981 697 q 1172 363 1172 511 m 682 415 l 964 415 q 926 510 963 468 q 825 553 889 553 q 723 511 760 553 q 682 415 686 469 m 486 196 q 464 301 464 251 l 358 296 q 249 211 249 289 q 277 149 249 172 q 351 126 306 126 q 432 149 393 126 q 486 196 471 171 z "},"ç":{"ha":669,"x_min":33,"x_max":656,"o":"m 603 235 l 656 67 q 474 -10 581 4 l 375 -201 l 185 -201 l 315 -8 q 116 106 199 15 q 33 340 33 196 q 141 601 33 504 q 397 697 249 697 q 539 679 475 697 q 628 643 603 661 l 651 625 l 603 457 q 426 518 525 518 q 306 471 354 518 q 257 344 257 424 q 304 216 257 264 q 429 168 351 168 q 519 185 475 168 q 583 218 563 201 l 603 235 z "},"è":{"ha":775,"x_min":33,"x_max":746,"o":"m 386 958 l 496 757 l 338 757 l 196 958 l 386 958 m 746 363 l 743 289 l 256 289 q 310 182 263 218 q 431 146 358 146 q 636 211 540 146 l 724 96 l 711 85 q 686 66 697 74 q 654 45 675 58 q 608 23 633 32 q 553 4 583 14 q 482 -10 522 -6 q 399 -15 442 -15 q 135 80 236 -15 q 33 342 33 175 q 139 601 33 506 q 403 697 244 697 q 651 605 556 697 q 746 363 746 513 m 257 415 l 539 415 q 501 510 538 468 q 399 553 464 553 q 297 511 335 553 q 257 415 260 469 z "},"é":{"ha":775,"x_min":33,"x_max":746,"o":"m 410 958 l 600 958 l 457 757 l 299 757 l 410 958 m 746 363 l 743 289 l 256 289 q 310 182 263 218 q 431 146 358 146 q 636 211 540 146 l 724 96 l 711 85 q 686 66 697 74 q 654 45 675 58 q 608 23 633 32 q 553 4 583 14 q 482 -10 522 -6 q 399 -15 442 -15 q 135 80 236 -15 q 33 342 33 175 q 139 601 33 506 q 403 697 244 697 q 651 605 556 697 q 746 363 746 513 m 257 415 l 539 415 q 501 510 538 468 q 399 553 464 553 q 297 511 335 553 q 257 415 260 469 z "},"ê":{"ha":775,"x_min":33,"x_max":746,"o":"m 504 958 l 624 757 l 474 757 l 399 885 l 324 757 l 174 757 l 293 958 l 504 958 m 746 363 l 743 289 l 256 289 q 310 182 263 218 q 431 146 358 146 q 636 211 540 146 l 724 96 l 711 85 q 686 66 697 74 q 654 45 675 58 q 608 23 633 32 q 553 4 583 14 q 482 -10 522 -6 q 399 -15 442 -15 q 135 80 236 -15 q 33 342 33 175 q 139 601 33 506 q 403 697 244 697 q 651 605 556 697 q 746 363 746 513 m 257 415 l 539 415 q 501 510 538 468 q 399 553 464 553 q 297 511 335 553 q 257 415 260 469 z "},"ë":{"ha":775,"x_min":33,"x_max":746,"o":"m 594 924 q 608 911 594 924 q 621 857 621 899 q 594 790 621 815 q 528 765 568 765 q 460 790 486 765 q 433 857 433 815 q 460 924 433 899 q 528 950 486 950 q 594 924 568 950 m 346 924 q 359 911 346 924 q 372 857 372 899 q 346 790 372 815 q 279 765 319 765 q 212 791 239 765 q 185 857 185 817 q 212 924 185 899 q 279 950 239 950 q 346 924 319 950 m 746 363 l 743 289 l 256 289 q 310 182 263 218 q 431 146 358 146 q 636 211 540 146 l 724 96 l 711 85 q 686 66 697 74 q 654 45 675 58 q 608 23 633 32 q 553 4 583 14 q 482 -10 522 -6 q 399 -15 442 -15 q 135 80 236 -15 q 33 342 33 175 q 139 601 33 506 q 403 697 244 697 q 651 605 556 697 q 746 363 746 513 m 257 415 l 539 415 q 501 510 538 468 q 399 553 464 553 q 297 511 335 553 q 257 415 260 469 z "},"ì":{"ha":375,"x_min":-1,"x_max":299,"o":"m 189 958 l 299 757 l 142 757 l -1 958 l 189 958 m 299 685 l 299 0 l 76 0 l 76 685 l 299 685 z "},"í":{"ha":375,"x_min":76,"x_max":376,"o":"m 186 958 l 376 958 l 235 757 l 76 757 l 186 958 m 299 685 l 299 0 l 76 0 l 76 685 l 299 685 z "},"î":{"ha":375,"x_min":-36,"x_max":413,"o":"m 293 958 l 413 757 l 263 757 l 188 885 l 113 757 l -36 757 l 82 958 l 293 958 m 299 685 l 299 0 l 76 0 l 76 685 l 299 685 z "},"ï":{"ha":375,"x_min":-31,"x_max":406,"o":"m 379 924 q 392 911 379 924 q 406 857 406 899 q 379 790 406 815 q 313 765 353 765 q 244 790 271 765 q 218 857 218 815 q 244 924 218 899 q 313 950 271 950 q 379 924 353 950 m 131 924 q 144 911 131 924 q 157 857 157 899 q 131 790 157 815 q 64 765 104 765 q -3 791 24 765 q -31 857 -31 817 q -3 924 -31 899 q 64 950 24 950 q 131 924 104 950 m 299 685 l 299 0 l 76 0 l 76 685 l 299 685 z "},"ð":{"ha":828,"x_min":33,"x_max":789,"o":"m 789 336 q 682 81 789 178 q 410 -15 575 -15 q 140 81 246 -15 q 33 336 33 178 q 138 578 33 486 q 369 671 242 671 q 506 631 461 671 q 358 797 461 711 l 203 708 l 151 800 l 272 868 q 147 950 185 926 l 301 1035 q 432 950 364 1000 l 597 1044 l 649 953 l 518 881 q 534 865 519 879 q 565 837 549 851 q 601 801 581 822 q 633 763 621 779 q 706 658 678 704 q 762 522 735 611 q 789 336 789 433 m 565 340 q 523 464 565 415 q 411 513 481 513 q 300 464 342 513 q 258 340 258 415 q 300 215 258 264 q 411 167 342 167 q 523 215 481 167 q 565 340 565 264 z "},"ñ":{"ha":815,"x_min":74,"x_max":746,"o":"m 565 944 l 660 931 q 611 818 657 865 q 503 771 565 771 q 396 801 453 771 q 380 811 392 804 q 360 822 368 818 q 340 831 351 826 q 317 835 328 835 q 253 775 271 835 l 158 789 q 207 901 161 854 q 315 949 253 949 q 422 918 369 949 q 501 885 478 885 q 565 944 550 885 m 746 404 l 746 0 l 524 0 l 524 357 q 503 475 524 435 q 418 515 482 515 q 296 339 296 515 l 296 0 l 74 0 l 74 685 l 296 685 l 294 586 l 297 586 q 496 697 365 697 q 690 619 635 697 q 746 404 746 542 z "},"ò":{"ha":828,"x_min":33,"x_max":793,"o":"m 396 958 l 507 757 l 349 757 l 208 958 l 396 958 m 686 600 q 740 551 686 600 q 793 340 793 503 q 686 81 793 178 q 414 -15 579 -15 q 140 81 247 -15 q 33 340 33 178 q 141 600 33 503 q 414 697 249 697 q 686 600 579 697 m 527 217 q 548 242 527 217 q 569 344 569 267 q 527 472 569 422 q 414 522 485 522 q 300 472 342 522 q 258 344 258 422 q 300 217 258 267 q 414 167 342 167 q 527 217 485 167 z "},"ó":{"ha":828,"x_min":33,"x_max":793,"o":"m 431 958 l 621 958 l 479 757 l 321 757 l 431 958 m 686 600 q 740 551 686 600 q 793 340 793 503 q 686 81 793 178 q 414 -15 579 -15 q 140 81 247 -15 q 33 340 33 178 q 141 600 33 503 q 414 697 249 697 q 686 600 579 697 m 527 217 q 548 242 527 217 q 569 344 569 267 q 527 472 569 422 q 414 522 485 522 q 300 472 342 522 q 258 344 258 422 q 300 217 258 267 q 414 167 342 167 q 527 217 485 167 z "},"ô":{"ha":828,"x_min":33,"x_max":793,"o":"m 686 600 q 740 551 686 600 q 793 340 793 503 q 686 81 793 178 q 414 -15 579 -15 q 140 81 247 -15 q 33 340 33 178 q 141 600 33 503 q 414 697 249 697 q 686 600 579 697 m 527 217 q 548 242 527 217 q 569 344 569 267 q 527 472 569 422 q 414 522 485 522 q 300 472 342 522 q 258 344 258 422 q 300 217 258 267 q 414 167 342 167 q 527 217 485 167 m 519 958 l 638 757 l 489 757 l 414 885 l 339 757 l 189 757 l 308 958 l 519 958 z "},"õ":{"ha":828,"x_min":33,"x_max":793,"o":"m 569 944 l 664 931 q 616 818 663 865 q 507 771 569 771 q 400 801 457 771 q 384 811 396 804 q 364 822 372 818 q 344 831 356 826 q 321 835 332 835 q 258 775 275 835 l 163 789 q 211 901 164 854 q 321 949 258 949 q 426 918 372 949 q 506 885 482 885 q 569 944 554 885 m 686 600 q 740 551 686 600 q 793 340 793 503 q 686 81 793 178 q 414 -15 579 -15 q 140 81 247 -15 q 33 340 33 178 q 141 600 33 503 q 414 697 249 697 q 686 600 579 697 m 527 217 q 548 242 527 217 q 569 344 569 267 q 527 472 569 422 q 414 522 485 522 q 300 472 342 522 q 258 344 258 422 q 300 217 258 267 q 414 167 342 167 q 527 217 485 167 z "},"ö":{"ha":828,"x_min":33,"x_max":793,"o":"m 632 857 q 605 791 632 817 q 538 765 578 765 q 471 790 497 765 q 444 857 444 815 q 471 924 444 899 q 538 950 497 950 q 605 924 578 950 q 632 857 632 899 m 357 924 q 370 911 357 924 q 383 857 383 899 q 357 790 383 815 q 289 765 331 765 q 222 790 249 765 q 196 857 196 815 q 222 924 196 899 q 289 950 249 950 q 357 924 331 950 m 686 600 q 740 551 686 600 q 793 340 793 503 q 686 81 793 178 q 414 -15 579 -15 q 140 81 247 -15 q 33 340 33 178 q 141 600 33 503 q 414 697 249 697 q 686 600 579 697 m 527 217 q 548 242 527 217 q 569 344 569 267 q 527 472 569 422 q 414 522 485 522 q 300 472 342 522 q 258 344 258 422 q 300 217 258 267 q 414 167 342 167 q 527 217 485 167 z "},"÷":{"ha":974,"x_min":106,"x_max":868,"o":"m 604 747 q 570 664 604 699 q 488 629 536 629 q 404 664 439 629 q 369 747 369 699 q 404 830 369 796 q 488 864 439 864 q 570 829 536 864 q 604 747 604 794 m 868 560 l 868 399 l 106 399 l 106 560 l 868 560 m 604 211 q 570 129 604 164 q 488 94 536 94 q 404 128 439 94 q 369 211 369 163 q 404 294 369 260 q 488 329 439 329 q 570 294 536 329 q 604 211 604 260 z "},"ø":{"ha":828,"x_min":31,"x_max":794,"o":"m 710 714 l 794 632 l 722 561 q 793 340 793 468 q 686 81 793 178 q 414 -15 579 -15 q 192 43 286 -15 l 115 -31 l 31 51 l 103 122 q 33 340 33 217 q 141 600 33 503 q 414 697 249 697 q 633 640 538 697 l 710 714 m 265 275 l 497 503 q 414 526 463 526 q 298 476 342 526 q 254 344 254 425 q 265 275 254 308 m 575 344 q 564 411 575 381 l 333 185 q 414 163 369 163 q 531 213 488 163 q 575 344 575 264 z "},"ù":{"ha":804,"x_min":69,"x_max":731,"o":"m 382 958 l 493 757 l 335 757 l 192 958 l 382 958 m 731 685 l 731 0 l 517 0 l 515 78 q 437 13 490 42 q 315 -15 383 -15 q 119 65 181 -15 q 69 271 69 136 l 69 685 l 292 685 l 292 301 q 393 168 292 168 q 479 209 450 168 q 508 321 508 250 l 508 685 l 731 685 z "},"ú":{"ha":804,"x_min":69,"x_max":731,"o":"m 413 958 l 603 958 l 461 757 l 303 757 l 413 958 m 731 685 l 731 0 l 517 0 l 515 78 q 437 13 490 42 q 315 -15 383 -15 q 119 65 181 -15 q 69 271 69 136 l 69 685 l 292 685 l 292 301 q 393 168 292 168 q 479 209 450 168 q 508 321 508 250 l 508 685 l 731 685 z "},"û":{"ha":804,"x_min":69,"x_max":731,"o":"m 506 958 l 625 757 l 475 757 l 400 885 l 325 757 l 175 757 l 294 958 l 506 958 m 731 685 l 731 0 l 517 0 l 515 78 q 437 13 490 42 q 315 -15 383 -15 q 119 65 181 -15 q 69 271 69 136 l 69 685 l 292 685 l 292 301 q 393 168 292 168 q 479 209 450 168 q 508 321 508 250 l 508 685 l 731 685 z "},"ü":{"ha":804,"x_min":69,"x_max":731,"o":"m 592 924 q 605 911 592 924 q 618 857 618 899 q 592 790 618 815 q 524 765 565 765 q 457 790 483 765 q 431 857 431 815 q 457 924 431 899 q 524 950 483 950 q 592 924 565 950 m 343 924 q 356 911 343 924 q 369 857 369 899 q 343 790 369 815 q 276 765 317 765 q 209 791 236 765 q 182 857 182 817 q 209 924 182 899 q 276 950 236 950 q 343 924 317 950 m 731 685 l 731 0 l 517 0 l 515 78 q 437 13 490 42 q 315 -15 383 -15 q 119 65 181 -15 q 69 271 69 136 l 69 685 l 292 685 l 292 301 q 393 168 292 168 q 479 209 450 168 q 508 321 508 250 l 508 685 l 731 685 z "},"ý":{"ha":756,"x_min":-6,"x_max":765,"o":"m 397 958 l 586 958 l 444 757 l 286 757 l 397 958 m 536 685 l 765 685 l 460 -65 q 369 -214 418 -165 q 238 -262 319 -262 q 138 -254 186 -262 q 69 -237 90 -246 l 47 -229 l 92 -65 q 174 -83 140 -83 q 199 -82 190 -83 q 219 -70 207 -81 q 240 -39 232 -60 l 265 21 l -6 685 l 226 685 l 382 244 l 536 685 z "},"þ":{"ha":875,"x_min":79,"x_max":840,"o":"m 752 597 q 796 546 752 597 q 840 342 840 496 q 751 86 840 188 q 517 -15 663 -15 q 300 86 371 -15 q 301 -35 301 28 l 301 -251 l 79 -251 l 79 958 l 301 958 l 301 729 l 300 601 q 380 667 325 636 q 518 697 435 697 q 752 597 664 697 m 570 216 q 592 241 570 216 q 614 344 614 265 q 570 473 614 424 q 454 522 526 522 q 338 473 382 522 q 293 344 293 424 q 338 216 293 265 q 454 167 382 167 q 570 216 526 167 z "},"ÿ":{"ha":756,"x_min":-6,"x_max":765,"o":"m 573 927 q 586 914 573 927 q 600 860 600 901 q 573 792 600 818 q 506 767 546 767 q 439 792 465 767 q 413 860 413 818 q 439 927 413 901 q 506 953 465 953 q 573 927 546 953 m 324 927 q 338 914 324 927 q 351 860 351 901 q 324 792 351 818 q 257 767 297 767 q 190 792 217 767 q 164 860 164 818 q 190 927 164 901 q 257 953 217 953 q 324 927 297 953 m 536 685 l 765 685 l 460 -65 q 369 -214 418 -165 q 238 -262 319 -262 q 138 -254 186 -262 q 69 -237 90 -246 l 47 -229 l 92 -65 q 174 -83 140 -83 q 199 -82 190 -83 q 219 -70 207 -81 q 240 -39 232 -60 l 265 21 l -6 685 l 226 685 l 382 244 l 536 685 z "},"Ā":{"ha":944,"x_min":-6,"x_max":950,"o":"m 589 960 l 950 0 l 706 0 l 638 193 l 296 193 l 228 0 l -6 0 l 356 960 l 589 960 m 347 368 l 586 368 l 467 713 l 347 368 m 688 1186 l 688 1079 l 247 1079 l 247 1186 l 688 1186 z "},"ā":{"ha":751,"x_min":26,"x_max":688,"o":"m 688 386 l 688 0 l 475 0 l 471 72 q 431 35 447 49 q 370 3 414 21 q 275 -15 326 -15 q 100 40 174 -15 q 26 203 26 96 q 68 323 26 275 q 167 390 110 371 q 293 413 224 410 l 465 419 l 465 435 q 325 544 465 544 q 208 525 267 544 q 115 483 149 506 l 57 628 q 350 697 196 697 q 606 618 519 697 q 688 386 688 540 m 467 189 l 467 301 l 357 294 q 249 211 249 290 q 278 149 249 172 q 353 126 307 126 q 423 147 393 126 q 467 189 453 167 m 582 913 l 582 806 l 142 806 l 142 913 l 582 913 z "},"Ă":{"ha":944,"x_min":-6,"x_max":950,"o":"m 589 960 l 950 0 l 706 0 l 638 193 l 296 193 l 228 0 l -6 0 l 356 960 l 589 960 m 347 368 l 586 368 l 467 713 l 347 368 m 606 1224 l 701 1224 q 626 1085 689 1132 q 467 1039 564 1039 q 306 1085 369 1039 q 231 1224 243 1132 l 328 1224 q 467 1144 354 1144 q 606 1224 579 1144 z "},"ă":{"ha":751,"x_min":26,"x_max":688,"o":"m 688 386 l 688 0 l 475 0 l 471 72 q 431 35 447 49 q 370 3 414 21 q 275 -15 326 -15 q 100 40 174 -15 q 26 203 26 96 q 68 323 26 275 q 167 390 110 371 q 293 413 224 410 l 465 419 l 465 435 q 325 544 465 544 q 208 525 267 544 q 115 483 149 506 l 57 628 q 350 697 196 697 q 606 618 519 697 q 688 386 688 540 m 467 189 l 467 301 l 357 294 q 249 211 249 290 q 278 149 249 172 q 353 126 307 126 q 423 147 393 126 q 467 189 453 167 m 501 950 l 597 950 q 522 812 585 858 q 363 765 460 765 q 202 812 265 765 q 126 950 139 858 l 224 950 q 363 871 250 871 q 501 950 475 871 z "},"Ą":{"ha":944,"x_min":-6,"x_max":990,"o":"m 961 -162 l 990 -219 q 967 -237 982 -226 q 910 -265 953 -247 q 828 -283 867 -283 q 711 -251 757 -283 q 665 -158 665 -219 q 768 0 665 -64 l 706 0 l 638 193 l 296 193 l 228 0 l -6 0 l 356 960 l 589 960 l 950 0 l 892 0 q 821 -58 851 -22 q 790 -128 790 -93 q 814 -176 790 -161 q 868 -192 838 -192 q 961 -162 917 -192 m 347 368 l 586 368 l 467 713 l 347 368 z "},"ą":{"ha":751,"x_min":26,"x_max":743,"o":"m 714 -162 l 743 -219 q 720 -237 735 -226 q 663 -265 706 -247 q 581 -283 619 -283 q 464 -251 510 -283 q 418 -158 418 -219 q 521 0 418 -64 l 475 0 l 471 72 q 431 35 447 49 q 370 3 414 21 q 275 -15 326 -15 q 100 40 174 -15 q 26 203 26 96 q 68 323 26 275 q 167 390 110 371 q 293 413 224 410 l 465 419 l 465 435 q 325 544 465 544 q 208 525 267 544 q 115 483 149 506 l 57 628 q 350 697 196 697 q 606 618 519 697 q 688 386 688 540 l 688 0 l 644 0 q 574 -58 604 -22 q 543 -128 543 -93 q 567 -176 543 -161 q 621 -192 590 -192 q 714 -162 669 -192 m 467 189 l 467 301 l 357 294 q 249 211 249 288 q 278 149 249 172 q 353 126 307 126 q 423 147 393 126 q 467 189 453 167 z "},"Ć":{"ha":903,"x_min":39,"x_max":888,"o":"m 813 289 l 888 114 q 542 -17 761 -17 q 182 117 325 -17 q 39 478 39 251 q 183 838 39 704 q 542 972 326 972 q 753 935 669 972 q 871 864 838 899 l 801 678 q 708 742 781 706 q 554 778 636 778 q 348 699 429 778 q 267 482 267 619 q 349 267 267 346 q 554 188 432 188 q 813 289 714 188 m 488 1232 l 678 1232 l 535 1031 l 378 1031 l 488 1232 z "},"ć":{"ha":669,"x_min":33,"x_max":656,"o":"m 603 235 l 656 67 l 651 64 q 643 56 647 60 q 631 47 639 53 q 613 35 622 40 q 591 24 604 31 q 563 12 578 17 q 530 1 549 7 q 491 -8 511 -4 q 446 -13 471 -11 q 394 -15 421 -15 q 140 81 246 -15 q 33 340 33 176 q 141 601 33 504 q 397 697 249 697 q 539 679 475 697 q 628 643 603 661 l 651 625 l 603 457 q 426 518 525 518 q 306 471 354 518 q 257 344 257 424 q 304 216 257 264 q 429 168 351 168 q 519 185 475 168 q 583 218 563 201 l 603 235 m 350 958 l 540 958 l 397 757 l 240 757 l 350 958 z "},"Ĉ":{"ha":903,"x_min":39,"x_max":888,"o":"m 813 289 l 888 114 q 542 -17 761 -17 q 182 117 325 -17 q 39 478 39 251 q 183 838 39 704 q 542 972 326 972 q 753 935 669 972 q 871 864 838 899 l 801 678 q 708 742 781 706 q 554 778 636 778 q 348 699 429 778 q 267 482 267 619 q 349 267 267 346 q 554 188 432 188 q 813 289 714 188 m 608 1232 l 726 1031 l 578 1031 l 503 1158 l 428 1031 l 278 1031 l 397 1232 l 608 1232 z "},"ĉ":{"ha":669,"x_min":33,"x_max":656,"o":"m 603 235 l 656 67 l 651 64 q 643 56 647 60 q 631 47 639 53 q 613 35 622 40 q 591 24 604 31 q 563 12 578 17 q 530 1 549 7 q 491 -8 511 -4 q 446 -13 471 -11 q 394 -15 421 -15 q 140 81 246 -15 q 33 340 33 176 q 141 601 33 504 q 397 697 249 697 q 539 679 475 697 q 628 643 603 661 l 651 625 l 603 457 q 426 518 525 518 q 306 471 354 518 q 257 344 257 424 q 304 216 257 264 q 429 168 351 168 q 519 185 475 168 q 583 218 563 201 l 603 235 m 469 958 l 588 757 l 439 757 l 364 885 l 289 757 l 139 757 l 258 958 l 469 958 z "},"Ċ":{"ha":903,"x_min":39,"x_max":888,"o":"m 813 289 l 888 114 q 542 -17 761 -17 q 182 117 325 -17 q 39 478 39 251 q 183 838 39 704 q 542 972 326 972 q 753 935 669 972 q 871 864 838 899 l 801 678 q 708 742 781 706 q 554 778 636 778 q 348 699 429 778 q 267 482 267 619 q 349 267 267 346 q 554 188 432 188 q 813 289 714 188 m 542 1200 q 556 1187 542 1200 q 569 1133 569 1174 q 542 1066 569 1093 q 475 1039 514 1039 q 408 1066 435 1039 q 381 1133 381 1093 q 408 1200 381 1174 q 475 1226 435 1226 q 542 1200 514 1226 z "},"ċ":{"ha":669,"x_min":33,"x_max":656,"o":"m 603 235 l 656 67 l 651 64 q 643 56 647 60 q 631 47 639 53 q 613 35 622 40 q 591 24 604 31 q 563 12 578 17 q 530 1 549 7 q 491 -8 511 -4 q 446 -13 471 -11 q 394 -15 421 -15 q 140 81 246 -15 q 33 340 33 176 q 141 601 33 504 q 397 697 249 697 q 539 679 475 697 q 628 643 603 661 l 651 625 l 603 457 q 426 518 525 518 q 306 471 354 518 q 257 344 257 424 q 304 216 257 264 q 429 168 351 168 q 519 185 475 168 q 583 218 563 201 l 603 235 m 415 926 q 429 913 415 926 q 443 860 443 900 q 415 792 443 819 q 349 765 388 765 q 281 792 308 765 q 254 860 254 819 q 281 926 254 900 q 349 953 308 953 q 415 926 388 953 z "},"Č":{"ha":903,"x_min":39,"x_max":888,"o":"m 813 289 l 888 114 q 542 -17 761 -17 q 182 117 325 -17 q 39 478 39 251 q 183 838 39 704 q 542 972 326 972 q 753 935 669 972 q 871 864 838 899 l 801 678 q 708 742 781 706 q 554 778 636 778 q 348 699 429 778 q 267 482 267 619 q 349 267 267 346 q 554 188 432 188 q 813 289 714 188 m 554 1232 l 703 1232 l 585 1031 l 374 1031 l 254 1232 l 404 1232 l 479 1103 l 554 1232 z "},"č":{"ha":669,"x_min":33,"x_max":656,"o":"m 603 235 l 656 67 l 651 64 q 643 56 647 60 q 631 47 639 53 q 613 35 622 40 q 591 24 604 31 q 563 12 578 17 q 530 1 549 7 q 491 -8 511 -4 q 446 -13 471 -11 q 394 -15 421 -15 q 140 81 246 -15 q 33 340 33 176 q 141 601 33 504 q 397 697 249 697 q 539 679 475 697 q 628 643 603 661 l 651 625 l 603 457 q 426 518 525 518 q 306 471 354 518 q 257 344 257 424 q 304 216 257 264 q 429 168 351 168 q 519 185 475 168 q 583 218 563 201 l 603 235 m 425 958 l 574 958 l 456 757 l 244 757 l 125 958 l 275 958 l 350 829 l 425 958 z "},"Ď":{"ha":976,"x_min":88,"x_max":938,"o":"m 938 479 q 782 114 938 246 q 413 0 647 0 l 88 0 l 88 958 l 413 958 q 782 843 647 958 q 938 479 938 714 m 710 479 q 625 704 710 622 q 425 772 551 772 l 311 772 l 311 190 l 425 190 q 625 260 553 190 q 710 479 710 339 m 507 1232 l 656 1232 l 538 1031 l 326 1031 l 207 1232 l 357 1232 l 432 1103 l 507 1232 z "},"ď":{"ha":1119,"x_min":33,"x_max":1164,"o":"m 796 958 l 796 0 l 585 0 l 586 90 l 582 89 q 357 -15 506 -15 q 122 86 211 -15 q 33 342 33 188 q 122 597 33 496 q 357 697 211 697 q 495 667 440 697 q 574 601 550 636 l 574 958 l 796 958 m 537 216 q 559 241 537 216 q 581 344 581 265 q 537 473 581 424 q 421 522 493 522 q 304 473 349 522 q 260 344 260 424 q 304 216 260 265 q 421 167 349 167 q 537 216 493 167 m 951 958 l 1164 958 l 1024 613 l 842 613 l 951 958 z "},"Đ":{"ha":976,"x_min":8,"x_max":938,"o":"m 938 479 q 782 114 938 246 q 413 0 647 0 l 88 0 l 88 419 l 8 419 l 8 567 l 88 567 l 88 958 l 413 958 q 782 843 647 958 q 938 479 938 714 m 710 479 q 625 704 710 622 q 425 772 551 772 l 311 772 l 311 567 l 500 567 l 500 425 l 311 425 l 311 190 l 425 190 q 625 260 553 190 q 710 479 710 339 z "},"đ":{"ha":875,"x_min":33,"x_max":868,"o":"m 796 778 l 796 0 l 585 0 l 586 90 l 582 89 q 357 -15 506 -15 q 122 86 211 -15 q 33 342 33 188 q 122 597 33 496 q 357 697 211 697 q 495 667 440 697 q 574 601 550 636 l 574 778 l 344 778 l 344 885 l 574 885 l 574 958 l 796 958 l 796 885 l 868 885 l 868 778 l 796 778 m 537 216 q 559 241 537 216 q 581 344 581 265 q 537 473 581 424 q 421 522 493 522 q 304 473 349 522 q 260 344 260 424 q 304 216 260 265 q 421 167 349 167 q 537 216 493 167 z "},"Ē":{"ha":772,"x_min":88,"x_max":721,"o":"m 721 182 l 721 0 l 88 0 l 88 958 l 708 958 l 708 779 l 311 779 l 311 583 l 686 583 l 686 404 l 311 404 l 311 182 l 721 182 m 621 1186 l 621 1079 l 181 1079 l 181 1186 l 621 1186 z "},"ē":{"ha":775,"x_min":33,"x_max":746,"o":"m 746 363 l 743 289 l 256 289 q 310 182 263 218 q 431 146 358 146 q 636 211 540 146 l 724 96 l 711 85 q 686 66 697 74 q 654 45 675 58 q 608 23 633 32 q 553 4 583 14 q 482 -10 522 -6 q 399 -15 442 -15 q 135 80 236 -15 q 33 342 33 175 q 139 601 33 506 q 403 697 244 697 q 651 605 556 697 q 746 363 746 513 m 257 415 l 539 415 q 501 510 538 468 q 399 553 464 553 q 297 511 335 553 q 257 415 260 469 m 607 913 l 607 806 l 167 806 l 167 913 l 607 913 z "},"Ĕ":{"ha":772,"x_min":88,"x_max":721,"o":"m 721 182 l 721 0 l 88 0 l 88 958 l 708 958 l 708 779 l 311 779 l 311 583 l 686 583 l 686 404 l 311 404 l 311 182 l 721 182 m 549 1224 l 644 1224 q 569 1085 632 1132 q 410 1039 507 1039 q 249 1085 313 1039 q 174 1224 186 1132 l 271 1224 q 410 1144 297 1144 q 549 1224 522 1144 z "},"ĕ":{"ha":775,"x_min":33,"x_max":746,"o":"m 746 363 l 743 289 l 256 289 q 310 182 263 218 q 431 146 358 146 q 636 211 540 146 l 724 96 l 711 85 q 686 66 697 74 q 654 45 675 58 q 608 23 633 32 q 553 4 583 14 q 482 -10 522 -6 q 399 -15 442 -15 q 135 80 236 -15 q 33 342 33 175 q 139 601 33 506 q 403 697 244 697 q 651 605 556 697 q 746 363 746 513 m 257 415 l 539 415 q 501 510 538 468 q 399 553 464 553 q 297 511 335 553 q 257 415 260 469 m 526 950 l 622 950 q 547 812 610 858 q 388 765 485 765 q 227 812 290 765 q 151 950 164 858 l 249 950 q 388 871 275 871 q 526 950 500 871 z "},"Ė":{"ha":772,"x_min":88,"x_max":721,"o":"m 721 182 l 721 0 l 88 0 l 88 958 l 708 958 l 708 779 l 311 779 l 311 583 l 686 583 l 686 404 l 311 404 l 311 182 l 721 182 m 479 1200 q 493 1187 479 1200 q 507 1133 507 1174 q 479 1066 507 1093 q 413 1039 451 1039 q 345 1066 372 1039 q 318 1133 318 1093 q 345 1200 318 1174 q 413 1226 372 1226 q 479 1200 451 1226 z "},"ė":{"ha":775,"x_min":33,"x_max":746,"o":"m 746 363 l 743 289 l 256 289 q 310 182 263 218 q 431 146 358 146 q 636 211 540 146 l 724 96 l 711 85 q 686 66 697 74 q 654 45 675 58 q 608 23 633 32 q 553 4 583 14 q 482 -10 522 -6 q 399 -15 442 -15 q 135 80 236 -15 q 33 342 33 175 q 139 601 33 506 q 403 697 244 697 q 651 605 556 697 q 746 363 746 513 m 257 415 l 539 415 q 501 510 538 468 q 399 553 464 553 q 297 511 335 553 q 257 415 260 469 m 454 926 q 468 913 454 926 q 482 860 482 900 q 454 792 482 819 q 388 765 426 765 q 320 792 347 765 q 293 860 293 819 q 320 926 293 900 q 388 953 347 953 q 454 926 426 953 z "},"Ę":{"ha":772,"x_min":88,"x_max":721,"o":"m 692 -162 l 721 -219 q 698 -237 713 -226 q 640 -265 683 -247 q 558 -283 597 -283 q 442 -251 488 -283 q 396 -158 396 -219 q 499 0 396 -64 l 88 0 l 88 958 l 708 958 l 708 779 l 311 779 l 311 583 l 686 583 l 686 404 l 311 404 l 311 182 l 721 182 l 721 0 l 622 0 q 551 -58 582 -22 q 521 -128 521 -93 q 544 -176 521 -161 q 599 -192 568 -192 q 692 -162 647 -192 z "},"ę":{"ha":775,"x_min":33,"x_max":746,"o":"m 601 -162 l 631 -219 q 608 -237 622 -226 q 550 -265 593 -247 q 468 -283 507 -283 q 351 -251 397 -283 q 306 -158 306 -219 q 386 -15 306 -76 q 131 84 228 -11 q 33 342 33 179 q 139 601 33 506 q 403 697 244 697 q 651 605 556 697 q 746 363 746 513 l 743 289 l 256 289 q 310 182 263 218 q 431 146 358 146 q 636 211 540 146 l 724 96 q 712 86 722 94 q 692 71 701 78 q 665 53 683 64 q 629 33 647 42 q 585 15 611 24 q 529 -1 558 6 q 460 -58 489 -24 q 431 -128 431 -93 q 454 -176 431 -161 q 508 -192 478 -192 q 601 -162 557 -192 m 257 415 l 539 415 q 501 510 538 468 q 399 553 464 553 q 297 511 335 553 q 257 415 260 469 z "},"Ě":{"ha":772,"x_min":88,"x_max":721,"o":"m 721 182 l 721 0 l 88 0 l 88 958 l 708 958 l 708 779 l 311 779 l 311 583 l 686 583 l 686 404 l 311 404 l 311 182 l 721 182 m 485 1232 l 633 1232 l 515 1031 l 304 1031 l 185 1232 l 335 1232 l 410 1103 l 485 1232 z "},"ě":{"ha":775,"x_min":33,"x_max":746,"o":"m 746 363 l 743 289 l 256 289 q 310 182 263 218 q 431 146 358 146 q 636 211 540 146 l 724 96 l 711 85 q 686 66 697 74 q 654 45 675 58 q 608 23 633 32 q 553 4 583 14 q 482 -10 522 -6 q 399 -15 442 -15 q 135 80 236 -15 q 33 342 33 175 q 139 601 33 506 q 403 697 244 697 q 651 605 556 697 q 746 363 746 513 m 257 415 l 539 415 q 501 510 538 468 q 399 553 464 553 q 297 511 335 553 q 257 415 260 469 m 463 958 l 611 958 l 493 757 l 282 757 l 163 958 l 313 958 l 388 829 l 463 958 z "},"Ĝ":{"ha":1033,"x_min":39,"x_max":964,"o":"m 964 546 l 964 149 l 947 133 q 926 115 932 119 q 900 94 919 110 q 868 72 881 79 q 831 51 856 65 q 787 30 807 38 q 737 13 767 22 q 678 -3 707 3 q 613 -12 649 -8 q 538 -15 576 -15 q 291 40 403 -15 q 109 210 179 96 q 39 479 39 325 q 184 841 39 710 q 540 972 329 972 q 677 957 613 972 q 779 925 742 942 q 857 877 817 908 q 906 837 897 846 q 935 806 914 828 l 786 676 q 540 786 686 786 q 344 703 421 786 q 267 479 267 621 q 345 255 267 338 q 544 172 424 172 q 664 188 614 172 q 729 218 714 203 l 744 233 l 744 375 l 543 375 l 543 546 l 964 546 m 633 1232 l 751 1031 l 603 1031 l 528 1158 l 453 1031 l 303 1031 l 422 1232 l 633 1232 z "},"ĝ":{"ha":872,"x_min":33,"x_max":796,"o":"m 796 685 l 796 139 q 692 -157 796 -60 q 376 -265 576 -265 q 182 -233 271 -265 q 44 -164 93 -200 l 136 -15 q 241 -68 172 -43 q 372 -93 310 -93 q 533 -39 482 -93 q 575 97 575 8 l 575 119 l 572 119 q 357 22 497 22 q 128 112 222 22 q 33 360 33 201 q 128 608 33 518 q 357 697 222 697 q 574 597 497 697 l 576 597 l 574 685 l 796 685 m 581 358 q 537 476 581 429 q 421 524 493 524 q 304 476 349 524 q 260 358 260 429 q 304 239 260 286 q 421 192 349 192 q 537 239 493 192 q 581 358 581 286 m 521 958 l 639 757 l 490 757 l 415 885 l 340 757 l 190 757 l 310 958 l 521 958 z "},"Ğ":{"ha":1033,"x_min":39,"x_max":964,"o":"m 964 546 l 964 149 l 947 133 q 926 115 932 119 q 900 94 919 110 q 868 72 881 79 q 831 51 856 65 q 787 30 807 38 q 737 13 767 22 q 678 -3 707 3 q 613 -12 649 -8 q 538 -15 576 -15 q 291 40 403 -15 q 109 210 179 96 q 39 479 39 325 q 184 841 39 710 q 540 972 329 972 q 677 957 613 972 q 779 925 742 942 q 857 877 817 908 q 906 837 897 846 q 935 806 914 828 l 786 676 q 540 786 686 786 q 344 703 421 786 q 267 479 267 621 q 345 255 267 338 q 544 172 424 172 q 664 188 614 172 q 729 218 714 203 l 744 233 l 744 375 l 543 375 l 543 546 l 964 546 m 661 1224 l 757 1224 q 682 1085 744 1132 q 522 1039 619 1039 q 362 1085 425 1039 q 286 1224 299 1132 l 383 1224 q 522 1144 410 1144 q 661 1224 635 1144 z "},"ğ":{"ha":872,"x_min":33,"x_max":796,"o":"m 796 685 l 796 139 q 692 -157 796 -60 q 376 -265 576 -265 q 182 -233 271 -265 q 44 -164 93 -200 l 136 -15 q 241 -68 172 -43 q 372 -93 310 -93 q 533 -39 482 -93 q 575 97 575 8 l 575 119 l 572 119 q 357 22 497 22 q 128 112 222 22 q 33 360 33 201 q 128 608 33 518 q 357 697 222 697 q 574 597 497 697 l 576 597 l 574 685 l 796 685 m 581 358 q 537 476 581 429 q 421 524 493 524 q 304 476 349 524 q 260 358 260 429 q 304 239 260 286 q 421 192 349 192 q 537 239 493 192 q 581 358 581 286 m 558 950 l 654 950 q 579 812 642 858 q 419 765 517 765 q 259 812 322 765 q 183 950 196 858 l 281 950 q 419 871 307 871 q 558 950 532 871 z "},"Ġ":{"ha":1033,"x_min":39,"x_max":964,"o":"m 964 546 l 964 149 l 947 133 q 926 115 932 119 q 900 94 919 110 q 868 72 881 79 q 831 51 856 65 q 787 30 807 38 q 737 13 767 22 q 678 -3 707 3 q 613 -12 649 -8 q 538 -15 576 -15 q 291 40 403 -15 q 109 210 179 96 q 39 479 39 325 q 184 841 39 710 q 540 972 329 972 q 677 957 613 972 q 779 925 742 942 q 857 877 817 908 q 906 837 897 846 q 935 806 914 828 l 786 676 q 540 786 686 786 q 344 703 421 786 q 267 479 267 621 q 345 255 267 338 q 544 172 424 172 q 664 188 614 172 q 729 218 714 203 l 744 233 l 744 375 l 543 375 l 543 546 l 964 546 m 581 1200 q 594 1187 581 1200 q 608 1133 608 1174 q 581 1066 608 1093 q 514 1039 553 1039 q 447 1066 474 1039 q 419 1133 419 1093 q 447 1200 419 1174 q 514 1226 474 1226 q 581 1200 553 1226 z "},"ġ":{"ha":872,"x_min":33,"x_max":796,"o":"m 796 685 l 796 139 q 692 -157 796 -60 q 376 -265 576 -265 q 182 -233 271 -265 q 44 -164 93 -200 l 136 -15 q 241 -68 172 -43 q 372 -93 310 -93 q 533 -39 482 -93 q 575 97 575 8 l 575 119 l 572 119 q 357 22 497 22 q 128 112 222 22 q 33 360 33 201 q 128 608 33 518 q 357 697 222 697 q 574 597 497 697 l 576 597 l 574 685 l 796 685 m 581 358 q 537 476 581 429 q 421 524 493 524 q 304 476 349 524 q 260 358 260 429 q 304 239 260 286 q 421 192 349 192 q 537 239 493 192 q 581 358 581 286 m 460 926 q 474 913 460 926 q 488 860 488 900 q 460 792 488 819 q 393 765 432 765 q 326 792 353 765 q 299 860 299 819 q 326 926 299 900 q 393 953 353 953 q 460 926 432 953 z "},"Ģ":{"ha":1033,"x_min":39,"x_max":964,"o":"m 964 546 l 964 149 l 947 133 q 926 115 932 119 q 900 94 919 110 q 868 72 881 79 q 831 51 856 65 q 787 30 807 38 q 737 13 767 22 q 678 -3 707 3 q 613 -12 649 -8 q 538 -15 576 -15 q 291 40 403 -15 q 109 210 179 96 q 39 479 39 325 q 184 841 39 710 q 540 972 329 972 q 677 957 613 972 q 779 925 742 942 q 857 877 817 908 q 906 837 897 846 q 935 806 914 828 l 786 676 q 540 786 686 786 q 344 703 421 786 q 267 479 267 621 q 345 255 267 338 q 544 172 424 172 q 664 188 614 172 q 729 218 714 203 l 744 233 l 744 375 l 543 375 l 543 546 l 964 546 m 460 -69 l 674 -69 l 594 -264 l 413 -264 l 460 -69 z "},"ģ":{"ha":872,"x_min":33,"x_max":796,"o":"m 796 685 l 796 139 q 692 -157 796 -60 q 376 -265 576 -265 q 182 -233 271 -265 q 44 -164 93 -200 l 136 -15 q 241 -68 172 -43 q 372 -93 310 -93 q 533 -39 482 -93 q 575 97 575 8 l 575 119 l 572 119 q 357 22 497 22 q 128 112 222 22 q 33 360 33 201 q 128 608 33 518 q 357 697 222 697 q 574 597 497 697 l 576 597 l 574 685 l 796 685 m 581 358 q 537 476 581 429 q 421 524 493 524 q 304 476 349 524 q 260 358 260 429 q 304 239 260 286 q 421 192 349 192 q 537 239 493 192 q 581 358 581 286 m 478 804 l 264 804 l 343 999 l 525 999 l 478 804 z "},"Ĥ":{"ha":1010,"x_min":88,"x_max":922,"o":"m 922 958 l 922 0 l 697 0 l 697 401 l 313 401 l 313 0 l 88 0 l 88 958 l 313 958 l 313 588 l 697 588 l 697 958 l 922 958 m 611 1232 l 729 1031 l 581 1031 l 506 1158 l 431 1031 l 281 1031 l 400 1232 l 611 1232 z "},"ĥ":{"ha":818,"x_min":-31,"x_max":751,"o":"m 751 404 l 751 0 l 528 0 l 528 360 q 508 475 528 435 q 424 515 488 515 q 301 336 301 515 l 301 0 l 79 0 l 79 958 l 301 958 l 301 731 l 300 586 q 501 697 363 697 q 696 620 640 697 q 751 404 751 543 m 300 1257 l 418 1056 l 269 1056 l 194 1183 l 119 1056 l -31 1056 l 89 1257 l 300 1257 z "},"Ħ":{"ha":1010,"x_min":7,"x_max":1003,"o":"m 922 725 l 922 0 l 697 0 l 697 401 l 313 401 l 313 0 l 88 0 l 88 725 l 7 725 l 7 860 l 88 860 l 88 958 l 313 958 l 313 860 l 697 860 l 697 958 l 922 958 l 922 860 l 1003 860 l 1003 725 l 922 725 m 313 588 l 697 588 l 697 725 l 313 725 l 313 588 z "},"ħ":{"ha":818,"x_min":7,"x_max":751,"o":"m 531 885 l 531 778 l 301 778 l 301 731 l 300 586 q 501 697 363 697 q 696 620 640 697 q 751 404 751 543 l 751 0 l 528 0 l 528 360 q 508 475 528 435 q 424 515 488 515 q 301 336 301 515 l 301 0 l 79 0 l 79 778 l 7 778 l 7 885 l 79 885 l 79 958 l 301 958 l 301 885 l 531 885 z "},"Ĩ":{"ha":400,"x_min":-50,"x_max":451,"o":"m 357 1218 l 451 1204 q 403 1092 449 1139 q 294 1044 357 1044 q 188 1075 244 1044 q 172 1085 183 1078 q 151 1096 160 1092 q 131 1104 143 1100 q 108 1108 119 1108 q 46 1049 63 1108 l -50 1063 q -1 1175 -49 1128 q 108 1222 46 1222 q 214 1192 161 1222 q 293 1158 269 1158 q 357 1218 342 1158 m 313 958 l 313 0 l 88 0 l 88 958 l 313 958 z "},"ĩ":{"ha":375,"x_min":-62,"x_max":439,"o":"m 299 685 l 299 0 l 76 0 l 76 685 l 299 685 m 344 944 l 439 931 q 390 818 436 865 q 282 771 344 771 q 175 801 232 771 q 159 811 171 804 q 139 822 147 818 q 119 831 131 826 q 96 835 107 835 q 33 775 50 835 l -62 789 q -14 901 -61 854 q 96 949 33 949 q 201 918 147 949 q 281 885 257 885 q 344 944 329 885 z "},"Ī":{"ha":400,"x_min":-19,"x_max":421,"o":"m 313 958 l 313 0 l 88 0 l 88 958 l 313 958 m 421 1186 l 421 1079 l -19 1079 l -19 1186 l 421 1186 z "},"ī":{"ha":375,"x_min":-32,"x_max":408,"o":"m 299 685 l 299 0 l 76 0 l 76 685 l 299 685 m 408 913 l 408 806 l -32 806 l -32 913 l 408 913 z "},"Ĭ":{"ha":400,"x_min":-35,"x_max":436,"o":"m 340 1224 l 436 1224 q 361 1085 424 1132 q 201 1039 299 1039 q 41 1085 104 1039 q -35 1224 -22 1132 l 63 1224 q 201 1144 89 1144 q 340 1224 314 1144 m 313 958 l 313 0 l 88 0 l 88 958 l 313 958 z "},"ĭ":{"ha":375,"x_min":-47,"x_max":424,"o":"m 328 950 l 424 950 q 349 812 411 858 q 189 765 286 765 q 28 812 92 765 q -47 950 -35 858 l 50 950 q 189 871 76 871 q 328 950 301 871 m 299 685 l 299 0 l 76 0 l 76 685 l 299 685 z "},"Į":{"ha":400,"x_min":42,"x_max":367,"o":"m 338 -162 l 367 -219 q 344 -237 358 -226 q 286 -265 329 -247 q 204 -283 243 -283 q 88 -251 133 -283 q 42 -158 42 -219 q 144 0 42 -64 l 88 0 l 88 958 l 313 958 l 313 0 l 268 0 q 197 -58 228 -22 q 167 -128 167 -93 q 190 -176 167 -161 q 244 -192 214 -192 q 338 -162 294 -192 z "},"į":{"ha":375,"x_min":38,"x_max":363,"o":"m 333 -162 l 363 -219 q 340 -237 354 -226 q 282 -265 325 -247 q 200 -283 239 -283 q 83 -251 129 -283 q 38 -158 38 -219 q 140 0 38 -64 l 76 0 l 76 685 l 299 685 l 299 0 l 264 0 q 193 -58 224 -22 q 163 -128 163 -93 q 186 -176 163 -161 q 240 -192 210 -192 q 333 -162 289 -192 m 278 963 q 296 947 278 963 q 314 879 314 931 q 279 796 314 828 q 188 764 244 764 q 96 796 131 764 q 61 879 61 828 q 97 963 61 931 q 188 994 132 994 q 278 963 243 994 z "},"İ":{"ha":400,"x_min":88,"x_max":313,"o":"m 267 1200 q 281 1187 267 1200 q 294 1133 294 1174 q 267 1066 294 1093 q 200 1039 239 1039 q 133 1066 160 1039 q 106 1133 106 1093 q 133 1200 106 1174 q 200 1226 160 1226 q 267 1200 239 1226 m 313 958 l 313 0 l 88 0 l 88 958 l 313 958 z "},"ı":{"ha":375,"x_min":76,"x_max":299,"o":"m 299 685 l 299 0 l 76 0 l 76 685 l 299 685 z "},"Ĳ":{"ha":799,"x_min":88,"x_max":711,"o":"m 711 958 l 711 19 q 651 -197 711 -129 q 478 -268 590 -268 q 389 -261 432 -268 q 335 -247 346 -254 l 343 -82 q 418 -94 375 -94 q 472 -67 457 -94 q 488 17 488 -39 l 488 958 l 711 958 m 313 958 l 313 0 l 88 0 l 88 958 l 313 958 z "},"ĳ":{"ha":750,"x_min":61,"x_max":689,"o":"m 653 963 q 671 947 653 963 q 689 879 689 931 q 654 796 689 828 q 563 764 619 764 q 471 796 506 764 q 436 879 436 828 q 472 963 436 931 q 563 994 507 994 q 653 963 618 994 m 674 685 l 674 17 q 617 -189 674 -126 q 426 -265 547 -265 q 364 -262 393 -265 q 322 -256 335 -258 l 310 -253 l 314 -81 q 376 -89 342 -89 q 435 -60 419 -89 q 451 28 451 -32 l 451 685 l 674 685 m 278 963 q 296 947 278 963 q 314 879 314 931 q 279 796 314 828 q 188 764 244 764 q 96 796 131 764 q 61 879 61 828 q 97 963 61 931 q 188 994 132 994 q 278 963 243 994 m 299 685 l 299 0 l 76 0 l 76 685 l 299 685 z "},"Ĵ":{"ha":399,"x_min":-65,"x_max":424,"o":"m 311 958 l 311 19 q 251 -197 311 -129 q 78 -268 190 -268 q -11 -261 32 -268 q -65 -247 -54 -254 l -57 -82 q 18 -94 -25 -94 q 72 -67 57 -94 q 88 17 88 -39 l 88 958 l 311 958 m 306 1232 l 424 1031 l 275 1031 l 200 1158 l 125 1031 l -25 1031 l 94 1232 l 306 1232 z "},"ĵ":{"ha":375,"x_min":-65,"x_max":413,"o":"m 299 685 l 299 17 q 242 -189 299 -126 q 51 -265 172 -265 q -11 -262 18 -265 q -53 -256 -40 -258 l -65 -253 l -61 -81 q 1 -89 -33 -89 q 60 -60 44 -89 q 76 28 76 -32 l 76 685 l 299 685 m 294 958 l 413 757 l 264 757 l 189 885 l 114 757 l -36 757 l 83 958 l 294 958 z "},"Ķ":{"ha":874,"x_min":88,"x_max":897,"o":"m 536 576 l 897 0 l 628 0 l 388 400 l 311 315 l 311 0 l 88 0 l 88 958 l 311 958 l 311 608 l 607 958 l 874 958 l 536 576 m 375 -69 l 589 -69 l 510 -264 l 328 -264 l 375 -69 z "},"ķ":{"ha":765,"x_min":79,"x_max":786,"o":"m 515 428 l 786 0 l 531 0 l 363 267 l 301 207 l 301 0 l 79 0 l 79 958 l 301 958 l 301 458 l 510 685 l 765 685 l 515 428 m 311 -69 l 525 -69 l 446 -264 l 264 -264 l 311 -69 z "},"ĸ":{"ha":760,"x_min":74,"x_max":781,"o":"m 510 428 l 781 0 l 525 0 l 357 267 l 296 207 l 296 0 l 74 0 l 74 685 l 296 685 l 296 458 l 504 685 l 760 685 l 510 428 z "},"Ĺ":{"ha":657,"x_min":88,"x_max":643,"o":"m 643 186 l 643 0 l 88 0 l 88 958 l 311 958 l 311 186 l 643 186 m 224 1232 l 414 1232 l 271 1031 l 114 1031 l 224 1232 z "},"ĺ":{"ha":379,"x_min":79,"x_max":401,"o":"m 301 958 l 301 0 l 79 0 l 79 958 l 301 958 m 211 1257 l 401 1257 l 258 1056 l 101 1056 l 211 1257 z "},"Ļ":{"ha":657,"x_min":88,"x_max":643,"o":"m 643 186 l 643 0 l 88 0 l 88 958 l 311 958 l 311 186 l 643 186 m 276 -69 l 490 -69 l 411 -264 l 229 -264 l 276 -69 z "},"ļ":{"ha":379,"x_min":49,"x_max":310,"o":"m 301 958 l 301 0 l 79 0 l 79 958 l 301 958 m 96 -69 l 310 -69 l 231 -264 l 49 -264 l 96 -69 z "},"Ľ":{"ha":657,"x_min":88,"x_max":718,"o":"m 643 186 l 643 0 l 88 0 l 88 958 l 311 958 l 311 186 l 643 186 m 506 958 l 718 958 l 578 613 l 396 613 l 506 958 z "},"ľ":{"ha":625,"x_min":79,"x_max":669,"o":"m 301 958 l 301 0 l 79 0 l 79 958 l 301 958 m 457 958 l 669 958 l 529 613 l 347 613 l 457 958 z "},"Ŀ":{"ha":739,"x_min":88,"x_max":711,"o":"m 643 186 l 643 0 l 88 0 l 88 958 l 311 958 l 311 186 l 643 186 m 676 580 q 693 564 676 580 q 711 494 711 547 q 676 409 711 442 q 583 376 640 376 q 490 409 525 376 q 454 494 454 442 q 490 580 454 547 q 583 613 525 613 q 676 580 640 613 z "},"ŀ":{"ha":708,"x_min":79,"x_max":649,"o":"m 613 502 q 631 486 613 502 q 649 417 649 469 q 613 331 649 364 q 521 299 578 299 q 427 331 463 299 q 392 417 392 364 q 427 502 392 469 q 521 535 463 535 q 613 502 578 535 m 301 958 l 301 0 l 79 0 l 79 958 l 301 958 z "},"Ł":{"ha":657,"x_min":21,"x_max":643,"o":"m 643 186 l 643 0 l 88 0 l 88 307 l 21 256 l 21 424 l 88 474 l 88 958 l 311 958 l 311 625 l 457 735 l 457 568 l 311 457 l 311 186 l 643 186 z "},"ł":{"ha":385,"x_min":13,"x_max":372,"o":"m 372 753 l 372 586 l 303 526 l 303 0 l 81 0 l 81 353 l 13 293 l 13 460 l 81 519 l 81 958 l 303 958 l 303 693 l 372 753 z "},"Ń":{"ha":1042,"x_min":88,"x_max":954,"o":"m 954 958 l 954 0 l 724 0 l 303 650 q 307 433 307 535 l 307 0 l 88 0 l 88 958 l 328 958 l 739 314 q 735 524 735 422 l 735 958 l 954 958 m 540 1232 l 731 1232 l 588 1031 l 431 1031 l 540 1232 z "},"ń":{"ha":815,"x_min":74,"x_max":746,"o":"m 746 404 l 746 0 l 524 0 l 524 357 q 503 475 524 435 q 418 515 482 515 q 296 339 296 515 l 296 0 l 74 0 l 74 685 l 296 685 l 294 586 l 297 586 q 496 697 365 697 q 690 619 635 697 q 746 404 746 542 m 394 958 l 585 958 l 442 757 l 285 757 l 394 958 z "},"Ņ":{"ha":1042,"x_min":88,"x_max":954,"o":"m 954 958 l 954 0 l 724 0 l 303 650 q 307 433 307 535 l 307 0 l 88 0 l 88 958 l 328 958 l 739 314 q 735 524 735 422 l 735 958 l 954 958 m 433 -69 l 647 -69 l 568 -264 l 386 -264 l 433 -69 z "},"ņ":{"ha":815,"x_min":74,"x_max":746,"o":"m 746 404 l 746 0 l 524 0 l 524 357 q 503 475 524 435 q 418 515 482 515 q 296 339 296 515 l 296 0 l 74 0 l 74 685 l 296 685 l 294 586 l 297 586 q 496 697 365 697 q 690 619 635 697 q 746 404 746 542 m 313 -69 l 526 -69 l 447 -264 l 265 -264 l 313 -69 z "},"Ň":{"ha":1042,"x_min":88,"x_max":954,"o":"m 954 958 l 954 0 l 724 0 l 303 650 q 307 433 307 535 l 307 0 l 88 0 l 88 958 l 328 958 l 739 314 q 735 524 735 422 l 735 958 l 954 958 m 601 1232 l 750 1232 l 632 1031 l 421 1031 l 301 1232 l 451 1232 l 526 1103 l 601 1232 z "},"ň":{"ha":815,"x_min":74,"x_max":746,"o":"m 746 404 l 746 0 l 524 0 l 524 357 q 503 475 524 435 q 418 515 482 515 q 296 339 296 515 l 296 0 l 74 0 l 74 685 l 296 685 l 294 586 l 297 586 q 496 697 365 697 q 690 619 635 697 q 746 404 746 542 m 483 958 l 632 958 l 514 757 l 303 757 l 183 958 l 333 958 l 408 829 l 483 958 z "},"Ŋ":{"ha":1042,"x_min":88,"x_max":954,"o":"m 954 958 l 954 19 q 894 -197 954 -129 q 721 -268 833 -268 q 632 -261 675 -268 q 578 -247 589 -254 l 586 -82 q 661 -94 618 -94 q 735 0 731 -94 l 724 0 l 303 650 q 307 433 307 535 l 307 0 l 88 0 l 88 958 l 328 958 l 735 319 l 735 958 l 954 958 z "},"ŋ":{"ha":815,"x_min":74,"x_max":746,"o":"m 746 404 l 746 17 q 689 -189 746 -126 q 499 -265 619 -265 q 436 -262 465 -265 q 394 -256 407 -258 l 382 -253 l 386 -81 q 449 -89 414 -89 q 508 -60 492 -89 q 524 28 524 -32 l 524 357 q 503 475 524 435 q 418 515 482 515 q 296 339 296 515 l 296 0 l 74 0 l 74 685 l 296 685 l 294 586 l 297 586 q 496 697 365 697 q 690 619 635 697 q 746 404 746 542 z "},"Ō":{"ha":1094,"x_min":39,"x_max":1056,"o":"m 911 839 q 983 772 911 839 q 1056 478 1056 704 q 911 117 1056 251 q 547 -17 767 -17 q 183 117 328 -17 q 39 478 39 251 q 183 839 39 704 q 547 974 328 974 q 911 839 767 974 m 749 266 q 788 307 749 266 q 828 483 828 349 q 749 700 828 618 q 547 782 669 782 q 346 700 425 782 q 267 483 267 618 q 346 266 267 349 q 547 183 425 183 q 749 266 669 183 m 767 1186 l 767 1079 l 326 1079 l 326 1186 l 767 1186 z "},"ō":{"ha":828,"x_min":33,"x_max":793,"o":"m 686 600 q 740 551 686 600 q 793 340 793 503 q 686 81 793 178 q 414 -15 579 -15 q 140 81 247 -15 q 33 340 33 178 q 141 600 33 503 q 414 697 249 697 q 686 600 579 697 m 527 217 q 548 242 527 217 q 569 344 569 267 q 527 472 569 422 q 414 522 485 522 q 300 472 342 522 q 258 344 258 422 q 300 217 258 267 q 414 167 342 167 q 527 217 485 167 m 633 913 l 633 806 l 193 806 l 193 913 l 633 913 z "},"Ŏ":{"ha":1094,"x_min":39,"x_max":1056,"o":"m 911 839 q 983 772 911 839 q 1056 478 1056 704 q 911 117 1056 251 q 547 -17 767 -17 q 183 117 328 -17 q 39 478 39 251 q 183 839 39 704 q 547 974 328 974 q 911 839 767 974 m 749 266 q 788 307 749 266 q 828 483 828 349 q 749 700 828 618 q 547 782 669 782 q 346 700 425 782 q 267 483 267 618 q 346 266 267 349 q 547 183 425 183 q 749 266 669 183 m 686 1224 l 782 1224 q 707 1085 769 1132 q 547 1039 644 1039 q 387 1085 450 1039 q 311 1224 324 1132 l 408 1224 q 547 1144 435 1144 q 686 1224 660 1144 z "},"ŏ":{"ha":828,"x_min":33,"x_max":793,"o":"m 686 600 q 740 551 686 600 q 793 340 793 503 q 686 81 793 178 q 414 -15 579 -15 q 140 81 247 -15 q 33 340 33 178 q 141 600 33 503 q 414 697 249 697 q 686 600 579 697 m 527 217 q 548 242 527 217 q 569 344 569 267 q 527 472 569 422 q 414 522 485 522 q 300 472 342 522 q 258 344 258 422 q 300 217 258 267 q 414 167 342 167 q 527 217 485 167 m 553 950 l 649 950 q 574 812 636 858 q 414 765 511 765 q 253 812 317 765 q 178 950 190 858 l 275 950 q 414 871 301 871 q 553 950 526 871 z "},"Ő":{"ha":1094,"x_min":39,"x_max":1056,"o":"m 911 839 q 983 772 911 839 q 1056 478 1056 704 q 911 117 1056 251 q 547 -17 767 -17 q 183 117 328 -17 q 39 478 39 251 q 183 839 39 704 q 547 974 328 974 q 911 839 767 974 m 749 266 q 788 307 749 266 q 828 483 828 349 q 749 700 828 618 q 547 782 669 782 q 346 700 425 782 q 267 483 267 618 q 346 266 267 349 q 547 183 425 183 q 749 266 669 183 m 668 1232 l 854 1232 l 708 1031 l 554 1031 l 668 1232 m 421 1232 l 606 1232 l 460 1031 l 306 1031 l 421 1232 z "},"ő":{"ha":828,"x_min":33,"x_max":793,"o":"m 686 600 q 740 551 686 600 q 793 340 793 503 q 686 81 793 178 q 414 -15 579 -15 q 140 81 247 -15 q 33 340 33 178 q 141 600 33 503 q 414 697 249 697 q 686 600 579 697 m 527 217 q 548 242 527 217 q 569 344 569 267 q 527 472 569 422 q 414 522 485 522 q 300 472 342 522 q 258 344 258 422 q 300 217 258 267 q 414 167 342 167 q 527 217 485 167 m 526 958 l 713 958 l 567 757 l 413 757 l 526 958 m 279 958 l 464 958 l 318 757 l 164 757 l 279 958 z "},"Œ":{"ha":1374,"x_min":39,"x_max":1322,"o":"m 1322 182 l 1322 0 l 739 0 l 739 25 q 544 -17 664 -17 q 183 117 326 -17 q 39 478 39 251 q 183 839 39 704 q 544 974 326 974 q 739 932 658 974 l 739 958 l 1310 958 l 1310 779 l 950 779 l 950 583 l 1288 583 l 1288 404 l 950 404 l 950 182 l 1322 182 m 726 238 l 726 729 q 544 782 661 782 q 346 700 425 782 q 267 483 267 618 q 346 266 267 349 q 544 183 425 183 q 726 238 658 183 z "},"œ":{"ha":1304,"x_min":33,"x_max":1275,"o":"m 1275 363 l 1272 289 l 783 289 q 838 183 789 221 q 958 146 886 146 q 1165 211 1069 146 l 1251 96 q 1242 88 1250 96 q 1226 75 1233 81 q 1206 60 1219 69 q 1177 42 1192 50 q 1143 26 1163 35 q 1101 10 1124 17 q 1051 -3 1078 3 q 993 -12 1025 -10 q 928 -15 961 -15 q 675 92 763 -15 q 414 -15 585 -15 q 140 81 247 -15 q 33 340 33 178 q 141 600 33 503 q 414 697 249 697 q 678 589 578 697 q 933 697 775 697 q 1180 605 1085 697 q 1275 363 1275 513 m 786 415 l 1068 415 q 1029 510 1065 468 q 928 553 993 553 q 826 511 864 553 q 786 415 789 469 m 527 217 q 548 242 527 217 q 569 344 569 267 q 527 472 569 422 q 414 522 485 522 q 300 472 342 522 q 258 344 258 422 q 300 217 258 267 q 414 167 342 167 q 527 217 485 167 z "},"Ŕ":{"ha":833,"x_min":88,"x_max":846,"o":"m 603 396 l 846 0 l 585 0 l 383 367 l 313 367 l 313 0 l 88 0 l 88 958 l 432 958 q 685 890 592 958 q 790 671 790 813 q 756 524 790 586 q 684 436 722 463 q 603 396 646 410 m 515 565 q 564 663 564 600 q 515 760 564 725 q 400 785 482 785 l 311 785 l 311 539 l 400 539 q 515 565 481 539 m 399 1232 l 589 1232 l 446 1031 l 289 1031 l 399 1232 z "},"ŕ":{"ha":538,"x_min":74,"x_max":536,"o":"m 536 685 l 524 481 l 514 481 q 433 497 483 497 q 331 447 368 497 q 296 304 296 401 l 296 0 l 74 0 l 74 685 l 296 685 l 294 588 l 297 588 q 467 697 354 697 q 505 694 488 697 q 529 689 522 692 l 536 685 m 294 958 l 485 958 l 342 757 l 185 757 l 294 958 z "},"Ŗ":{"ha":833,"x_min":88,"x_max":846,"o":"m 603 396 l 846 0 l 585 0 l 383 367 l 313 367 l 313 0 l 88 0 l 88 958 l 432 958 q 685 890 592 958 q 790 671 790 813 q 756 524 790 586 q 684 436 722 463 q 603 396 646 410 m 515 565 q 564 663 564 600 q 515 760 564 725 q 400 785 482 785 l 311 785 l 311 539 l 400 539 q 515 565 481 539 m 343 -69 l 557 -69 l 478 -264 l 296 -264 l 343 -69 z "},"ŗ":{"ha":538,"x_min":74,"x_max":536,"o":"m 536 685 l 524 475 q 433 497 485 497 q 331 447 368 497 q 296 304 296 401 l 296 0 l 74 0 l 74 685 l 296 685 l 294 588 l 297 588 q 467 697 354 697 q 505 694 488 697 q 529 689 522 692 l 536 685 m 126 -69 l 340 -69 l 261 -264 l 79 -264 l 126 -69 z "},"Ř":{"ha":833,"x_min":88,"x_max":846,"o":"m 603 396 l 846 0 l 585 0 l 383 367 l 313 367 l 313 0 l 88 0 l 88 958 l 432 958 q 685 890 592 958 q 790 671 790 813 q 756 524 790 586 q 684 436 722 463 q 603 396 646 410 m 515 565 q 564 663 564 600 q 515 760 564 725 q 400 785 482 785 l 311 785 l 311 539 l 400 539 q 515 565 481 539 m 469 1232 l 618 1232 l 500 1031 l 289 1031 l 169 1232 l 319 1232 l 394 1103 l 469 1232 z "},"ř":{"ha":538,"x_min":71,"x_max":536,"o":"m 536 685 l 524 481 l 514 481 q 433 497 483 497 q 331 447 368 497 q 296 304 296 401 l 296 0 l 74 0 l 74 685 l 296 685 l 294 588 l 297 588 q 467 697 354 697 q 505 694 488 697 q 529 689 522 692 l 536 685 m 371 958 l 519 958 l 401 757 l 190 757 l 71 958 l 221 958 l 296 829 l 371 958 z "},"Ś":{"ha":767,"x_min":22,"x_max":735,"o":"m 735 292 q 622 63 735 150 q 363 -17 522 -17 q 22 128 178 -17 l 133 292 q 256 205 185 239 q 383 171 326 171 q 475 197 439 171 q 511 269 511 224 q 501 311 511 293 q 469 342 490 329 q 435 360 449 354 q 399 375 422 367 q 253 429 263 425 q 139 499 171 468 q 64 683 64 568 q 164 893 64 811 q 417 969 254 969 q 585 935 499 969 q 721 851 671 901 l 625 694 q 523 765 582 738 q 411 792 464 792 q 320 769 354 792 q 286 706 286 747 q 294 669 286 685 q 319 641 303 653 q 349 623 336 629 q 383 608 363 617 q 458 580 404 600 q 526 554 511 560 q 660 476 614 522 q 735 292 735 401 m 401 1232 l 592 1232 l 449 1031 l 292 1031 l 401 1232 z "},"ś":{"ha":626,"x_min":17,"x_max":596,"o":"m 596 211 q 515 44 596 110 q 306 -15 439 -15 q 17 90 128 -15 l 100 222 q 201 163 142 188 q 303 139 261 139 q 397 197 397 139 q 388 221 397 210 q 360 241 378 232 q 328 255 342 250 q 294 266 315 260 q 272 272 274 272 q 175 304 213 288 q 58 483 58 356 q 133 640 58 581 q 318 699 207 699 q 581 614 478 699 l 508 483 q 426 529 476 508 q 336 550 375 550 q 254 500 254 550 q 354 433 254 463 q 451 401 413 417 q 540 350 507 381 q 596 211 596 294 m 313 958 l 503 958 l 360 757 l 203 757 l 313 958 z "},"Ŝ":{"ha":767,"x_min":22,"x_max":735,"o":"m 735 292 q 622 63 735 150 q 363 -17 522 -17 q 22 128 178 -17 l 133 292 q 256 205 185 239 q 383 171 326 171 q 475 197 439 171 q 511 269 511 224 q 501 311 511 293 q 469 342 490 329 q 435 360 449 354 q 399 375 422 367 q 253 429 263 425 q 139 499 171 468 q 64 683 64 568 q 164 893 64 811 q 417 969 254 969 q 585 935 499 969 q 721 851 671 901 l 625 694 q 523 765 582 738 q 411 792 464 792 q 320 769 354 792 q 286 706 286 747 q 294 669 286 685 q 319 641 303 653 q 349 623 336 629 q 383 608 363 617 q 458 580 404 600 q 526 554 511 560 q 660 476 614 522 q 735 292 735 401 m 499 1232 l 617 1031 l 468 1031 l 393 1158 l 318 1031 l 168 1031 l 288 1232 l 499 1232 z "},"ŝ":{"ha":626,"x_min":17,"x_max":596,"o":"m 596 211 q 515 44 596 110 q 306 -15 439 -15 q 17 90 128 -15 l 100 222 q 201 163 142 188 q 303 139 261 139 q 397 197 397 139 q 388 221 397 210 q 360 241 378 232 q 328 255 342 250 q 294 266 315 260 q 272 272 274 272 q 175 304 213 288 q 58 483 58 356 q 133 640 58 581 q 318 699 207 699 q 581 614 478 699 l 508 483 q 426 529 476 508 q 336 550 375 550 q 254 500 254 550 q 354 433 254 463 q 451 401 413 417 q 540 350 507 381 q 596 211 596 294 m 425 958 l 543 757 l 394 757 l 319 885 l 244 757 l 94 757 l 214 958 l 425 958 z "},"Ş":{"ha":767,"x_min":22,"x_max":735,"o":"m 735 292 q 622 63 735 150 q 503 1 574 24 l 401 -196 l 233 -196 l 350 -17 q 22 128 169 -11 l 133 292 q 256 205 185 239 q 383 171 326 171 q 475 197 439 171 q 511 269 511 224 q 501 311 511 293 q 469 342 490 329 q 435 360 449 354 q 399 375 422 367 q 253 429 263 425 q 139 499 171 468 q 64 683 64 568 q 164 893 64 811 q 417 969 254 969 q 585 935 499 969 q 721 851 671 901 l 625 694 q 523 765 582 738 q 411 792 464 792 q 320 769 354 792 q 286 706 286 747 q 294 669 286 685 q 319 641 303 653 q 349 623 336 629 q 383 608 363 617 q 458 580 404 600 q 526 554 511 560 q 660 476 614 522 q 735 292 735 401 z "},"ş":{"ha":626,"x_min":17,"x_max":596,"o":"m 596 211 q 515 44 596 110 q 432 1 476 15 l 333 -192 l 165 -192 l 279 -14 q 17 90 118 -7 l 100 222 q 201 163 142 188 q 303 139 261 139 q 397 197 397 139 q 388 221 397 210 q 360 241 378 232 q 328 255 342 250 q 294 266 315 260 q 272 272 274 272 q 175 304 213 288 q 58 483 58 356 q 133 640 58 581 q 318 699 207 699 q 581 614 478 699 l 508 483 q 426 529 476 508 q 336 550 375 550 q 254 500 254 550 q 354 433 254 463 q 451 401 413 417 q 540 350 507 381 q 596 211 596 294 z "},"Š":{"ha":767,"x_min":22,"x_max":735,"o":"m 489 1217 l 638 1217 l 519 1015 l 308 1015 l 189 1217 l 339 1217 l 414 1089 l 489 1217 m 735 292 q 622 63 735 150 q 363 -17 522 -17 q 22 128 178 -17 l 133 292 q 256 205 185 239 q 383 171 326 171 q 475 197 439 171 q 511 269 511 224 q 501 311 511 293 q 469 342 490 329 q 435 360 449 354 q 399 375 422 367 q 253 429 263 425 q 139 499 171 468 q 64 683 64 568 q 164 893 64 811 q 417 969 254 969 q 585 935 499 969 q 721 851 671 901 l 625 694 q 523 765 582 738 q 411 792 464 792 q 320 769 354 792 q 286 706 286 747 q 294 669 286 685 q 319 641 303 653 q 349 623 336 629 q 383 608 363 617 q 458 580 404 600 q 526 554 511 560 q 660 476 614 522 q 735 292 735 401 z "},"š":{"ha":626,"x_min":17,"x_max":596,"o":"m 393 958 l 543 958 l 424 757 l 213 757 l 94 958 l 243 958 l 318 829 l 393 958 m 596 211 q 515 44 596 110 q 306 -15 439 -15 q 17 90 128 -15 l 100 222 q 201 163 142 188 q 303 139 261 139 q 397 197 397 139 q 388 221 397 210 q 360 241 378 232 q 328 255 342 250 q 294 266 315 260 q 272 272 274 272 q 175 304 213 288 q 58 483 58 356 q 133 640 58 581 q 318 699 207 699 q 581 614 478 699 l 508 483 q 426 529 476 508 q 336 550 375 550 q 254 500 254 550 q 354 433 254 463 q 451 401 413 417 q 540 350 507 381 q 596 211 596 294 z "},"Ţ":{"ha":731,"x_min":6,"x_max":725,"o":"m 725 958 l 725 781 l 478 781 l 478 0 l 253 0 l 253 781 l 6 781 l 6 958 l 725 958 m 282 -69 l 496 -69 l 417 -264 l 235 -264 l 282 -69 z "},"ţ":{"ha":497,"x_min":10,"x_max":482,"o":"m 482 683 l 482 515 l 331 515 l 331 269 q 350 185 331 207 q 403 168 364 168 q 435 172 418 168 q 461 178 451 175 l 469 181 l 481 7 q 322 -15 392 -15 q 156 49 211 -15 q 107 250 107 106 l 107 515 l 10 515 l 10 683 l 107 683 l 107 869 l 331 869 l 331 683 l 482 683 m 193 -69 l 407 -69 l 328 -264 l 146 -264 l 193 -69 z "},"Ť":{"ha":731,"x_min":6,"x_max":725,"o":"m 725 958 l 725 781 l 478 781 l 478 0 l 253 0 l 253 781 l 6 781 l 6 958 l 725 958 m 440 1232 l 589 1232 l 471 1031 l 260 1031 l 140 1232 l 290 1232 l 365 1103 l 440 1232 z "},"ť":{"ha":497,"x_min":10,"x_max":715,"o":"m 482 683 l 482 515 l 331 515 l 331 269 q 350 185 331 207 q 403 168 364 168 q 435 172 418 168 q 461 178 451 175 l 469 181 l 481 7 q 322 -15 392 -15 q 156 49 211 -15 q 107 250 107 106 l 107 515 l 10 515 l 10 683 l 107 683 l 107 869 l 331 869 l 331 683 l 482 683 m 503 1110 l 715 1110 l 575 764 l 393 764 l 503 1110 z "},"Ŧ":{"ha":731,"x_min":6,"x_max":725,"o":"m 725 958 l 725 781 l 478 781 l 478 556 l 599 556 l 599 382 l 478 382 l 478 0 l 253 0 l 253 382 l 131 382 l 131 556 l 253 556 l 253 781 l 6 781 l 6 958 l 725 958 z "},"ŧ":{"ha":497,"x_min":10,"x_max":482,"o":"m 463 442 l 463 299 l 331 299 l 331 269 q 350 185 331 207 q 403 168 364 168 q 435 172 418 168 q 461 178 451 175 l 469 181 l 481 7 q 322 -15 392 -15 q 156 49 211 -15 q 107 250 107 106 l 107 299 l 22 299 l 22 442 l 107 442 l 107 515 l 10 515 l 10 683 l 107 683 l 107 869 l 331 869 l 331 683 l 482 683 l 482 515 l 331 515 l 331 442 l 463 442 z "},"Ũ":{"ha":964,"x_min":81,"x_max":883,"o":"m 638 1218 l 732 1204 q 683 1092 729 1139 q 575 1044 638 1044 q 468 1075 525 1044 q 452 1085 464 1078 q 432 1096 440 1092 q 412 1104 424 1100 q 389 1108 400 1108 q 326 1049 343 1108 l 231 1063 q 279 1175 232 1128 q 389 1222 326 1222 q 494 1192 442 1222 q 574 1158 550 1158 q 638 1218 622 1158 m 883 958 l 883 400 q 792 99 883 197 q 482 -15 686 -15 q 171 99 278 -15 q 81 400 81 199 l 81 958 l 307 958 l 307 400 q 344 240 307 286 q 482 181 394 181 q 619 240 569 181 q 657 400 657 286 l 657 958 l 883 958 z "},"ũ":{"ha":804,"x_min":69,"x_max":731,"o":"m 731 685 l 731 0 l 517 0 l 515 78 q 437 13 490 42 q 315 -15 383 -15 q 119 65 181 -15 q 69 271 69 136 l 69 685 l 292 685 l 292 301 q 393 168 292 168 q 479 209 450 168 q 508 321 508 250 l 508 685 l 731 685 m 558 944 l 653 931 q 604 818 650 865 q 496 771 558 771 q 389 801 446 771 q 373 811 385 804 q 353 822 361 818 q 333 831 344 826 q 310 835 321 835 q 247 775 264 835 l 151 789 q 200 901 153 854 q 310 949 247 949 q 415 918 361 949 q 494 885 471 885 q 558 944 543 885 z "},"Ū":{"ha":964,"x_min":81,"x_max":883,"o":"m 883 958 l 883 400 q 792 99 883 197 q 482 -15 686 -15 q 171 99 278 -15 q 81 400 81 199 l 81 958 l 307 958 l 307 400 q 344 240 307 286 q 482 181 394 181 q 619 240 569 181 q 657 400 657 286 l 657 958 l 883 958 m 701 1186 l 701 1079 l 261 1079 l 261 1186 l 701 1186 z "},"ū":{"ha":804,"x_min":69,"x_max":731,"o":"m 731 685 l 731 0 l 517 0 l 515 78 q 437 13 490 42 q 315 -15 383 -15 q 119 65 181 -15 q 69 271 69 136 l 69 685 l 292 685 l 292 301 q 393 168 292 168 q 479 209 450 168 q 508 321 508 250 l 508 685 l 731 685 m 622 913 l 622 806 l 182 806 l 182 913 l 622 913 z "},"Ŭ":{"ha":964,"x_min":81,"x_max":883,"o":"m 883 958 l 883 400 q 792 99 883 197 q 482 -15 686 -15 q 171 99 278 -15 q 81 400 81 199 l 81 958 l 307 958 l 307 400 q 344 240 307 286 q 482 181 394 181 q 619 240 569 181 q 657 400 657 286 l 657 958 l 883 958 m 621 1224 l 717 1224 q 642 1085 704 1132 q 482 1039 579 1039 q 322 1085 385 1039 q 246 1224 258 1132 l 343 1224 q 482 1144 369 1144 q 621 1224 594 1144 z "},"ŭ":{"ha":804,"x_min":69,"x_max":731,"o":"m 731 685 l 731 0 l 517 0 l 515 78 q 437 13 490 42 q 315 -15 383 -15 q 119 65 181 -15 q 69 271 69 136 l 69 685 l 292 685 l 292 301 q 393 168 292 168 q 479 209 450 168 q 508 321 508 250 l 508 685 l 731 685 m 542 950 l 638 950 q 563 812 625 858 q 403 765 500 765 q 242 812 306 765 q 167 950 179 858 l 264 950 q 403 871 290 871 q 542 950 515 871 z "},"Ů":{"ha":964,"x_min":81,"x_max":883,"o":"m 642 1167 q 596 1063 642 1101 q 482 1025 550 1025 q 368 1063 414 1025 q 322 1167 322 1101 q 368 1272 322 1233 q 482 1310 414 1310 q 596 1272 550 1310 q 642 1167 642 1233 m 533 1118 q 543 1127 533 1118 q 553 1167 553 1136 q 533 1216 553 1197 q 482 1235 514 1235 q 431 1216 450 1235 q 411 1167 411 1197 q 431 1118 411 1136 q 482 1100 450 1100 q 533 1118 514 1100 m 883 958 l 883 400 q 792 99 883 197 q 482 -15 686 -15 q 171 99 278 -15 q 81 400 81 199 l 81 958 l 307 958 l 307 400 q 344 240 307 286 q 482 181 394 181 q 619 240 569 181 q 657 400 657 286 l 657 958 l 883 958 z "},"ů":{"ha":804,"x_min":69,"x_max":731,"o":"m 561 893 q 515 790 561 828 q 401 751 469 751 q 288 790 333 751 q 242 893 242 828 q 288 998 242 960 q 401 1036 333 1036 q 515 998 469 1036 q 561 893 561 960 m 453 844 q 463 853 453 844 q 472 893 472 863 q 453 942 472 924 q 401 961 433 961 q 350 942 369 961 q 331 893 331 924 q 350 844 331 863 q 401 826 369 826 q 453 844 433 826 m 731 685 l 731 0 l 517 0 l 515 78 q 437 13 490 42 q 315 -15 383 -15 q 119 65 181 -15 q 69 271 69 136 l 69 685 l 292 685 l 292 301 q 393 168 292 168 q 479 209 450 168 q 508 321 508 250 l 508 685 l 731 685 z "},"Ű":{"ha":964,"x_min":81,"x_max":883,"o":"m 883 958 l 883 400 q 792 99 883 197 q 482 -15 686 -15 q 171 99 278 -15 q 81 400 81 199 l 81 958 l 307 958 l 307 400 q 344 240 307 286 q 482 181 394 181 q 619 240 569 181 q 657 400 657 286 l 657 958 l 883 958 m 632 1232 l 818 1232 l 672 1031 l 518 1031 l 632 1232 m 385 1232 l 569 1232 l 424 1031 l 269 1031 l 385 1232 z "},"ű":{"ha":804,"x_min":69,"x_max":731,"o":"m 731 685 l 731 0 l 517 0 l 515 78 q 437 13 490 42 q 315 -15 383 -15 q 119 65 181 -15 q 69 271 69 136 l 69 685 l 292 685 l 292 301 q 393 168 292 168 q 479 209 450 168 q 508 321 508 250 l 508 685 l 731 685 m 514 958 l 700 958 l 554 757 l 400 757 l 514 958 m 267 958 l 451 958 l 306 757 l 151 757 l 267 958 z "},"Ų":{"ha":964,"x_min":81,"x_max":883,"o":"m 658 -162 l 688 -219 q 665 -237 679 -226 q 607 -265 650 -247 q 525 -283 564 -283 q 408 -251 454 -283 q 363 -158 363 -219 q 444 -14 363 -74 q 171 99 264 -4 q 81 400 81 199 l 81 958 l 307 958 l 307 400 q 344 240 307 286 q 482 181 394 181 q 619 240 569 181 q 657 400 657 286 l 657 958 l 883 958 l 883 400 q 792 99 883 197 q 574 -8 711 13 q 488 -128 488 -64 q 511 -176 488 -161 q 565 -192 535 -192 q 658 -162 614 -192 z "},"ų":{"ha":804,"x_min":69,"x_max":739,"o":"m 710 -162 l 739 -219 q 716 -237 731 -226 q 658 -265 701 -247 q 576 -283 615 -283 q 460 -251 506 -283 q 414 -158 414 -219 q 517 0 414 -64 l 515 78 q 437 13 490 42 q 315 -15 383 -15 q 119 65 181 -15 q 69 271 69 136 l 69 685 l 292 685 l 292 301 q 393 168 292 168 q 479 209 450 168 q 508 321 508 250 l 508 685 l 731 685 l 731 0 q 588 -41 638 0 q 539 -128 539 -82 q 563 -176 539 -161 q 617 -192 586 -192 q 710 -162 665 -192 z "},"Ŵ":{"ha":1364,"x_min":-4,"x_max":1368,"o":"m 1133 958 l 1368 958 l 1090 0 l 864 0 l 682 657 l 500 0 l 274 0 l -4 958 l 231 958 l 397 313 l 569 958 l 794 958 l 968 313 l 1133 958 m 788 1232 l 906 1031 l 757 1031 l 682 1158 l 607 1031 l 457 1031 l 576 1232 l 788 1232 z "},"ŵ":{"ha":1143,"x_min":3,"x_max":1140,"o":"m 915 685 l 1140 685 l 915 0 l 706 0 l 572 419 l 438 0 l 228 0 l 3 685 l 228 685 l 349 247 l 481 685 l 663 685 l 794 247 l 915 685 m 678 958 l 796 757 l 647 757 l 572 885 l 497 757 l 347 757 l 467 958 l 678 958 z "},"Ŷ":{"ha":861,"x_min":-15,"x_max":876,"o":"m 626 958 l 876 958 l 543 388 l 543 0 l 318 0 l 318 388 l -15 958 l 235 958 l 431 576 l 626 958 m 536 1232 l 654 1031 l 506 1031 l 431 1158 l 356 1031 l 206 1031 l 325 1232 l 536 1232 z "},"ŷ":{"ha":756,"x_min":-6,"x_max":765,"o":"m 536 685 l 765 685 l 460 -65 q 369 -214 418 -165 q 238 -262 319 -262 q 138 -254 186 -262 q 69 -237 90 -246 l 47 -229 l 92 -65 q 174 -83 140 -83 q 199 -82 190 -83 q 219 -70 207 -81 q 240 -39 232 -60 l 265 21 l -6 685 l 226 685 l 382 244 l 536 685 m 483 958 l 601 757 l 453 757 l 378 885 l 303 757 l 153 757 l 272 958 l 483 958 z "},"Ÿ":{"ha":861,"x_min":-15,"x_max":876,"o":"m 623 1184 q 636 1171 623 1184 q 650 1117 650 1158 q 623 1049 650 1075 q 556 1024 596 1024 q 489 1049 515 1024 q 463 1117 463 1075 q 489 1184 463 1158 q 556 1210 515 1210 q 623 1184 596 1210 m 372 1184 q 385 1171 372 1184 q 399 1117 399 1158 q 372 1049 399 1075 q 306 1024 346 1024 q 238 1049 265 1024 q 211 1117 211 1075 q 238 1184 211 1158 q 306 1210 265 1210 q 372 1184 346 1210 m 626 958 l 876 958 l 543 388 l 543 0 l 318 0 l 318 388 l -15 958 l 235 958 l 431 576 l 626 958 z "},"Ź":{"ha":851,"x_min":42,"x_max":817,"o":"m 817 186 l 817 0 l 42 0 l 42 163 l 511 776 l 56 776 l 56 958 l 801 958 l 801 806 l 328 186 l 817 186 m 421 1232 l 611 1232 l 468 1031 l 311 1031 l 421 1232 z "},"ź":{"ha":689,"x_min":22,"x_max":667,"o":"m 667 176 l 667 0 l 22 0 l 22 128 l 368 515 l 38 515 l 38 683 l 650 683 l 650 560 l 308 176 l 667 176 m 331 958 l 521 958 l 378 757 l 221 757 l 331 958 z "},"Ż":{"ha":851,"x_min":42,"x_max":817,"o":"m 817 186 l 817 0 l 42 0 l 42 163 l 511 776 l 56 776 l 56 958 l 801 958 l 801 806 l 328 186 l 817 186 m 492 1200 q 506 1187 492 1200 q 519 1133 519 1174 q 492 1066 519 1093 q 425 1039 464 1039 q 358 1066 385 1039 q 331 1133 331 1093 q 358 1200 331 1174 q 425 1226 385 1226 q 492 1200 464 1226 z "},"ż":{"ha":689,"x_min":22,"x_max":667,"o":"m 667 176 l 667 0 l 22 0 l 22 128 l 368 515 l 38 515 l 38 683 l 650 683 l 650 560 l 308 176 l 667 176 m 411 926 q 425 913 411 926 q 439 860 439 900 q 411 792 439 819 q 344 765 383 765 q 277 792 304 765 q 250 860 250 819 q 277 926 250 900 q 344 953 304 953 q 411 926 383 953 z "},"Ž":{"ha":851,"x_min":42,"x_max":817,"o":"m 504 1217 l 653 1217 l 535 1015 l 324 1015 l 204 1217 l 354 1217 l 429 1089 l 504 1217 m 817 186 l 817 0 l 42 0 l 42 163 l 511 776 l 56 776 l 56 958 l 801 958 l 801 806 l 328 186 l 817 186 z "},"ž":{"ha":689,"x_min":22,"x_max":667,"o":"m 667 176 l 667 0 l 22 0 l 22 128 l 368 515 l 38 515 l 38 683 l 650 683 l 650 560 l 308 176 l 667 176 m 419 958 l 568 958 l 450 757 l 239 757 l 119 958 l 269 958 l 344 829 l 419 958 z "},"ƒ":{"ha":869,"x_min":61,"x_max":804,"o":"m 804 964 l 754 810 q 676 833 719 833 q 620 806 639 833 q 590 724 601 778 l 569 613 l 718 613 l 690 463 l 542 463 l 471 81 q 384 -114 446 -49 q 196 -179 322 -179 q 133 -172 165 -179 q 84 -156 101 -164 q 61 -144 67 -149 l 115 15 q 188 0 146 0 q 264 69 240 0 q 288 171 268 83 l 343 463 l 213 463 l 240 613 l 371 613 l 394 742 q 432 871 413 833 q 513 972 469 942 q 636 1007 565 1007 q 804 964 718 1007 z "},"Ǽ":{"ha":1288,"x_min":-53,"x_max":1238,"o":"m 1238 182 l 1238 0 l 644 0 l 644 194 l 310 194 l 200 0 l -53 0 l 526 958 l 1225 958 l 1225 779 l 868 779 l 868 586 l 1203 586 l 1203 407 l 868 407 l 868 182 l 1238 182 m 408 369 l 644 369 l 644 782 l 640 782 l 408 369 m 850 1232 l 1040 1232 l 897 1031 l 740 1031 l 850 1232 z "},"ǽ":{"ha":1201,"x_min":26,"x_max":1172,"o":"m 1172 363 l 1168 289 l 681 289 q 735 183 686 221 q 856 146 785 146 q 1061 211 965 146 l 1149 96 q 1135 85 1147 96 q 1111 66 1122 74 q 1079 45 1100 58 q 1033 23 1058 32 q 978 4 1008 14 q 908 -10 947 -6 q 825 -15 868 -15 q 550 97 649 -15 q 430 11 490 38 q 276 -15 369 -15 q 99 41 171 -15 q 26 203 26 97 q 50 300 26 258 q 114 365 74 342 q 199 399 154 388 q 296 413 243 410 l 465 419 l 465 436 q 429 517 465 489 q 325 544 393 544 q 115 483 211 544 l 57 628 q 350 697 196 697 q 540 656 474 697 q 593 610 560 643 q 829 697 678 697 q 1076 604 981 697 q 1172 363 1172 511 m 682 415 l 964 415 q 926 510 963 468 q 825 553 889 553 q 723 511 760 553 q 682 415 686 469 m 486 196 q 464 301 464 251 l 358 296 q 249 211 249 289 q 277 149 249 172 q 351 126 306 126 q 432 149 393 126 q 486 196 471 171 m 601 958 l 792 958 l 649 757 l 492 757 l 601 958 z "},"Ǿ":{"ha":1094,"x_min":39,"x_max":1056,"o":"m 579 1217 l 768 1217 l 626 1015 l 468 1015 l 579 1217 m 1056 478 q 911 117 1056 251 q 547 -17 767 -17 q 243 71 371 -17 l 140 -33 l 40 64 l 140 165 q 39 478 39 293 q 183 839 39 704 q 547 974 328 974 q 851 886 724 974 l 956 992 l 1056 894 l 954 792 q 1056 478 1056 664 m 301 328 l 704 738 q 547 782 636 782 q 346 700 425 782 q 267 483 267 618 q 301 328 267 397 m 828 483 q 796 632 828 565 l 396 225 q 547 183 464 183 q 749 266 669 183 q 828 483 828 349 z "},"ǿ":{"ha":828,"x_min":31,"x_max":794,"o":"m 431 958 l 621 958 l 479 757 l 321 757 l 431 958 m 710 714 l 794 632 l 722 561 q 793 340 793 468 q 686 81 793 178 q 414 -15 579 -15 q 192 43 286 -15 l 115 -31 l 31 51 l 103 122 q 33 340 33 217 q 141 600 33 503 q 414 697 249 697 q 633 640 538 697 l 710 714 m 265 275 l 497 503 q 414 526 463 526 q 298 476 342 526 q 254 344 254 425 q 265 275 254 308 m 575 344 q 564 411 575 381 l 333 185 q 414 163 369 163 q 531 213 488 163 q 575 344 575 264 z "},"ȷ":{"ha":375,"x_min":-65,"x_max":299,"o":"m 299 685 l 299 17 q 242 -189 299 -126 q 51 -265 172 -265 q -11 -262 18 -265 q -53 -256 -40 -258 l -65 -253 l -61 -81 q 1 -89 -33 -89 q 60 -60 44 -89 q 76 28 76 -32 l 76 685 l 299 685 z "},"ˆ":{"ha":579,"x_min":65,"x_max":514,"o":"m 396 958 l 514 757 l 365 757 l 290 885 l 215 757 l 65 757 l 185 958 l 396 958 z "},"ˇ":{"ha":579,"x_min":65,"x_max":514,"o":"m 365 958 l 514 958 l 396 757 l 185 757 l 65 958 l 215 958 l 290 829 l 365 958 z "},"˘":{"ha":579,"x_min":54,"x_max":525,"o":"m 429 950 l 525 950 q 450 812 513 858 q 290 765 388 765 q 130 812 193 765 q 54 950 67 858 l 151 950 q 290 871 178 871 q 429 950 403 871 z "},"˙":{"ha":579,"x_min":196,"x_max":385,"o":"m 357 926 q 371 913 357 926 q 385 860 385 900 q 357 792 385 819 q 290 765 329 765 q 223 792 250 765 q 196 860 196 819 q 223 926 196 900 q 290 953 250 953 q 357 926 329 953 z "},"˚":{"ha":579,"x_min":131,"x_max":450,"o":"m 450 893 q 404 790 450 828 q 290 751 358 751 q 176 790 222 751 q 131 893 131 828 q 176 998 131 960 q 290 1036 222 1036 q 404 998 358 1036 q 450 893 450 960 m 342 844 q 351 853 342 844 q 361 893 361 863 q 342 942 361 924 q 290 961 322 961 q 239 942 258 961 q 219 893 219 924 q 239 844 219 863 q 290 826 258 826 q 342 844 322 826 z "},"˛":{"ha":579,"x_min":128,"x_max":453,"o":"m 424 -162 l 453 -219 q 430 -237 444 -226 q 372 -265 415 -247 q 290 -283 329 -283 q 174 -251 219 -283 q 128 -158 128 -219 q 242 7 128 -61 l 354 7 l 354 0 q 283 -58 314 -22 q 253 -128 253 -93 q 276 -176 253 -161 q 331 -192 300 -192 q 424 -162 381 -192 z "},"˜":{"ha":579,"x_min":39,"x_max":540,"o":"m 446 944 l 540 931 q 492 818 538 865 q 383 771 446 771 q 276 801 333 771 q 260 811 272 804 q 240 822 249 818 q 220 831 232 826 q 197 835 208 835 q 135 775 151 835 l 39 789 q 88 901 40 854 q 197 949 135 949 q 303 918 250 949 q 382 885 358 885 q 446 944 431 885 z "},"˝":{"ha":579,"x_min":15,"x_max":564,"o":"m 378 958 l 564 958 l 418 757 l 264 757 l 378 958 m 131 958 l 315 958 l 169 757 l 15 757 l 131 958 z "},"Ẁ":{"ha":1364,"x_min":-4,"x_max":1368,"o":"m 1133 958 l 1368 958 l 1090 0 l 864 0 l 682 657 l 500 0 l 274 0 l -4 958 l 231 958 l 397 313 l 569 958 l 794 958 l 968 313 l 1133 958 m 721 1232 l 832 1031 l 674 1031 l 532 1232 l 721 1232 z "},"ẁ":{"ha":1143,"x_min":3,"x_max":1140,"o":"m 915 685 l 1140 685 l 915 0 l 706 0 l 572 419 l 438 0 l 228 0 l 3 685 l 228 685 l 349 247 l 481 685 l 663 685 l 794 247 l 915 685 m 610 958 l 721 757 l 563 757 l 421 958 l 610 958 z "},"Ẃ":{"ha":1364,"x_min":-4,"x_max":1368,"o":"m 1133 958 l 1368 958 l 1090 0 l 864 0 l 682 657 l 500 0 l 274 0 l -4 958 l 231 958 l 397 313 l 569 958 l 794 958 l 968 313 l 1133 958 m 642 1232 l 832 1232 l 689 1031 l 532 1031 l 642 1232 z "},"ẃ":{"ha":1143,"x_min":3,"x_max":1140,"o":"m 915 685 l 1140 685 l 915 0 l 706 0 l 572 419 l 438 0 l 228 0 l 3 685 l 228 685 l 349 247 l 481 685 l 663 685 l 794 247 l 915 685 m 531 958 l 721 958 l 578 757 l 421 757 l 531 958 z "},"Ẅ":{"ha":1364,"x_min":-4,"x_max":1368,"o":"m 1133 958 l 1368 958 l 1090 0 l 864 0 l 682 657 l 500 0 l 274 0 l -4 958 l 231 958 l 397 313 l 569 958 l 794 958 l 968 313 l 1133 958 m 875 1198 q 888 1185 875 1198 q 901 1131 901 1172 q 875 1064 901 1089 q 808 1039 849 1039 q 741 1065 768 1039 q 714 1131 714 1090 q 741 1198 714 1172 q 808 1224 768 1224 q 875 1198 849 1224 m 622 1198 q 635 1185 622 1198 q 649 1131 649 1172 q 622 1064 649 1089 q 556 1039 596 1039 q 488 1065 515 1039 q 461 1131 461 1090 q 488 1198 461 1172 q 556 1224 515 1224 q 622 1198 596 1224 z "},"ẅ":{"ha":1143,"x_min":3,"x_max":1140,"o":"m 915 685 l 1140 685 l 915 0 l 706 0 l 572 419 l 438 0 l 228 0 l 3 685 l 228 685 l 349 247 l 481 685 l 663 685 l 794 247 l 915 685 m 765 924 q 778 911 765 924 q 792 857 792 899 q 765 790 792 815 q 699 765 739 765 q 631 791 658 765 q 604 857 604 817 q 631 924 604 899 q 699 950 658 950 q 765 924 739 950 m 513 924 q 526 911 513 924 q 539 857 539 899 q 513 790 539 815 q 446 765 486 765 q 378 791 406 765 q 351 857 351 817 q 378 924 351 899 q 446 950 406 950 q 513 924 486 950 z "},"Ỳ":{"ha":861,"x_min":-15,"x_max":876,"o":"m 626 958 l 876 958 l 543 388 l 543 0 l 318 0 l 318 388 l -15 958 l 235 958 l 431 576 l 626 958 m 428 1232 l 539 1031 l 381 1031 l 239 1232 l 428 1232 z "},"ỳ":{"ha":756,"x_min":-6,"x_max":765,"o":"m 536 685 l 765 685 l 460 -65 q 369 -214 418 -165 q 238 -262 319 -262 q 138 -254 186 -262 q 69 -237 90 -246 l 47 -229 l 92 -65 q 174 -83 140 -83 q 199 -82 190 -83 q 219 -70 207 -81 q 240 -39 232 -60 l 265 21 l -6 685 l 226 685 l 382 244 l 536 685 m 375 958 l 486 757 l 328 757 l 186 958 l 375 958 z "},"–":{"ha":668,"x_min":0,"x_max":668,"o":"m 668 456 l 668 289 l 0 289 l 0 456 l 668 456 z "},"—":{"ha":1285,"x_min":22,"x_max":1263,"o":"m 1263 456 l 1263 289 l 22 289 l 22 456 l 1263 456 z "},"‘":{"ha":492,"x_min":92,"x_max":415,"o":"m 233 958 l 415 958 l 306 613 l 92 613 l 233 958 z "},"’":{"ha":492,"x_min":76,"x_max":399,"o":"m 186 958 l 399 958 l 258 613 l 76 613 l 186 958 z "},"‚":{"ha":492,"x_min":76,"x_max":399,"o":"m 186 182 l 399 182 l 258 -164 l 76 -164 l 186 182 z "},"“":{"ha":790,"x_min":96,"x_max":710,"o":"m 538 958 l 710 958 l 600 613 l 396 613 l 538 958 m 238 958 l 411 958 l 301 613 l 96 613 l 238 958 z "},"”":{"ha":790,"x_min":81,"x_max":694,"o":"m 489 958 l 694 958 l 553 613 l 381 613 l 489 958 m 190 958 l 394 958 l 253 613 l 81 613 l 190 958 z "},"„":{"ha":790,"x_min":81,"x_max":694,"o":"m 489 182 l 694 182 l 553 -164 l 381 -164 l 489 182 m 190 182 l 394 182 l 253 -164 l 81 -164 l 190 182 z "},"†":{"ha":921,"x_min":99,"x_max":822,"o":"m 822 683 l 822 519 l 550 519 l 550 -217 l 371 -217 l 371 519 l 99 519 l 99 683 l 371 683 l 371 1011 l 550 1011 l 550 683 l 822 683 z "},"‡":{"ha":921,"x_min":99,"x_max":822,"o":"m 822 258 l 822 94 l 550 94 l 550 -217 l 371 -217 l 371 94 l 99 94 l 99 258 l 371 258 l 371 538 l 99 538 l 99 701 l 371 701 l 371 1011 l 550 1011 l 550 701 l 822 701 l 822 538 l 550 538 l 550 258 l 822 258 z "},"•":{"ha":838,"x_min":188,"x_max":650,"o":"m 582 670 q 616 636 582 670 q 650 507 650 601 q 582 344 650 413 q 419 275 514 275 q 256 344 325 275 q 188 507 188 413 q 256 670 188 601 q 419 739 325 739 q 582 670 514 739 z "},"…":{"ha":1350,"x_min":108,"x_max":1242,"o":"m 1206 190 q 1224 174 1206 190 q 1242 104 1242 158 q 1206 19 1242 50 q 1113 -12 1169 -12 q 1019 19 1054 -12 q 983 104 983 50 q 1019 190 983 158 q 1113 222 1054 222 q 1206 190 1169 222 m 769 190 q 786 174 769 190 q 804 104 804 158 q 769 19 804 50 q 675 -12 733 -12 q 581 19 617 -12 q 546 104 546 50 q 581 190 546 158 q 675 222 617 222 q 769 190 733 222 m 331 190 q 349 174 331 190 q 367 104 367 158 q 331 19 367 50 q 238 -12 296 -12 q 144 19 179 -12 q 108 104 108 50 q 144 190 108 158 q 238 222 179 222 q 331 190 296 222 z "},"‰":{"ha":1749,"x_min":57,"x_max":1690,"o":"m 1621 410 q 1656 376 1621 410 q 1690 231 1690 342 q 1621 51 1690 119 q 1442 -18 1551 -18 q 1263 51 1332 -18 q 1193 231 1193 119 q 1263 410 1193 342 q 1442 479 1332 479 q 1621 410 1551 479 m 1074 410 q 1108 376 1074 410 q 1143 231 1143 342 q 1074 51 1143 119 q 894 -18 1004 -18 q 715 51 785 -18 q 646 231 646 119 q 715 410 646 342 q 894 479 785 479 q 1074 410 1004 479 m 851 983 l 946 926 l 350 -33 l 254 24 l 851 983 m 554 719 q 485 538 554 607 q 306 469 415 469 q 126 539 196 469 q 57 719 57 608 q 126 899 57 831 q 306 968 196 968 q 485 899 415 968 q 554 719 554 831 m 1519 146 q 1533 163 1519 146 q 1547 233 1547 179 q 1519 320 1547 288 q 1442 353 1492 353 q 1367 320 1393 353 q 1340 233 1340 288 q 1367 146 1340 179 q 1442 113 1393 113 q 1519 146 1492 113 m 972 146 q 985 163 972 146 q 999 233 999 179 q 972 320 999 288 q 894 353 944 353 q 819 320 846 353 q 792 233 792 288 q 819 146 792 179 q 894 113 846 113 q 972 146 944 113 m 383 633 q 397 650 383 633 q 411 721 411 667 q 383 808 411 775 q 306 842 356 842 q 231 808 257 842 q 204 721 204 775 q 231 633 204 667 q 306 600 257 600 q 383 633 356 600 z "},"‹":{"ha":508,"x_min":86,"x_max":418,"o":"m 254 342 l 418 118 l 308 42 l 86 342 l 308 643 l 418 565 l 254 342 z "},"›":{"ha":508,"x_min":90,"x_max":422,"o":"m 200 643 l 422 342 l 200 42 l 90 119 l 254 342 l 90 567 l 200 643 z "},"⁄":{"ha":381,"x_min":-164,"x_max":544,"o":"m 450 1015 l 544 957 l -69 -36 l -164 21 l 450 1015 z "},"€":{"ha":869,"x_min":69,"x_max":826,"o":"m 760 249 l 826 90 l 818 82 q 803 67 810 74 q 781 51 796 61 q 752 32 767 40 q 715 15 738 24 q 667 -1 692 6 q 610 -11 643 -7 q 543 -15 578 -15 q 294 69 394 -15 q 158 317 194 153 l 69 317 l 69 446 l 140 446 q 139 486 139 467 l 139 524 l 69 524 l 69 651 l 161 651 q 301 892 193 804 q 549 972 399 972 q 797 908 699 972 l 746 732 q 563 801 672 801 q 388 651 414 801 l 654 651 l 654 524 l 363 524 q 361 486 361 503 l 363 446 l 654 446 l 654 317 l 388 317 q 443 206 397 246 q 561 165 489 165 q 760 249 663 165 z "},"™":{"ha":1232,"x_min":65,"x_max":1151,"o":"m 1114 958 l 1151 390 l 1031 390 l 1008 799 l 1006 799 l 883 390 l 783 390 l 663 799 l 658 799 l 638 390 l 515 390 l 554 958 l 717 958 l 832 567 l 836 567 l 951 958 l 1114 958 m 486 958 l 486 858 l 336 858 l 336 390 l 217 390 l 217 858 l 65 858 l 65 958 l 486 958 z "},"∏":{"ha":1213,"x_min":69,"x_max":1143,"o":"m 1143 429 l 1143 276 l 1008 276 q 890 114 969 181 q 521 0 756 0 l 196 0 l 196 276 l 69 276 l 69 429 l 196 429 l 196 536 l 69 536 l 69 689 l 196 689 l 196 958 l 521 958 q 890 843 753 958 q 1006 689 968 776 l 1143 689 l 1143 536 l 1043 536 q 1046 479 1046 500 q 1043 429 1046 460 l 1143 429 m 818 479 q 814 536 818 508 l 419 536 l 419 429 l 815 429 q 818 479 818 460 m 419 190 l 533 190 q 733 260 661 190 q 750 276 742 267 l 419 276 l 419 190 m 747 689 l 733 704 q 533 772 660 772 l 419 772 l 419 689 l 747 689 z "},"−":{"ha":974,"x_min":106,"x_max":868,"o":"m 868 560 l 868 399 l 106 399 l 106 560 l 868 560 z "},"≠":{"ha":974,"x_min":106,"x_max":868,"o":"m 868 407 l 868 244 l 525 244 l 492 86 l 325 86 l 358 244 l 106 244 l 106 407 l 389 407 l 418 551 l 106 551 l 106 714 l 449 714 l 482 872 l 649 872 l 615 714 l 868 714 l 868 551 l 585 551 l 556 407 l 868 407 z "},"≤":{"ha":1367,"x_min":65,"x_max":1367,"o":"m 552 22 q 541 10 552 22 q 497 -1 529 -1 q 442 22 465 -1 q 419 76 419 44 q 442 131 419 108 q 497 154 465 154 q 552 131 529 154 q 575 76 575 108 q 552 22 575 44 m 434 181 q 423 170 434 181 q 379 158 411 158 q 324 181 347 158 q 301 236 301 204 q 324 291 301 268 q 379 314 347 314 q 434 291 411 314 q 457 236 457 268 q 434 181 457 204 m 316 341 q 305 330 316 341 q 261 318 293 318 q 206 341 229 318 q 183 396 183 364 q 206 451 183 428 q 261 474 229 474 q 316 451 293 474 q 339 396 339 428 q 316 341 339 364 m 442 1090 q 454 1101 442 1090 q 497 1113 465 1113 q 552 1090 529 1113 q 575 1035 575 1067 q 552 980 575 1003 q 497 957 529 957 q 442 980 465 957 q 419 1035 419 1003 q 442 1090 419 1067 m 324 930 q 336 941 324 930 q 379 953 347 953 q 434 930 411 953 q 457 875 457 907 q 434 820 457 843 q 379 797 411 797 q 324 820 347 797 q 301 875 301 843 q 324 930 301 907 m 206 770 q 218 782 206 770 q 261 793 229 793 q 316 770 293 793 q 339 715 339 747 q 316 660 339 683 q 261 638 293 638 q 206 660 229 638 q 183 715 183 683 q 206 770 183 747 m 1234 610 q 1245 622 1234 610 q 1289 633 1257 633 q 1344 610 1321 633 q 1367 556 1367 588 q 1344 501 1367 524 q 1289 478 1321 478 q 1234 501 1257 478 q 1211 556 1211 524 q 1234 610 1211 588 m 1005 610 q 1016 622 1005 610 q 1060 633 1028 633 q 1115 610 1092 633 q 1138 556 1138 588 q 1115 501 1138 524 q 1060 478 1092 478 q 1005 501 1028 478 q 982 556 982 524 q 1005 610 982 588 m 317 610 q 329 622 317 610 q 372 633 340 633 q 427 610 404 633 q 450 556 450 588 q 427 501 450 524 q 372 478 404 478 q 317 501 340 478 q 294 556 294 524 q 317 610 294 588 m 88 610 q 100 622 88 610 q 143 633 111 633 q 198 610 175 633 q 221 556 221 588 q 198 501 221 524 q 143 478 175 478 q 88 501 111 478 q 65 556 65 524 q 88 610 65 588 m 547 610 q 558 622 547 610 q 601 633 569 633 q 656 610 633 633 q 679 556 679 588 q 656 501 679 524 q 601 478 633 478 q 547 501 569 478 q 524 556 524 524 q 547 610 524 588 m 776 610 q 787 622 776 610 q 831 633 799 633 q 885 610 863 633 q 908 556 908 588 q 885 501 908 524 q 831 478 863 478 q 776 501 799 478 q 753 556 753 524 q 776 610 753 588 z "},"≥":{"ha":1367,"x_min":0,"x_max":1301,"o":"m 481 610 q 493 622 481 610 q 536 633 504 633 q 591 610 568 633 q 614 556 614 588 q 591 501 614 524 q 536 478 568 478 q 481 501 504 478 q 458 556 458 524 q 481 610 458 588 m 710 610 q 722 622 710 610 q 765 633 733 633 q 820 610 797 633 q 843 556 843 588 q 820 501 843 524 q 765 478 797 478 q 710 501 733 478 q 688 556 688 524 q 710 610 688 588 m 1169 610 q 1180 622 1169 610 q 1224 633 1192 633 q 1278 610 1256 633 q 1301 556 1301 588 q 1278 501 1301 524 q 1224 478 1256 478 q 1169 501 1192 478 q 1146 556 1146 524 q 1169 610 1146 588 m 940 610 q 951 622 940 610 q 994 633 963 633 q 1049 610 1026 633 q 1072 556 1072 588 q 1049 501 1072 524 q 994 478 1026 478 q 940 501 963 478 q 917 556 917 524 q 940 610 917 588 m 252 610 q 264 622 252 610 q 307 633 275 633 q 362 610 339 633 q 385 556 385 588 q 362 501 385 524 q 307 478 339 478 q 252 501 275 478 q 229 556 229 524 q 252 610 229 588 m 23 610 q 34 622 23 610 q 78 633 46 633 q 133 610 110 633 q 156 556 156 588 q 133 501 156 524 q 78 478 110 478 q 23 501 46 478 q 0 556 0 524 q 23 610 0 588 m 1051 770 q 1062 782 1051 770 q 1106 793 1074 793 q 1160 770 1138 793 q 1183 715 1183 747 q 1160 660 1183 683 q 1106 638 1138 638 q 1051 660 1074 638 q 1028 715 1028 683 q 1051 770 1028 747 m 933 930 q 944 941 933 930 q 988 953 956 953 q 1042 930 1019 953 q 1065 875 1065 907 q 1042 820 1065 843 q 988 797 1019 797 q 933 820 956 797 q 910 875 910 843 q 933 930 910 907 m 815 1090 q 826 1101 815 1090 q 869 1113 838 1113 q 924 1090 901 1113 q 947 1035 947 1067 q 924 980 947 1003 q 869 957 901 957 q 815 980 838 957 q 792 1035 792 1003 q 815 1090 792 1067 m 1160 341 q 1149 330 1160 341 q 1106 318 1138 318 q 1051 341 1074 318 q 1028 396 1028 364 q 1051 451 1028 428 q 1106 474 1074 474 q 1160 451 1138 474 q 1183 396 1183 428 q 1160 341 1183 364 m 1042 181 q 1031 170 1042 181 q 988 158 1019 158 q 933 181 956 158 q 910 236 910 204 q 933 291 910 268 q 988 314 956 314 q 1042 291 1019 314 q 1065 236 1065 268 q 1042 181 1065 204 m 924 22 q 913 10 924 22 q 869 -1 901 -1 q 815 22 838 -1 q 792 76 792 44 q 815 131 792 108 q 869 154 838 154 q 924 131 901 154 q 947 76 947 108 q 924 22 947 44 z "},"":{"ha":453,"x_min":97,"x_max":358,"o":"m 144 -69 l 358 -69 l 279 -264 l 97 -264 l 144 -69 z "},"":{"ha":1999,"x_min":31,"x_max":1972,"o":"m 874 -86 l 864 -86 q 899 -24 899 -57 q 858 33 899 25 q 865 -39 865 -8 q 821 -119 865 -92 q 721 -147 776 -147 q 656 -127 685 -147 q 628 -72 628 -107 q 649 -27 628 -40 q 692 -14 671 -14 q 710 -15 704 -14 q 772 40 729 22 l 772 44 q 768 76 768 54 q 692 19 740 19 q 647 48 665 19 q 629 118 629 76 q 654 210 629 147 q 679 293 679 274 q 667 325 679 325 q 637 308 651 325 q 621 283 622 292 q 574 210 621 235 q 413 13 574 13 q 333 35 365 13 q 301 103 301 57 q 318 156 301 132 q 361 179 335 179 q 396 139 396 179 q 381 87 396 110 q 339 64 365 64 q 327 67 335 64 q 317 71 319 71 q 335 42 321 54 q 363 31 349 31 q 403 45 385 31 q 433 91 421 60 q 453 145 446 122 q 469 210 460 168 q 421 253 439 222 q 401 249 408 249 q 324 329 324 249 q 368 441 324 392 q 475 490 413 490 q 563 473 525 490 q 613 456 601 456 q 635 458 621 456 l 635 453 q 507 365 557 435 q 485 408 504 392 q 438 424 465 424 q 366 390 397 424 q 335 314 335 356 q 397 256 335 256 q 417 260 408 256 q 410 299 410 274 q 424 346 410 326 q 454 365 439 365 q 478 338 478 365 q 463 293 478 315 q 428 258 449 271 q 471 219 439 233 q 536 365 494 314 q 580 406 551 383 q 633 431 608 428 l 633 424 q 568 272 568 393 q 571 219 568 258 q 615 283 615 243 q 599 336 615 317 l 599 338 q 619 296 617 329 q 688 340 643 340 q 736 310 719 340 q 753 238 753 281 q 728 158 753 222 q 704 65 704 94 q 717 42 704 42 q 747 63 733 42 q 772 121 761 83 q 790 193 782 158 q 806 273 797 228 q 819 338 815 318 q 856 326 842 326 q 903 349 871 326 q 885 269 900 332 q 863 160 871 207 q 854 79 854 113 l 854 69 l 856 50 q 907 -19 907 39 q 874 -86 907 -58 m 1935 125 l 1778 94 l 1789 39 l 1692 117 q 1603 -19 1657 38 q 1660 -29 1626 -29 q 1761 28 1733 -29 l 1764 28 q 1728 -24 1758 -4 q 1665 -43 1699 -43 q 1592 -29 1631 -43 q 1435 -111 1513 -111 q 1354 21 1354 -111 q 1346 19 1353 19 q 1272 59 1303 19 q 1240 171 1240 99 q 1297 280 1240 219 q 1417 340 1354 340 q 1456 323 1440 340 q 1472 268 1472 306 q 1427 186 1472 221 q 1332 146 1382 151 q 1318 54 1318 76 q 1346 31 1318 31 q 1354 32 1351 31 l 1354 33 q 1381 122 1354 76 q 1447 167 1408 167 q 1465 139 1465 167 q 1433 65 1465 104 q 1364 22 1400 26 q 1442 -99 1364 -99 q 1578 -24 1503 -99 q 1490 110 1490 18 q 1510 175 1490 144 q 1564 213 1531 206 l 1564 208 q 1515 171 1532 200 q 1499 106 1499 142 q 1588 -14 1499 25 q 1671 128 1649 54 l 1546 165 l 1600 188 l 1528 336 l 1586 318 l 1574 406 l 1631 343 l 1664 392 l 1697 283 l 1744 432 l 1768 393 l 1854 444 l 1854 346 l 1907 346 l 1793 233 l 1906 265 l 1888 207 l 1972 199 l 1890 160 l 1935 125 m 1107 -6 l 1107 -11 q 1086 -18 1096 -11 q 1076 -36 1076 -25 q 1085 -57 1076 -49 q 1107 -65 1094 -65 q 1176 -24 1147 -65 q 1206 58 1206 18 q 1190 107 1206 82 q 1093 19 1149 19 q 1051 78 1051 19 q 1072 138 1051 115 q 1113 164 1092 160 q 1128 315 1128 261 q 1115 326 1128 326 q 1098 318 1108 326 q 1078 289 1088 310 q 1068 240 1068 268 q 1036 49 1068 211 q 999 -132 1004 -114 q 963 -121 976 -121 q 917 -143 950 -121 q 940 -18 919 -128 q 978 192 961 92 q 996 308 996 292 q 978 360 996 340 q 941 391 961 379 q 903 444 921 403 q 886 554 886 485 q 912 674 886 592 q 938 797 938 757 q 928 821 938 821 q 895 797 915 821 q 861 738 875 774 q 849 667 858 719 q 830 566 839 615 q 819 513 821 517 q 783 525 794 525 q 740 511 758 525 q 756 596 743 525 q 777 725 768 667 q 786 800 786 783 q 776 819 786 819 q 735 761 758 819 l 724 761 q 737 797 731 783 q 758 822 743 810 q 794 833 774 833 q 860 771 850 833 q 870 787 863 775 q 883 805 878 799 q 896 819 888 811 q 914 831 904 828 q 935 835 924 835 q 985 797 967 835 q 1004 708 1004 758 q 976 571 1004 653 q 949 450 949 489 q 965 389 949 410 q 1001 363 981 368 q 1040 340 1021 358 q 1064 288 1058 321 q 1128 340 1096 340 q 1188 292 1165 340 q 1211 203 1211 244 q 1193 118 1211 160 q 1214 54 1214 88 q 1186 -35 1214 6 q 1111 -75 1158 -75 q 1081 -64 1093 -75 q 1068 -36 1068 -53 q 1077 -15 1068 -24 q 1099 -6 1086 -6 l 1107 -6 m 238 357 l 232 357 l 236 361 q 265 373 249 361 q 282 401 282 385 l 282 408 q 228 399 257 399 q 166 410 199 399 q 133 446 133 422 q 153 471 133 463 q 190 479 172 479 q 245 463 214 479 q 289 426 276 447 q 338 490 338 447 q 326 529 338 517 q 249 507 289 507 q 141 553 183 507 q 99 676 99 599 q 113 736 99 697 q 76 817 76 763 q 109 913 76 868 q 188 958 142 958 q 198 958 192 958 q 206 957 204 957 l 206 950 l 193 950 q 117 908 149 950 q 85 818 85 867 q 118 749 85 772 q 228 917 156 833 q 347 1000 300 1000 q 390 926 390 1000 q 341 812 390 867 q 228 733 292 757 l 228 732 q 226 729 226 731 q 196 568 196 604 q 208 534 196 547 q 231 518 221 521 q 247 515 240 515 q 315 540 281 515 q 268 554 296 554 q 229 546 238 554 l 229 550 q 264 563 242 563 q 322 546 299 563 q 381 672 381 597 q 342 733 381 733 q 281 701 304 733 q 257 631 257 668 q 282 589 257 589 q 313 613 301 589 q 325 661 325 638 q 322 678 325 667 l 331 678 q 333 661 333 672 q 318 608 333 635 q 282 581 303 581 q 249 633 249 581 q 274 707 249 671 q 338 743 300 743 q 384 717 367 743 q 401 656 401 692 q 335 535 401 582 q 351 488 351 518 q 292 411 351 436 q 293 406 293 410 q 275 372 293 386 q 238 357 257 357 m 1635 635 l 1647 635 q 1563 515 1615 515 q 1519 533 1539 515 q 1493 583 1499 550 q 1456 528 1472 542 q 1421 514 1440 514 q 1363 561 1383 514 q 1343 654 1343 608 q 1395 769 1343 703 q 1489 835 1447 835 q 1522 808 1513 835 q 1535 878 1528 842 q 1548 935 1543 914 q 1553 960 1553 957 q 1589 949 1575 949 q 1638 971 1603 949 q 1561 549 1561 567 q 1571 531 1561 531 q 1608 566 1589 531 q 1635 635 1626 601 m 1318 589 l 1328 589 q 1265 515 1310 515 q 1199 582 1213 515 q 1162 528 1178 542 q 1128 514 1146 514 q 1069 561 1090 514 q 1049 654 1049 608 q 1101 769 1049 703 q 1194 835 1153 835 q 1231 803 1221 835 l 1238 831 q 1275 821 1264 821 q 1321 842 1286 821 q 1268 549 1268 571 q 1276 531 1268 531 q 1318 589 1296 531 m 1935 589 l 1946 589 q 1882 515 1925 515 q 1817 582 1828 515 q 1779 527 1794 540 q 1746 514 1764 514 q 1687 561 1708 514 q 1665 654 1665 608 q 1718 769 1665 703 q 1813 835 1771 835 q 1849 803 1836 835 l 1856 831 q 1892 821 1882 821 q 1938 842 1906 821 q 1921 757 1935 826 q 1896 626 1907 688 q 1885 549 1885 565 q 1894 531 1885 531 q 1935 589 1913 531 m 694 589 l 704 589 q 640 515 686 515 q 599 532 618 515 q 575 582 581 549 q 539 527 554 540 q 503 514 524 514 q 447 561 467 514 q 426 654 426 608 q 479 769 426 703 q 574 835 532 835 q 607 803 594 835 l 614 831 q 650 821 640 821 q 667 824 660 821 q 685 834 675 826 q 697 842 696 842 q 680 756 694 825 q 654 626 665 688 q 643 549 643 565 q 654 531 643 531 q 694 589 672 531 m 467 -103 l 461 -103 q 410 -90 436 -103 q 383 -50 383 -76 q 419 -21 383 -21 q 466 -38 444 -21 q 488 -78 488 -56 q 487 -83 488 -79 q 486 -89 486 -87 q 544 -57 519 -81 q 569 4 569 -33 q 563 44 569 24 l 567 44 q 575 4 575 32 q 547 -64 575 -35 q 481 -100 519 -93 q 401 -139 460 -139 q 330 -122 364 -139 q 296 -71 296 -104 q 306 -43 296 -54 q 332 -32 315 -32 q 349 -33 342 -32 q 149 44 260 44 q 31 33 113 44 q 89 53 56 43 q 132 67 122 63 q 219 128 181 85 q 258 210 258 171 q 227 282 258 256 q 149 308 196 308 q 50 251 50 308 q 69 224 50 235 q 110 214 88 214 q 182 251 136 214 l 182 242 q 110 199 151 199 q 60 213 82 199 q 39 251 39 228 q 143 318 39 318 q 238 287 204 318 q 271 204 271 256 q 236 126 271 165 q 172 69 201 88 l 192 64 q 289 28 250 51 q 363 -43 328 6 l 361 -43 l 361 -44 q 349 -42 357 -44 q 338 -40 342 -40 q 303 -71 303 -40 q 337 -116 303 -100 q 401 -132 371 -132 q 467 -103 444 -132 m 1515 774 q 1494 824 1513 824 q 1483 819 1488 824 q 1474 810 1478 815 q 1468 795 1471 804 q 1464 780 1465 786 q 1460 764 1463 774 q 1458 753 1458 754 q 1424 540 1424 600 q 1433 529 1424 529 q 1475 576 1460 529 q 1515 774 1490 624 m 703 -33 l 686 -33 q 640 -76 640 -33 q 664 -122 640 -106 q 718 -139 688 -139 q 774 -120 747 -139 q 801 -71 801 -101 q 797 -40 801 -57 q 784 0 792 -22 q 774 29 776 22 q 718 -18 733 15 q 749 -40 738 -25 q 760 -68 760 -56 q 752 -85 760 -76 q 732 -94 744 -94 q 710 -81 719 -94 q 700 -54 700 -68 q 703 -33 700 -40 m 1814 628 q 1838 763 1817 668 q 1818 824 1838 824 q 1782 753 1792 824 q 1749 540 1749 569 q 1757 529 1749 529 q 1814 628 1790 529 m 1197 628 q 1221 763 1199 657 q 1201 824 1221 824 q 1188 819 1193 824 q 1178 803 1182 814 q 1172 786 1174 793 q 1167 767 1169 779 q 1165 753 1165 754 q 1132 540 1132 569 q 1139 529 1132 529 q 1197 628 1174 529 m 574 628 q 597 763 576 668 q 578 824 597 824 q 555 799 565 824 q 542 753 544 774 q 508 540 508 606 q 517 529 508 529 q 574 628 549 529 m 294 919 q 289 906 294 918 q 276 873 283 893 q 261 831 269 853 q 244 785 253 808 q 231 746 236 761 q 326 832 286 771 q 367 958 367 893 q 347 986 367 986 q 324 972 335 986 q 294 919 313 958 m 1642 539 l 1644 539 q 1608 470 1638 496 q 1539 439 1578 444 q 1510 388 1539 410 q 1442 365 1481 365 q 1381 381 1408 365 q 1354 433 1354 397 q 1372 474 1354 454 q 1413 494 1389 493 l 1413 490 q 1380 473 1394 488 q 1365 442 1365 458 q 1444 385 1365 385 q 1532 439 1529 385 q 1524 438 1529 438 q 1481 448 1499 438 q 1464 476 1464 458 q 1472 491 1464 485 q 1489 497 1481 497 q 1519 484 1506 497 q 1539 453 1533 471 q 1603 482 1574 457 q 1642 539 1633 507 m 1300 494 l 1311 489 q 1265 424 1303 451 q 1181 397 1226 397 l 1169 397 q 1117 379 1151 379 q 1008 438 1039 379 l 1008 439 q 1114 385 1057 385 q 1160 399 1144 385 q 1065 434 1111 406 q 1019 513 1019 463 q 1031 550 1019 538 l 1036 546 q 1031 515 1031 526 q 1075 444 1031 469 q 1172 414 1119 419 q 1176 433 1176 422 q 1156 476 1176 458 q 1107 493 1135 493 q 1064 482 1082 493 l 1060 483 q 1106 500 1076 500 q 1159 481 1135 500 q 1183 435 1183 463 q 1181 414 1183 425 l 1185 414 q 1258 434 1225 414 q 1300 494 1292 454 m 1333 157 q 1397 214 1372 163 q 1422 306 1422 265 q 1411 329 1422 329 q 1333 157 1367 329 m 1363 36 l 1363 33 q 1422 72 1389 33 q 1454 143 1454 110 q 1444 158 1454 158 q 1388 116 1414 158 q 1363 36 1363 74 m 278 422 q 239 456 265 442 q 190 471 213 471 q 147 446 147 471 q 221 413 147 413 q 278 422 250 413 m 875 354 l 869 356 l 869 358 q 849 399 865 386 q 818 413 833 413 q 775 397 808 413 q 708 381 742 381 q 672 408 672 381 q 688 435 672 426 q 719 443 703 443 l 783 436 q 818 461 818 436 q 806 485 818 476 q 776 494 793 494 q 746 475 746 494 q 763 460 746 460 q 786 467 775 460 l 788 458 q 764 453 776 453 q 738 474 738 453 q 751 493 738 485 q 778 501 765 501 q 813 490 799 501 q 826 463 826 479 q 783 431 826 431 l 719 438 q 678 408 678 438 q 707 389 678 389 q 761 406 725 389 q 810 424 797 424 q 857 404 839 424 q 875 354 875 385 m 1111 151 q 1074 125 1089 150 q 1058 72 1058 100 q 1083 33 1058 33 q 1093 42 1089 33 q 1100 66 1097 50 q 1105 94 1103 82 q 1109 126 1107 106 q 1111 151 1111 146 m 478 -75 q 460 -42 478 -56 q 424 -29 443 -29 q 394 -57 394 -29 q 415 -84 394 -75 q 457 -93 436 -93 q 478 -75 478 -93 m 425 265 q 471 336 471 297 q 454 357 471 357 q 428 338 436 357 q 419 297 419 318 q 425 265 419 276 m 1526 453 l 1531 453 q 1493 489 1522 489 q 1476 475 1476 489 q 1526 453 1476 453 m 714 -36 q 713 -50 713 -42 q 729 -83 713 -83 q 746 -71 746 -83 q 714 -36 746 -50 z "},"ﬀ":{"ha":900,"x_min":15,"x_max":951,"o":"m 951 958 l 940 804 q 858 817 897 817 q 776 728 776 817 l 776 683 l 924 683 l 924 515 l 776 515 l 776 0 l 553 0 l 553 515 l 326 515 l 326 0 l 103 0 l 103 515 l 15 515 l 15 683 l 103 683 l 103 721 q 158 906 103 849 q 350 976 225 976 q 426 972 389 976 q 483 963 464 967 l 501 958 l 490 804 q 408 817 447 817 q 326 728 326 817 l 326 683 l 553 683 l 553 721 q 608 906 553 849 q 800 976 675 976 q 876 972 839 976 q 933 963 914 967 l 951 958 z "},"ﬁ":{"ha":843,"x_min":15,"x_max":782,"o":"m 747 963 q 764 947 747 963 q 782 879 782 931 q 747 796 782 828 q 656 764 713 764 q 564 796 599 764 q 529 879 529 828 q 565 963 529 931 q 656 994 600 994 q 747 963 711 994 m 767 685 l 767 0 l 544 0 l 544 685 l 767 685 m 499 958 l 488 804 q 408 817 447 817 q 342 788 358 817 q 326 711 326 760 l 326 683 l 474 683 l 474 515 l 326 515 l 326 0 l 103 0 l 103 515 l 15 515 l 15 683 l 103 683 l 103 721 q 158 906 103 850 q 353 976 226 976 q 423 972 386 976 q 479 963 460 967 l 499 958 z "},"ﬂ":{"ha":850,"x_min":15,"x_max":771,"o":"m 771 958 l 771 0 l 549 0 l 549 958 l 771 958 m 499 958 l 488 804 q 408 817 450 817 q 326 728 326 817 l 326 683 l 474 683 l 474 515 l 326 515 l 326 0 l 103 0 l 103 515 l 15 515 l 15 683 l 103 683 l 103 724 q 157 903 103 843 q 353 976 224 976 q 426 972 389 976 q 481 963 463 967 l 499 958 z "},"ﬃ":{"ha":1275,"x_min":15,"x_max":1214,"o":"m 951 958 l 940 804 q 858 817 897 817 q 776 728 776 817 l 776 683 l 924 683 l 924 515 l 776 515 l 776 0 l 553 0 l 553 515 l 326 515 l 326 0 l 103 0 l 103 515 l 15 515 l 15 683 l 103 683 l 103 721 q 158 906 103 849 q 350 976 225 976 q 426 972 389 976 q 483 963 464 967 l 501 958 l 490 804 q 408 817 447 817 q 326 728 326 817 l 326 683 l 553 683 l 553 721 q 608 906 553 849 q 800 976 675 976 q 876 972 839 976 q 933 963 914 967 l 951 958 m 1199 685 l 1199 0 l 976 0 l 976 685 l 1199 685 m 1178 963 q 1196 947 1178 963 q 1214 879 1214 931 q 1179 796 1214 828 q 1088 764 1144 764 q 996 796 1031 764 q 961 879 961 828 q 997 963 961 931 q 1088 994 1032 994 q 1178 963 1143 994 z "},"ﬄ":{"ha":1279,"x_min":15,"x_max":1201,"o":"m 951 958 l 940 804 q 858 817 897 817 q 776 728 776 817 l 776 683 l 924 683 l 924 515 l 776 515 l 776 0 l 553 0 l 553 515 l 326 515 l 326 0 l 103 0 l 103 515 l 15 515 l 15 683 l 103 683 l 103 721 q 158 906 103 849 q 350 976 225 976 q 426 972 389 976 q 483 963 464 967 l 501 958 l 490 804 q 408 817 447 817 q 326 728 326 817 l 326 683 l 553 683 l 553 721 q 608 906 553 849 q 800 976 675 976 q 876 972 839 976 q 933 963 914 967 l 951 958 m 1201 958 l 1201 0 l 979 0 l 979 958 l 1201 958 z "}}}
